<?xml version="1.0" encoding="UTF-8" standalone="no"?>
<!-- Created with Inkscape (http://www.inkscape.org/) -->

<svg
   width="16"
   height="16"
   viewBox="0 0 4.2333332 4.2333335"
   version="1.1"
   id="svg5"
   inkscape:version="1.1.1 (3bf5ae0d25, 2021-09-20)"
   sodipodi:docname="edit-trash.svg"
   xmlns:inkscape="http://www.inkscape.org/namespaces/inkscape"
   xmlns:sodipodi="http://sodipodi.sourceforge.net/DTD/sodipodi-0.dtd"
   xmlns="http://www.w3.org/2000/svg"
   xmlns:svg="http://www.w3.org/2000/svg">
  <sodipodi:namedview
     id="namedview7"
     pagecolor="#ffffff"
     bordercolor="#666666"
     borderopacity="1.0"
     inkscape:pageshadow="2"
     inkscape:pageopacity="0.0"
     inkscape:pagecheckerboard="0"
     inkscape:document-units="px"
     showgrid="false"
     units="px"
     height="22px"
     showguides="false"
     inkscape:zoom="25.487985"
     inkscape:cx="14.300856"
     inkscape:cy="6.1793821"
     inkscape:window-width="1920"
     inkscape:window-height="1003"
     inkscape:window-x="0"
     inkscape:window-y="0"
     inkscape:window-maximized="1"
     inkscape:current-layer="svg5" />
  <defs
     id="defs2">
    <style
       id="current-color-scheme"
       type="text/css">.ColorScheme-Text {
        color:#363636;
      }
      .ColorScheme-NegativeText {
        color:#da4453;
      }</style>
  </defs>
  <path
     id="rect846"
     class="ColorScheme-NegativeText"
     style="fill:currentColor;fill-opacity:0.870588;stroke-width:0.341254"
     d="m 1.4484904,0.26458333 c -0.00226,1.1388e-4 -0.00449,2.9104e-4 -0.00672,5.1594e-4 -0.066871,0.006752 -0.1188557,0.0630667 -0.1188557,0.13177573 0,0.002291 -1.138e-4,0.004457 0,0.006718 V 0.79374999 H 0.66145833 c -0.0732896,0 -0.13229166,0.0590021 -0.13229166,0.13229167 0,0.0732896 0.0590021,0.13229164 0.13229166,0.13229164 H 0.79375 L 0.93844401,3.455603 C 0.95463701,3.7242874 1.1782086,3.96875 1.4670939,3.96875 h 1.2991455 c 0.2888985,0 0.5124574,-0.2444388 0.5286499,-0.513147 L 3.4395833,1.0583333 H 3.571875 c 0.07329,0 0.1322916,-0.059002 0.1322916,-0.13229164 0,-0.0732896 -0.059002,-0.13229167 -0.1322916,-0.13229167 H 2.9104166 V 0.40359292 c 1.138e-4,-0.002262 0,-0.004428 0,-0.006718 0,-0.004581 -5.42e-5,-0.008978 -5.167e-4,-0.0134359 -2.252e-4,-0.002228 -6.916e-4,-0.004524 -0.00103,-0.006718 -0.00867,-0.0570519 -0.053536,-0.10191827 -0.1105875,-0.11058755 -0.0032,-4.8686e-4 -0.00655,-7.7642e-4 -0.00982,-0.001034 -0.00111,-8.488e-5 -0.00249,-4.612e-4 -0.00362,-5.1676e-4 -0.00103,-5.256e-5 -0.00206,2.847e-5 -0.0031,0 -0.00114,-2.864e-5 -0.00246,0 -0.00362,0 h -0.00672 -1.3094807 -0.0031 c -0.00114,-2.835e-5 -0.00247,0 -0.00362,0 -0.00123,0 -0.00239,-3.32e-5 -0.00362,0 -0.00114,2.863e-5 -0.00197,-5.694e-5 -0.0031,0 z M 1.5875,0.52916666 H 2.6458333 V 0.79374999 H 1.5875 Z M 1.0588501,1.0583333 h 2.1156331 l -0.1436605,2.38125 C 3.0220041,3.5858979 2.9128185,3.7041666 2.7662394,3.7041666 H 1.4670939 c -0.1465791,0 -0.2557647,-0.1182687 -0.2645833,-0.2645833 z M 1.7197917,1.5875 C 1.6465016,1.5875 1.5875,1.646502 1.5875,1.7197916 v 1.3229167 c 0,0.07329 0.059002,0.1322917 0.1322917,0.1322917 0.07329,0 0.1322916,-0.059002 0.1322916,-0.1322917 V 1.7197916 c 0,-0.07329 -0.059002,-0.1322916 -0.1322916,-0.1322916 z m 0.7937499,0 c -0.07329,0 -0.1322916,0.059002 -0.1322916,0.1322916 v 1.3229167 c 0,0.07329 0.059002,0.1322917 0.1322916,0.1322917 0.07329,0 0.1322917,-0.059002 0.1322917,-0.1322917 V 1.7197916 c 0,-0.07329 -0.059002,-0.1322916 -0.1322917,-0.1322916 z" />
</svg>
