<?xml version="1.0" encoding="UTF-8" standalone="no"?>
<!-- Generator: Adobe Illustrator 23.0.0, SVG Export Plug-In . SVG Version: 6.00 Build 0)  -->

<svg
   version="1.1"
   id="레이어_1"
   x="0px"
   y="0px"
   viewBox="0 0 256 256"
   style="enable-background:new 0 0 256 256;"
   xml:space="preserve"
   sodipodi:docname="input-keyboard-virtual.svg"
   inkscape:version="1.1 (c4e8f9ed74, 2021-05-24)"
   xmlns:inkscape="http://www.inkscape.org/namespaces/inkscape"
   xmlns:sodipodi="http://sodipodi.sourceforge.net/DTD/sodipodi-0.dtd"
   xmlns="http://www.w3.org/2000/svg"
   xmlns:svg="http://www.w3.org/2000/svg"><defs
   id="defs17" /><sodipodi:namedview
   id="namedview15"
   pagecolor="#ffffff"
   bordercolor="#666666"
   borderopacity="1.0"
   inkscape:pageshadow="2"
   inkscape:pageopacity="0.0"
   inkscape:pagecheckerboard="0"
   showgrid="false"
   inkscape:zoom="2.4609375"
   inkscape:cx="128"
   inkscape:cy="128"
   inkscape:window-width="1920"
   inkscape:window-height="1009"
   inkscape:window-x="0"
   inkscape:window-y="0"
   inkscape:window-maximized="1"
   inkscape:current-layer="레이어_1" />
<style
   type="text/css"
   id="style2">
	.st0{opacity:0.1;}
	.st1{fill:#0091B1;}
	.st2{fill:#FFFFFF;}
</style>
<g
   class="st0"
   id="g8">
	<g
   id="g6">
		<path
   d="M132.7,0.5c6.2,0,18.1,0.3,33.3,2.3c23.7,3.1,45.1,11.5,60.9,26.3h0C241.6,44.8,250,66.3,253.2,90c3,22.6,2.3,38,2.3,38    s0.7,15.4-2.3,38c-3.1,23.7-11.5,45.1-26.3,60.9l0,0c-15.7,14.8-37.2,23.2-60.9,26.3c-15.1,2-27.1,2.3-33.3,2.3    c-3.1,0-4.7-0.1-4.7-0.1s-1.7,0.1-4.7,0.1c-6.2,0-18.1-0.3-33.3-2.3c-23.7-3.1-45.1-11.5-60.9-26.3l0,0    C14.4,211.2,6,189.7,2.8,166c-3-22.6-2.3-38-2.3-38s-0.7-15.4,2.3-38C6,66.3,14.4,44.8,29.1,29.1h0C44.9,14.3,66.3,5.9,90,2.8    c15.2-2,27.1-2.3,33.3-2.3c3.1,0,4.7,0.1,4.7,0.1S129.7,0.5,132.7,0.5"
   id="path4" />
	</g>
</g>
<path
   class="st1"
   d="M251.7,90.4c-3.1-23.4-11.4-44.6-26-60.1l0,0c-15.6-14.6-36.7-22.9-60.1-26C143.2,1.3,128,2,128,2  s-15.2-0.7-37.6,2.3C67,7.4,45.8,15.7,30.3,30.3C15.7,45.8,7.5,67,4.3,90.4c-3,22.3-2.2,37.6-2.2,37.6s-0.7,15.2,2.2,37.6  c3.1,23.4,11.4,44.6,26,60.1l0,0c15.6,14.6,36.7,22.9,60.1,26c22.3,3,37.6,2.2,37.6,2.2s15.2,0.7,37.6-2.2  c23.4-3.1,44.6-11.4,60.1-26l0,0c14.6-15.6,22.9-36.7,26-60.1c3-22.3,2.2-37.6,2.2-37.6S254.7,112.8,251.7,90.4L251.7,90.4z"
   id="path10" />
<path
   id="path12"
   class="st2"
   d="M 73.300781,71.599609 C 64.800781,71.599609 58,78.500391 58,86.900391 v 74.298829 c 0,8.5 6.900781,15.30078 15.300781,15.30078 h 75.798829 l 27.5,27.5 v -27.5 h 6.09961 c 8.5,0 15.30078,-6.90078 15.30078,-15.30078 V 86.900391 c 0,-8.5 -6.90078,-15.300782 -15.30078,-15.300782 z m 32.798829,19.800782 c 4.4,0 7.90039,3.50039 7.90039,7.900389 0,4.4 -3.50039,7.89844 -7.90039,7.89844 -4.4,0 -7.900391,-3.49844 -7.900391,-7.89844 0,-4.399999 3.500391,-7.900389 7.900391,-7.900389 z m 23.5,0 c 4.4,0 7.90039,3.50039 7.90039,7.900389 0,4.4 -3.50039,7.89844 -7.90039,7.89844 -4.4,0 -7.90039,-3.49844 -7.90039,-7.89844 0,-4.399999 3.50039,-7.900389 7.90039,-7.900389 z M 83.599609,91.5 c 4.4,0 7.900391,3.500391 7.900391,7.90039 0,4.4 -3.500391,7.90039 -7.900391,7.90039 -4.4,0 -7.90039,-3.50039 -7.90039,-7.90039 0,-4.399999 3.50039,-7.90039 7.90039,-7.90039 z m 67.099611,0 c 4.4,0 7.90039,3.500391 7.90039,7.90039 0,4.4 -3.50039,7.90039 -7.90039,7.90039 -4.4,0 -7.89844,-3.50039 -7.89844,-7.90039 0,-4.399999 3.49844,-7.90039 7.89844,-7.90039 z m 22,0 c 4.4,0 7.90039,3.500391 7.90039,7.90039 0,4.4 -3.50039,7.90039 -7.90039,7.90039 -4.4,0 -7.89844,-3.50039 -7.89844,-7.90039 0,-4.399999 3.49844,-7.90039 7.89844,-7.90039 z m -89.099611,25.19922 c 4.4,0 7.900391,3.50039 7.900391,7.90039 0,4.4 -3.500391,7.90039 -7.900391,7.90039 -4.4,0 -7.90039,-3.50039 -7.90039,-7.90039 0,-4.4 3.50039,-7.90039 7.90039,-7.90039 z m 22.500001,0 c 4.4,0 7.90039,3.50039 7.90039,7.90039 0,4.4 -3.50039,7.90039 -7.90039,7.90039 -4.4,0 -7.900391,-3.50039 -7.900391,-7.90039 0,-4.4 3.500391,-7.90039 7.900391,-7.90039 z m 23.5,0 c 4.4,0 7.90039,3.50039 7.90039,7.90039 0,4.4 -3.50039,7.90039 -7.90039,7.90039 -4.4,0 -7.90039,-3.50039 -7.90039,-7.90039 0,-4.4 3.50039,-7.90039 7.90039,-7.90039 z m 21.09961,0 c 4.4,0 7.90039,3.50039 7.90039,7.90039 0,4.4 -3.50039,7.90039 -7.90039,7.90039 -4.4,0 -7.89844,-3.50039 -7.89844,-7.90039 0,-4.4 3.49844,-7.90039 7.89844,-7.90039 z m 22,0 c 4.4,0 7.90039,3.50039 7.90039,7.90039 0,4.4 -3.50039,7.90039 -7.90039,7.90039 -4.4,0 -7.89844,-3.50039 -7.89844,-7.90039 0,-4.4 3.49844,-7.90039 7.89844,-7.90039 z m -71.79883,27.5 h 53.69922 v 16.60156 h -53.69922 z" />
</svg>
