<?xml version="1.0" encoding="UTF-8" standalone="no"?>
<!-- Generator: Adobe Illustrator 23.0.0, SVG Export Plug-In . SVG Version: 6.00 Build 0)  -->

<svg
   version="1.1"
   id="레이어_1"
   x="0px"
   y="0px"
   viewBox="0 0 256 256"
   style="enable-background:new 0 0 256 256;"
   xml:space="preserve"
   sodipodi:docname="network-vpn.svg"
   inkscape:version="1.1.1 (3bf5ae0d25, 2021-09-20)"
   xmlns:inkscape="http://www.inkscape.org/namespaces/inkscape"
   xmlns:sodipodi="http://sodipodi.sourceforge.net/DTD/sodipodi-0.dtd"
   xmlns="http://www.w3.org/2000/svg"
   xmlns:svg="http://www.w3.org/2000/svg"
   xmlns:rdf="http://www.w3.org/1999/02/22-rdf-syntax-ns#"
   xmlns:cc="http://creativecommons.org/ns#"
   xmlns:dc="http://purl.org/dc/elements/1.1/"><metadata
   id="metadata15"><rdf:RDF><cc:Work
       rdf:about=""><dc:format>image/svg+xml</dc:format><dc:type
         rdf:resource="http://purl.org/dc/dcmitype/StillImage" /></cc:Work></rdf:RDF></metadata><defs
   id="defs13">
	
</defs><sodipodi:namedview
   pagecolor="#ffffff"
   bordercolor="#666666"
   borderopacity="1"
   objecttolerance="10"
   gridtolerance="10"
   guidetolerance="10"
   inkscape:pageopacity="0"
   inkscape:pageshadow="2"
   inkscape:window-width="1920"
   inkscape:window-height="1007"
   id="namedview11"
   showgrid="false"
   inkscape:zoom="0.65186406"
   inkscape:cx="-113.5206"
   inkscape:cy="26.846088"
   inkscape:window-x="0"
   inkscape:window-y="0"
   inkscape:window-maximized="1"
   inkscape:current-layer="레이어_1"
   inkscape:pagecheckerboard="0" />
<style
   type="text/css"
   id="style2">
</style>
<path
   d="M251.7,90.4c-3.1-23.4-11.4-44.6-26-60.1l0,0c-15.6-14.6-36.7-22.9-60.1-26C143.2,1.3,128,2,128,2  s-15.2-0.7-37.6,2.3C67,7.4,45.8,15.7,30.3,30.3C15.7,45.8,7.5,67,4.3,90.4c-3,22.3-2.2,37.6-2.2,37.6s-0.7,15.2,2.2,37.6  c3.1,23.4,11.4,44.6,26,60.1l0,0c15.6,14.6,36.7,22.9,60.1,26c22.3,3,37.6,2.2,37.6,2.2s15.2,0.7,37.6-2.2  c23.4-3.1,44.6-11.4,60.1-26l0,0c14.6-15.6,22.9-36.7,26-60.1c3-22.3,2.2-37.6,2.2-37.6S254.7,112.8,251.7,90.4"
   id="path4"
   style="fill:#52a3ff;fill-opacity:1" />

<path
   id="path943"
   style="fill:#ffffff;fill-opacity:1;stroke-width:0.851951"
   d="m 85.330078,85.21875 c -24.300529,0 -44,19.69947 -44,44 0,24.30053 19.699471,44 44,44 16.084652,-0.0462 30.862332,-8.86543 38.539062,-23 h 18.46094 v 20 h 44 v -20 h 24 v -42 h -86.3418 c -7.69716,-14.172028 -22.53081,-22.997424 -38.658202,-23 z m 0,15 c 12.545132,0.004 23.665272,8.07429 27.558592,20 h 85.44141 v 18 h -24 v 20 h -20 v -20 H 112.8457 c -3.88839,11.91068 -14.98632,19.9773 -27.515622,20 -16.016258,0 -29,-12.98374 -29,-29 -10e-7,-16.01626 12.983741,-29 29,-29 z m 0,20 c -6.075132,0 -9,2.92487 -9,9 0,6.07513 2.924868,9 9,9 6.075133,0 9.000002,-2.92487 9.000002,-9 0,-6.07513 -2.924869,-9 -9.000002,-9 z"
   sodipodi:nodetypes="csccccccccccccccccccccscsssss" /></svg>
