<?xml version="1.0" encoding="UTF-8" standalone="no"?>
<!-- Created with Inkscape (http://www.inkscape.org/) -->

<svg
   width="24"
   height="24"
   viewBox="0 0 6.3499999 6.3500002"
   version="1.1"
   id="svg855"
   inkscape:version="1.1.1 (3bf5ae0d25, 2021-09-20)"
   sodipodi:docname="help.svg"
   xmlns:inkscape="http://www.inkscape.org/namespaces/inkscape"
   xmlns:sodipodi="http://sodipodi.sourceforge.net/DTD/sodipodi-0.dtd"
   xmlns="http://www.w3.org/2000/svg"
   xmlns:svg="http://www.w3.org/2000/svg">
  <sodipodi:namedview
     id="namedview857"
     pagecolor="#ffffff"
     bordercolor="#666666"
     borderopacity="1.0"
     inkscape:pageshadow="2"
     inkscape:pageopacity="0.0"
     inkscape:pagecheckerboard="0"
     inkscape:document-units="px"
     showgrid="false"
     units="px"
     inkscape:zoom="9.0113636"
     inkscape:cx="44.443884"
     inkscape:cy="7.9344263"
     inkscape:window-width="1920"
     inkscape:window-height="1003"
     inkscape:window-x="0"
     inkscape:window-y="0"
     inkscape:window-maximized="1"
     inkscape:current-layer="svg855" />
  <defs
     id="defs852" />
  <g
     id="active-center"
     transform="scale(1.0909091)">
    <rect
       style="opacity:1;fill:none;fill-opacity:1;stroke-width:0.0971541"
       id="rect938"
       width="5.8208332"
       height="5.8208332"
       x="2.7755576e-17"
       y="2.7755576e-17" />
    <path
       d="M 2.7102569,3.6654776 Q 2.7148269,3.3954861 2.7834749,3.2307455 2.8521169,3.0660049 3.0786351,2.8440628 3.3051534,2.6198326 3.3692191,2.52831 3.4355731,2.434499 3.469894,2.3246725 3.506503,2.2125573 3.506503,2.0706974 q 0,-0.2860079 -0.1533003,-0.4484605 -0.1510122,-0.1647405 -0.4232918,-0.1647405 -0.2745676,0 -0.4438842,0.1578764 Q 2.318998,1.7709611 2.3144219,2.0386646 H 2.0421423 q 0.00457,-0.3752425 0.253975,-0.5994727 0.249399,-0.2265183 0.6337936,-0.2265183 0.3935469,0 0.6200652,0.2310944 0.2288064,0.2288064 0.2288064,0.6223533 0,0.2471108 -0.1121152,0.4644768 -0.1121151,0.215078 -0.4255798,0.503374 -0.2585511,0.217366 -0.2585511,0.6315055 z m -0.036609,0.7642132 q 0,-0.077794 0.048049,-0.1304196 0.050337,-0.054914 0.1395718,-0.054914 0.086947,0 0.1372839,0.054914 0.052626,0.052626 0.052626,0.1304196 0,0.075506 -0.052626,0.1281315 -0.050338,0.050338 -0.1372839,0.050338 -0.089235,0 -0.1395718,-0.050338 -0.048049,-0.052626 -0.048049,-0.1281315 z"
       style="font-weight:300;font-size:5.11195px;line-height:1.25;font-family:Roboto;-inkscape-font-specification:'Roboto Light';fill:#dedede;fill-opacity:1;stroke-width:0.117149"
       id="path10444" />
  </g>
  <g
     id="hover-center"
     transform="scale(1.0909091)">
    <rect
       style="opacity:1;fill:none;fill-opacity:1;stroke-width:0.173636"
       id="rect1103"
       width="5.8208332"
       height="5.8208332"
       x="5.8208332"
       y="9.7534873e-08" />
    <path
       d="M 8.5310901,3.6654776 Q 8.5356601,3.3954861 8.6043081,3.2307455 8.6729501,3.066005 8.8994683,2.8440628 9.1259866,2.6198326 9.1900523,2.52831 9.2564063,2.434499 9.2907272,2.3246724 q 0.036609,-0.1121151 0.036609,-0.253975 0,-0.2860079 -0.1533003,-0.4484605 -0.1510122,-0.1647406 -0.4232918,-0.1647406 -0.2745676,0 -0.4438842,0.1578764 Q 8.1398312,1.7709611 8.1352551,2.0386646 H 7.8629755 q 0.00457,-0.3752425 0.253975,-0.5994727 0.249399,-0.2265183 0.6337936,-0.2265183 0.3935469,0 0.6200652,0.2310944 0.2288064,0.2288064 0.2288064,0.6223533 0,0.2471108 -0.1121152,0.4644768 -0.1121151,0.215078 -0.4255798,0.503374 -0.2585511,0.217366 -0.2585511,0.6315055 z m -0.036609,0.7642132 q 0,-0.077794 0.048049,-0.1304196 0.050337,-0.054914 0.1395718,-0.054914 0.086947,0 0.1372839,0.054914 0.052626,0.052626 0.052626,0.1304196 0,0.075506 -0.052626,0.1281316 -0.050338,0.050338 -0.1372839,0.050338 -0.089235,0 -0.1395718,-0.050338 -0.048049,-0.052626 -0.048049,-0.1281316 z"
       style="font-weight:300;font-size:5.11195px;line-height:1.25;font-family:Roboto;-inkscape-font-specification:'Roboto Light';fill:#dedede;fill-opacity:1;stroke-width:0.117149"
       id="path10444-3" />
    <circle
       style="opacity:0.07;fill:#000000;fill-opacity:1;stroke-width:0.264583"
       id="path1519"
       cx="8.7312498"
       cy="2.9104166"
       r="2.9104166" />
  </g>
  <g
     id="pressed-center"
     transform="scale(1.0909091)">
    <rect
       style="opacity:1;fill:none;fill-opacity:1;stroke-width:0.182689"
       id="rect1207"
       width="5.8208332"
       height="5.8208332"
       x="11.641666"
       y="9.7534873e-08" />
    <path
       d="m 14.351922,3.6654776 q 0.0046,-0.2699915 0.07322,-0.4347321 0.06864,-0.1647405 0.29516,-0.3866827 0.226519,-0.2242302 0.290584,-0.3157528 0.06635,-0.093811 0.100675,-0.2036376 0.03661,-0.1121151 0.03661,-0.253975 0,-0.2860079 -0.1533,-0.4484605 -0.151012,-0.1647406 -0.423292,-0.1647406 -0.274567,0 -0.443884,0.1578764 -0.167029,0.1555884 -0.171605,0.4232919 h -0.272279 q 0.0046,-0.3752425 0.253975,-0.5994727 0.249399,-0.2265183 0.633793,-0.2265183 0.393547,0 0.620065,0.2310944 0.228807,0.2288064 0.228807,0.6223533 0,0.2471108 -0.112115,0.4644768 -0.112116,0.215078 -0.42558,0.503374 -0.258551,0.217366 -0.258551,0.6315055 z m -0.03661,0.7642132 q 0,-0.077794 0.04805,-0.1304196 0.05034,-0.054914 0.139572,-0.054914 0.08695,0 0.137284,0.054914 0.05263,0.052626 0.05263,0.1304196 0,0.075506 -0.05263,0.1281316 -0.05034,0.050338 -0.137284,0.050338 -0.08924,0 -0.139572,-0.050338 -0.04805,-0.052626 -0.04805,-0.1281316 z"
       style="font-weight:300;font-size:5.11195px;line-height:1.25;font-family:Roboto;-inkscape-font-specification:'Roboto Light';fill:#dedede;fill-opacity:1;stroke-width:0.117149"
       id="path10444-3-6" />
    <circle
       style="opacity:0.16;fill:#000000;fill-opacity:1;stroke-width:0.264583"
       id="path1685"
       cx="14.552083"
       cy="2.9104166"
       r="2.9104166" />
  </g>
  <g
     id="inactive-center"
     transform="scale(1.0909091)">
    <rect
       style="opacity:1;fill:none;fill-opacity:1;stroke-width:0.194407"
       id="rect1311"
       width="5.8208332"
       height="5.8208332"
       x="17.4625"
       y="-2.7755576e-17" />
    <path
       d="m 20.172753,3.6654776 q 0.0046,-0.2699915 0.07322,-0.4347321 0.06864,-0.1647405 0.295161,-0.3866827 0.226518,-0.2242302 0.290584,-0.3157528 0.06635,-0.093811 0.100675,-0.2036376 0.03661,-0.1121151 0.03661,-0.253975 0,-0.2860079 -0.153301,-0.4484605 -0.151012,-0.1647406 -0.423292,-0.1647406 -0.274567,0 -0.443884,0.1578764 -0.167029,0.1555884 -0.171605,0.4232919 h -0.272279 q 0.0046,-0.3752425 0.253975,-0.5994727 0.249399,-0.2265183 0.633793,-0.2265183 0.393547,0 0.620066,0.2310944 0.228806,0.2288064 0.228806,0.6223533 0,0.2471108 -0.112115,0.4644768 -0.112115,0.215078 -0.42558,0.503374 -0.258551,0.217366 -0.258551,0.6315055 z m -0.03661,0.7642132 q 0,-0.077794 0.04805,-0.1304196 0.05034,-0.054914 0.139572,-0.054914 0.08695,0 0.137284,0.054914 0.05263,0.052626 0.05263,0.1304196 0,0.075506 -0.05263,0.1281316 -0.05034,0.050338 -0.137284,0.050338 -0.08924,0 -0.139572,-0.050338 -0.04805,-0.052626 -0.04805,-0.1281316 z"
       style="font-weight:300;font-size:5.11195px;line-height:1.25;font-family:Roboto;-inkscape-font-specification:'Roboto Light';opacity:0.3;fill:#dedede;fill-opacity:1;stroke-width:0.117149"
       id="path10444-3-7" />
  </g>
  <g
     id="deactivated-center"
     transform="scale(1.0909091)">
    <rect
       style="opacity:1;fill:none;fill-opacity:1;stroke-width:0.125144"
       id="rect1415"
       width="5.8208332"
       height="5.8208332"
       x="23.283333"
       y="-2.7755576e-17" />
    <path
       d="m 25.993586,3.6654776 q 0.0046,-0.2699915 0.07322,-0.4347321 0.06864,-0.1647405 0.295161,-0.3866827 0.226518,-0.2242302 0.290584,-0.3157528 0.06635,-0.093811 0.100674,-0.2036376 0.03661,-0.1121151 0.03661,-0.253975 0,-0.2860079 -0.1533,-0.4484605 -0.151012,-0.1647406 -0.423292,-0.1647406 -0.274567,0 -0.443884,0.1578764 -0.167029,0.1555884 -0.171605,0.4232919 h -0.272279 q 0.0046,-0.3752425 0.253975,-0.5994727 0.249399,-0.2265183 0.633793,-0.2265183 0.393547,0 0.620066,0.2310944 0.228806,0.2288064 0.228806,0.6223533 0,0.2471108 -0.112115,0.4644768 -0.112115,0.215078 -0.42558,0.503374 -0.258551,0.217366 -0.258551,0.6315055 z m -0.03661,0.7642132 q 0,-0.077794 0.04805,-0.1304196 0.05034,-0.054914 0.139572,-0.054914 0.08695,0 0.137284,0.054914 0.05263,0.052626 0.05263,0.1304196 0,0.075506 -0.05263,0.1281316 -0.05034,0.050338 -0.137284,0.050338 -0.08923,0 -0.139572,-0.050338 -0.04805,-0.052626 -0.04805,-0.1281316 z"
       style="font-weight:300;font-size:5.11195px;line-height:1.25;font-family:Roboto;-inkscape-font-specification:'Roboto Light';opacity:0.2;fill:#dedede;fill-opacity:1;stroke-width:0.117149"
       id="path10444-3-5" />
  </g>
</svg>
