<?xml version="1.0" encoding="UTF-8" standalone="no"?>
<!-- Created with Inkscape (http://www.inkscape.org/) -->

<svg
   width="22"
   height="22"
   viewBox="0 0 5.8208332 5.8208335"
   version="1.1"
   id="svg855"
   inkscape:version="1.1 (c4e8f9ed74, 2021-05-24)"
   sodipodi:docname="close.svg"
   xmlns:inkscape="http://www.inkscape.org/namespaces/inkscape"
   xmlns:sodipodi="http://sodipodi.sourceforge.net/DTD/sodipodi-0.dtd"
   xmlns="http://www.w3.org/2000/svg"
   xmlns:svg="http://www.w3.org/2000/svg">
  <sodipodi:namedview
     id="namedview857"
     pagecolor="#ffffff"
     bordercolor="#666666"
     borderopacity="1.0"
     inkscape:pageshadow="2"
     inkscape:pageopacity="0.0"
     inkscape:pagecheckerboard="0"
     inkscape:document-units="px"
     showgrid="false"
     units="px"
     inkscape:zoom="4"
     inkscape:cx="21.5"
     inkscape:cy="4.25"
     inkscape:window-width="1432"
     inkscape:window-height="831"
     inkscape:window-x="285"
     inkscape:window-y="148"
     inkscape:window-maximized="0"
     inkscape:current-layer="svg855" />
  <defs
     id="defs852" />
  <g
     id="active-center"
     transform="scale(1.0909091)">
    <rect
       style="opacity:1;fill:none;fill-opacity:1;stroke-width:0.0890579"
       id="rect938"
       width="5.3357639"
       height="5.3357639"
       x="-7.1054274e-15"
       y="0" />
    <path
       id="rect10063-2-9"
       style="opacity:1;fill:#363636;fill-opacity:1;stroke:none;stroke-width:0.154802;stroke-opacity:1"
       d="m 1.1244961,1.0032244 c -0.031,0 -0.06199,0.011775 -0.08574,0.035528 -0.04751,0.047505 -0.04751,0.1239747 0,0.1714796 l 1.457576,1.4575767 -1.457576,1.4580506 c -0.04751,0.047505 -0.04751,0.1239748 0,0.1714795 0.04751,0.047505 0.123974,0.047505 0.171479,0 l 1.457577,-1.4580504 1.458051,1.4580504 c 0.04751,0.047505 0.123974,0.047505 0.171479,0 0.0475,-0.047505 0.0475,-0.1239745 0,-0.1714795 l -1.45805,-1.4580506 1.45805,-1.4575767 c 0.0475,-0.047505 0.0475,-0.1239747 0,-0.1714796 -0.04751,-0.047505 -0.123974,-0.047505 -0.171479,0 L 2.6678121,2.4963287 1.2102351,1.0387519 c -0.02375,-0.023753 -0.05474,-0.035528 -0.08574,-0.035528 z" />
  </g>
  <g
     id="hover-center"
     transform="matrix(1.0909091,0,0,1.0909091,-0.52916649,0)">
    <rect
       style="opacity:1;fill:none;fill-opacity:1;stroke-width:0.159166"
       id="rect1103"
       width="5.3357639"
       height="5.3357639"
       x="5.8208332"
       y="0" />
    <path
       id="rect10063-9"
       style="fill:#363636;fill-opacity:1;stroke:none;stroke-width:0.154802;stroke-opacity:1"
       d="m 6.9453257,1.0032248 c -0.030998,0 -0.061987,0.011775 -0.08574,0.035528 -0.047505,0.047505 -0.047505,0.1239747 0,0.1714796 l 1.4575771,1.4575763 -1.457577,1.4580506 c -0.047505,0.047505 -0.047505,0.1239748 0,0.1714796 0.047505,0.047505 0.1239747,0.047505 0.1714797,0 L 8.4886428,2.8392885 9.9466931,4.2973389 c 0.0475,0.047505 0.1239749,0.047505 0.1714799,0 0.0475,-0.047505 0.0475,-0.1239746 0,-0.1714796 L 8.6601218,2.6678087 10.118173,1.210232 c 0.0475,-0.047505 0.0475,-0.1239747 0,-0.1714796 -0.04751,-0.047505 -0.1239749,-0.047505 -0.1714799,0 L 8.4886428,2.4963291 7.0310655,1.0387524 c -0.023752,-0.023752 -0.054742,-0.035528 -0.08574,-0.035528 z" />
    <circle
       style="opacity:0.07;fill:#000000;fill-opacity:1;stroke-width:0.242534"
       id="path1519"
       cx="8.4887152"
       cy="2.667882"
       r="2.667882" />
  </g>
  <g
     id="pressed-center"
     transform="matrix(1.0909091,0,0,1.0909091,-1.058333,0)">
    <rect
       style="opacity:1;fill:none;fill-opacity:1;stroke-width:0.167465"
       id="rect1207"
       width="5.3357639"
       height="5.3357639"
       x="11.641666"
       y="0" />
    <path
       id="rect10063-1"
       style="fill:#363636;fill-opacity:1;stroke:none;stroke-width:0.154802;stroke-opacity:1"
       d="m 12.766163,1.0032248 c -0.031,0 -0.06199,0.011775 -0.08574,0.035528 -0.04751,0.047505 -0.04751,0.1239746 0,0.1714796 l 1.457576,1.4575767 -1.457576,1.4580505 c -0.04751,0.047505 -0.04751,0.1239748 0,0.1714796 0.0475,0.047505 0.123974,0.047505 0.171479,0 l 1.457577,-1.4580503 1.458051,1.4580503 c 0.0475,0.047505 0.123974,0.047505 0.171479,0 0.04751,-0.047505 0.04751,-0.1239745 0,-0.1714796 l -1.45805,-1.4580509 1.45805,-1.4575767 c 0.04751,-0.047505 0.04751,-0.1239747 0,-0.1714796 -0.04751,-0.047505 -0.123974,-0.047505 -0.171479,0 L 14.309479,2.4963291 12.851902,1.0387523 c -0.02375,-0.023753 -0.05474,-0.035528 -0.08574,-0.035528 z" />
    <circle
       style="opacity:0.16;fill:#000000;fill-opacity:1;stroke-width:0.242534"
       id="path1685"
       cx="14.309548"
       cy="2.667882"
       r="2.667882" />
  </g>
  <g
     id="inactive-center"
     transform="matrix(1.0909091,0,0,1.0909091,-1.5874995,0)">
    <rect
       style="opacity:1;fill:none;fill-opacity:1;stroke-width:0.178206"
       id="rect1311"
       width="5.3357639"
       height="5.3357639"
       x="17.4625"
       y="0" />
    <path
       id="rect10063-2"
       style="opacity:0.3;fill:#363636;fill-opacity:1;stroke:none;stroke-width:0.154802;stroke-opacity:1"
       d="m 18.586996,1.0032244 c -0.031,0 -0.06199,0.011775 -0.08574,0.035528 -0.04751,0.047505 -0.04751,0.1239747 0,0.1714796 l 1.457576,1.4575767 -1.457576,1.4580506 c -0.04751,0.047505 -0.04751,0.1239748 0,0.1714795 0.04751,0.047505 0.123974,0.047505 0.171479,0 l 1.457577,-1.4580504 1.458051,1.4580504 c 0.04751,0.047505 0.123974,0.047505 0.171479,0 0.0475,-0.047505 0.0475,-0.1239745 0,-0.1714795 l -1.45805,-1.4580506 1.45805,-1.4575767 c 0.0475,-0.047505 0.0475,-0.1239747 0,-0.1714796 -0.04751,-0.047505 -0.123974,-0.047505 -0.171479,0 L 20.130312,2.4963287 18.672735,1.0387519 c -0.02375,-0.023753 -0.05474,-0.035528 -0.08574,-0.035528 z" />
  </g>
  <g
     id="deactivated-center"
     transform="matrix(1.0909091,0,0,1.0909091,-2.116666,0)">
    <rect
       style="opacity:1;fill:none;fill-opacity:1;stroke-width:0.114715"
       id="rect1415"
       width="5.3357639"
       height="5.3357639"
       x="23.283333"
       y="0" />
    <path
       id="rect10063-2-0"
       style="opacity:0.2;fill:#363636;fill-opacity:1;stroke:none;stroke-width:0.154802;stroke-opacity:1"
       d="m 24.407829,1.0032244 c -0.031,0 -0.06199,0.011775 -0.08574,0.035528 -0.04751,0.047505 -0.04751,0.1239747 0,0.1714796 l 1.457575,1.4575767 -1.457575,1.4580506 c -0.04751,0.047505 -0.04751,0.1239748 0,0.1714795 0.04751,0.047505 0.123973,0.047505 0.171478,0 l 1.457577,-1.4580504 1.458052,1.4580504 c 0.04751,0.047505 0.123974,0.047505 0.171479,0 0.0475,-0.047505 0.0475,-0.1239745 0,-0.1714795 l -1.45805,-1.4580506 1.45805,-1.4575767 c 0.0475,-0.047505 0.0475,-0.1239747 0,-0.1714796 -0.04751,-0.047505 -0.123974,-0.047505 -0.171479,0 L 25.951144,2.4963287 24.493567,1.0387519 c -0.02375,-0.023752 -0.05474,-0.035528 -0.08574,-0.035528 z" />
  </g>
</svg>
