<?xml version="1.0" encoding="UTF-8" standalone="no"?>
<!-- Created with Inkscape (http://www.inkscape.org/) -->

<svg
   width="124"
   height="52"
   viewBox="0 0 32.808333 13.758334"
   version="1.1"
   id="svg5"
   inkscape:version="1.1.1 (3bf5ae0d25, 2021-09-20)"
   sodipodi:docname="configuration-icons.svg"
   xmlns:inkscape="http://www.inkscape.org/namespaces/inkscape"
   xmlns:sodipodi="http://sodipodi.sourceforge.net/DTD/sodipodi-0.dtd"
   xmlns="http://www.w3.org/2000/svg"
   xmlns:svg="http://www.w3.org/2000/svg">
  <sodipodi:namedview
     id="namedview7"
     pagecolor="#ffffff"
     bordercolor="#666666"
     borderopacity="1.0"
     inkscape:pageshadow="2"
     inkscape:pageopacity="0.0"
     inkscape:pagecheckerboard="0"
     inkscape:document-units="px"
     showgrid="false"
     units="px"
     inkscape:zoom="2.149462"
     inkscape:cx="66.760892"
     inkscape:cy="104.90997"
     inkscape:window-width="1920"
     inkscape:window-height="1003"
     inkscape:window-x="0"
     inkscape:window-y="0"
     inkscape:window-maximized="1"
     inkscape:current-layer="svg5" />
  <defs
     id="defs2">
    <style
       id="current-color-scheme"
       type="text/css">.ColorScheme-Text {
        color:#363636;
      }
      .ColorScheme-NegativeText {
        color:#da4453;
      }</style>
  </defs>
  <g
     id="close"
     transform="translate(23.875736,9.6620544)">
    <rect
       style="fill:none;fill-opacity:1;stroke-width:0.403564"
       id="rect843"
       width="4.2333336"
       height="4.2333336"
       x="-1.3877788e-17"
       y="0" />
    <path
       id="rect846"
       class="ColorScheme-Text"
       style="fill:currentColor;fill-opacity:0.99;stroke-width:0.257285"
       d="m 0.65422408,0.52923751 c -0.0313697,0.001702 -0.0622063,0.0146668 -0.0862945,0.038755 -0.0518209,0.0518205 -0.0518209,0.13523663 0,0.1870575 L 1.9296092,2.1167279 0.56792958,3.4783462 c -0.0518209,0.051821 -0.0518209,0.1352371 0,0.1870577 0.0518209,0.05182 0.135237,0.05182 0.18705751,0 L 2.1166666,2.3037854 3.4783462,3.6654039 c 0.051821,0.05182 0.1352366,0.05182 0.1870577,0 0.051821,-0.051821 0.051821,-0.1352366 0,-0.1870577 L 2.3037241,2.1167279 3.665404,0.75505001 c 0.051821,-0.0518209 0.051821,-0.135237 0,-0.1870575 -0.02753,-0.0275293 -0.06384,-0.0404756 -0.09973,-0.038755 -0.031667,0.001518 -0.063037,0.0144644 -0.087328,0.038755 L 2.1166666,1.9296704 0.7549871,0.56799252 c -0.0242906,-0.0242906 -0.0556608,-0.0372371 -0.0873279,-0.038755 -0.004486,-2.1507e-4 -0.008954,-2.431e-4 -0.0134351,-1e-8 z"
       sodipodi:nodetypes="ccsccscccscccssccssc" />
  </g>
  <g
     transform="matrix(1.0909091,0,0,1.0909091,-0.26617084,9.6602023)"
     id="help">
    <rect
       style="opacity:1;fill:none;fill-opacity:1;stroke-width:0.0647694"
       id="rect938"
       width="3.8805556"
       height="3.8805556"
       x="2.7755576e-17"
       y="2.7755576e-17" />
    <path
       d="m 1.7401181,2.6953388 q 0.00457,-0.2699915 0.073218,-0.4347321 0.068642,-0.1647406 0.2951602,-0.3866827 0.2265183,-0.2242302 0.290584,-0.3157528 0.066354,-0.093811 0.1006749,-0.2036375 0.036609,-0.1121152 0.036609,-0.2539751 0,-0.28600794 -0.1533003,-0.44846054 -0.1510122,-0.16474054 -0.4232918,-0.16474054 -0.2745676,0 -0.4438842,0.15787644 Q 1.3488592,0.80082226 1.3442831,1.0685258 H 1.0720035 q 0.00457,-0.37524254 0.253975,-0.59947278 0.249399,-0.2265183 0.6337936,-0.2265183 0.3935469,0 0.6200652,0.2310944 0.2288064,0.22880644 0.2288064,0.62235338 0,0.2471108 -0.1121152,0.4644768 -0.1121151,0.215078 -0.4255798,0.503374 -0.2585511,0.217366 -0.2585511,0.6315055 z M 1.7035091,3.459552 q 0,-0.077794 0.048049,-0.1304196 0.050337,-0.054914 0.1395718,-0.054914 0.086947,0 0.1372839,0.054914 0.052626,0.052626 0.052626,0.1304196 0,0.075506 -0.052626,0.1281315 -0.050338,0.050338 -0.1372839,0.050338 -0.089235,0 -0.1395718,-0.050338 -0.048049,-0.052626 -0.048049,-0.1281315 z"
       class="ColorScheme-Text"
       style="font-weight:300;font-size:5.11195px;line-height:1.25;font-family:Roboto;-inkscape-font-specification:'Roboto Light';fill:currentColor;fill-opacity:0.99;stroke-width:0.117149"
       id="path10444" />
  </g>
  <g
     id="configure"
     transform="matrix(0.26458334,0,0,0.26458334,4.5653855,-0.393433)">
    <rect
       style="fill:none;fill-opacity:0.870588;stroke-width:14.1506"
       id="rect848"
       width="16"
       height="16"
       x="0"
       y="0" />
    <path
       d="M 7.5098,0 C 6.98171,-1.0422e-5 6.4741,0.20965 6.1016,0.58398 5.73135,0.95599 5.52356,1.46173 5.52348,1.98628 5.5156182,2.53405 5.08086,2.96383 4.53325,2.9648 4.37038,2.9627713 4.2124,2.917083 4.07231,2.83394 A 0.50005,0.50005 0 0 0 4.0645,2.83003 C 3.11625,2.28667 1.8933,2.61743 1.3477,3.56441 L 0.83208,4.41207 A 0.50005,0.50005 0 0 0 0.826221,4.42184 c -0.54496,0.94581 -0.21898,2.168 0.72461,2.7168 a 0.50005,0.50005 0 0 0 0.00195,0.00195 c 0.30786,0.17772 0.49609,0.50395 0.49609,0.85938 0,0.35554 -0.18818,0.68159 -0.49609,0.85938 -0.94343,0.54576 -1.2713,1.7669 -0.72656,2.7109 a 0.50005,0.50005 0 0 0 0,0.002 l 0.48828,0.8418 c 0,0 0.00195,0.002 0.00195,0.002 0.25709,0.46235 0.68834,0.80462 1.1973,0.94922 0.50986,0.14497 1.0572,0.0795 1.5195,-0.17969 a 0.50005,0.50005 0 0 0 0.00586,-0.0039 c 0.22559,-0.13165 0.49383,-0.16716 0.74609,-0.09961 a 0.50005,0.50005 0 0 0 0.00195,0 c 0.25231,0.0675 0.46602,0.23231 0.5957,0.45898 a 0.50005,0.50005 0 0 0 0.00391,0.0078 c 0.083519,0.14076 0.12916,0.29929 0.13086,0.46289 0.00256,1.0925 0.89902,1.9883 1.9922,1.9883 h 0.97852 c 1.0911,0 1.987,-0.89332 1.9922,-1.9844 a 0.50005,0.50005 0 0 0 0,-0.0039 c -0.0013,-0.26322 0.10291,-0.51496 0.28906,-0.70117 0.18507,-0.18507 0.43568,-0.2872 0.69727,-0.28711 0.16548,0.0054 0.32874,0.05101 0.47266,0.13281 0.9455,0.54308 2.1684,0.21626 2.7168,-0.72656 l 0.50977,-0.85156 a 0.50005,0.50005 0 0 0 0.0039,-0.0059 c 0.26597,-0.45645 0.3393,-0.99921 0.20312,-1.5098 -0.13616,-0.51046 -0.46983,-0.94747 -0.92774,-1.2109 -0.22759,-0.13092 -0.39325,-0.34587 -0.46094,-0.59961 -0.06766,-0.25363 -0.03256,-0.52315 0.09961,-0.75 a 0.50005,0.50005 0 0 0 0.002,-0.00391 c 0.08524,-0.1488 0.20851,-0.27212 0.35742,-0.35742 a 0.50005,0.50005 0 0 0 0.0039,-0.00195 c 0.89916,-0.52597 1.2257,-1.6612 0.77734,-2.5859 A 0.50005,0.50005 0 0 0 15.171981,4.4219 l -0.48633,-0.84375 c -0.54562,-0.94691 -1.7685,-1.2777 -2.7168,-0.73438 a 0.50005,0.50005 0 0 0 -0.0059,0.00391 c -0.22567,0.13295 -0.49439,0.17132 -0.74805,0.10547 -0.25358,-0.06584 -0.47094,-0.23099 -0.60352,-0.45703 a 0.50005,0.50005 0 0 0 0,-0.00195 c -0.08345,-0.14063 -0.12913,-0.29929 -0.13086,-0.46289 v 0.019531 c 0.01552,-0.53821 -0.1872,-1.0612 -0.5625,-1.4473 -0.37528,-0.38603 -0.89133,-0.60374 -1.4297,-0.60352 h -0.97852 z m 0,1 h 0.97852 c 0.26844,-1.1313e-4 0.52569,0.10822 0.71289,0.30078 0.18718,0.19253 0.28703,0.45232 0.2793,0.7207 a 0.50005,0.50005 0 0 0 0,0.019531 c 0.00358,0.33821 0.097494,0.6697 0.26953,0.96094 0.26667,0.45468 0.70265,0.78549 1.2129,0.91797 0.50797,0.13186 1.049,0.057654 1.502,-0.20703 0.48013,-0.2751 1.0773,-0.11421 1.3535,0.36523 l 0.46875,0.8125 a 0.50005,0.50005 0 0 0 0.01758,0.035156 c 0.27261,0.47764 0.11336,1.0719 -0.36133,1.3496 -0.30024,0.17284 -0.54975,0.42233 -0.72266,0.72266 v 0.00195 c -0.26515,0.45616 -0.33913,0.99992 -0.20312,1.5098 0.13615,0.51038 0.4697,0.9455 0.92773,1.209 0.22756,0.13093 0.39328,0.3479 0.46094,0.60156 0.0673,0.25234 0.03091,0.51999 -0.09961,0.74609 -6.72e-4,0.0012 6.76e-4,0.0027 0,0.0039 l -0.51172,0.85156 a 0.50005,0.50005 0 0 0 -0.0039,0.0059 c -0.27779,0.47762 -0.87471,0.63719 -1.3535,0.36133 a 0.50005,0.50005 0 0 0 -0.002,-0.002 c -0.2896,-0.1656 -0.61582,-0.25672 -0.94922,-0.26562 a 0.50005,0.50005 0 0 0 -0.0098,0 c -0.52982,-0.0026 -1.0394,0.20741 -1.4141,0.58203 -0.37447,0.37457 -0.58457,0.88233 -0.58203,1.4121 -0.00472,0.55042 -0.44117,0.98438 -0.99219,0.98438 H 7.50974 c -0.55436,0 -0.99414,-0.43796 -0.99414,-0.99219 a 0.50005,0.50005 0 0 0 0,-0.0059 c -0.00351,-0.33749 -0.096364,-0.66827 -0.26758,-0.95898 -0.26208,-0.45657 -0.69447,-0.79164 -1.2031,-0.92774 -0.50677,-0.13569 -1.0479,-0.06304 -1.502,0.19922 -0.23061,0.12928 -0.5016,0.16018 -0.75586,0.08789 -0.25426,-0.07224 -0.46952,-0.24144 -0.59766,-0.47266 a 0.50005,0.50005 0 0 0 -0.00391,-0.0098 L 1.6933,11.072197 c -0.27481,-0.47621 -0.11658,-1.0704 0.35938,-1.3457 0.61589,-0.35561 0.99609,-1.0154 0.99609,-1.7266 0,-0.71066 -0.38088,-1.3689 -0.99609,-1.7246 V 6.273347 C 1.5762,5.995187 1.41771,5.400087 1.6933,4.921747 l 0.51562,-0.84766 a 0.50005,0.50005 0 0 0 0.00586,-0.00977 c 0.27621,-0.47941 0.87345,-0.64227 1.3535,-0.36719 0.29021,0.17048 0.62039,0.26408 0.95703,0.26758 a 0.50005,0.50005 0 0 0 0.00586,0 c 1.0839,1.326e-4 1.9766,-0.88107 1.9922,-1.9648 a 0.50005,0.50005 0 0 0 0,-0.00977 c -0.00125,-0.26248 0.10196,-0.51319 0.28711,-0.69922 0.18511,-0.186 0.43681,-0.29102 0.69922,-0.29102 z m 0.49023,4 c -1.6509,0 -3,1.3491 -3,3 0,1.6509 1.3491,3 3,3 1.6509,0 3,-1.3491 3,-3 0,-1.6509 -1.3491,-3 -3,-3 z m 0,1 c 1.1105,0 2,0.88951 2,2 0,1.11049 -0.88951,2 -2,2 -1.11049,0 -2,-0.88951 -2,-2 0,-1.11049 0.88951,-2 2,-2 z"
       clip-rule="evenodd"
       color="#000000"
       color-rendering="auto"
       dominant-baseline="auto"
       class="ColorScheme-Text"
       fill-rule="evenodd"
       image-rendering="auto"
       shape-rendering="auto"
       solid-color="#000000"
       stop-color="#000000"
       style="font-variant-ligatures:normal;font-variant-position:normal;font-variant-caps:normal;font-variant-numeric:normal;font-variant-alternates:normal;font-variant-east-asian:normal;font-feature-settings:normal;font-variation-settings:normal;text-indent:0;text-decoration-line:none;text-decoration-style:solid;text-decoration-color:#000000;text-transform:none;text-orientation:mixed;white-space:normal;shape-padding:0;shape-margin:0;inline-size:0;isolation:auto;mix-blend-mode:normal;fill:currentColor;fill-opacity:0.99"
       id="path5" />
  </g>
  <g
     transform="translate(-4.6362937,-0.1288498)"
     id="refresh">
    <rect
       style="fill:none;fill-opacity:0.870588;stroke-width:0.201833"
       id="rect1735"
       width="4.2333336"
       height="4.2333336"
       x="14.022917"
       y="-0.26458335" />
    <path
       id="path888"
       style="fill:currentColor;fill-opacity:1;stroke-width:0.996832"
       d="m 61,0 a 6.9999998,6.9999998 0 0 0 -7,7 6.9999998,6.9999998 0 0 0 7,7 6.9999998,6.9999998 0 0 0 7,-7 6.9999998,6.9999998 0 0 0 -3.423828,-6 H 68 V 0 H 64 63 V 0.29296875 1 1.3457031 5 h 1 V 1.8183594 A 5.9999998,5.9999998 0 0 1 67,7 5.9999998,5.9999998 0 0 1 61,13 5.9999998,5.9999998 0 0 1 55,7 5.9999998,5.9999998 0 0 1 60.431641,1.0449219 C 60.592779,1.0164791 60.779724,0.99999999 61,1 Z"
       transform="scale(0.26458334)" />
  </g>
  <g
     id="delete"
     transform="translate(-2.0547542,-0.12779344)">
    <rect
       style="fill:none;fill-opacity:1;stroke-width:0.276737"
       id="rect2157"
       width="4.2333336"
       height="4.2333336"
       x="6.6145835"
       y="9.7895832" />
    <path
       id="rect846-6"
       class="ColorScheme-Text"
       style="fill:currentColor;fill-opacity:1;stroke-width:0.341254"
       d="m 8.0630541,10.054167 c -0.0023,1.14e-4 -0.0045,2.91e-4 -0.0067,5.16e-4 -0.06687,0.0068 -0.118856,0.06307 -0.118856,0.131776 0,0.0023 -1.14e-4,0.0045 0,0.0067 v 0.390157 h -0.661456 c -0.07329,0 -0.132292,0.059 -0.132292,0.132292 0,0.07329 0.059,0.132291 0.132292,0.132291 h 0.132291 l 0.144694,2.39727 c 0.01619,0.268685 0.239765,0.513147 0.52865,0.513147 h 1.299146 c 0.288898,0 0.512457,-0.244439 0.52865,-0.513147 l 0.1446739,-2.397252 h 0.132291 c 0.07329,0 0.132292,-0.059 0.132292,-0.132291 0,-0.07329 -0.059,-0.132292 -0.132292,-0.132292 H 9.5249801 v -0.390157 c 1.14e-4,-0.0023 0,-0.0044 0,-0.0067 0,-0.0046 -5.4e-5,-0.009 -5.17e-4,-0.01344 -2.25e-4,-0.0022 -6.91e-4,-0.0045 -10e-4,-0.0067 -0.0087,-0.05705 -0.05354,-0.101918 -0.110587,-0.110588 -0.0032,-4.86e-4 -0.0065,-7.76e-4 -0.0098,-0.001 -0.0011,-8.4e-5 -0.0025,-4.61e-4 -0.0036,-5.16e-4 -10e-4,-5.3e-5 -0.0021,2.8e-5 -0.0031,0 -0.0011,-2.9e-5 -0.0025,0 -0.0036,0 h -0.0067 -1.309481 -0.0031 c -0.0011,-2.9e-5 -0.0025,0 -0.0036,0 -0.0012,0 -0.0024,-3.3e-5 -0.0036,0 -0.0011,2.8e-5 -0.002,-5.7e-5 -0.0031,0 z m 0.139009,0.264584 h 1.058334 v 0.264583 h -1.058334 z m -0.52865,0.529166 h 2.115634 l -0.143661,2.381251 c -0.0088,0.146314 -0.118004,0.264583 -0.264583,0.264583 h -1.299146 c -0.146579,0 -0.255764,-0.118269 -0.264583,-0.264583 z m 0.660942,0.529167 c -0.07329,0 -0.132292,0.059 -0.132292,0.132292 v 1.322916 c 0,0.07329 0.059,0.132292 0.132292,0.132292 0.07329,0 0.132292,-0.059 0.132292,-0.132292 v -1.322916 c 0,-0.07329 -0.059,-0.132292 -0.132292,-0.132292 z m 0.79375,0 c -0.07329,0 -0.132292,0.059 -0.132292,0.132292 v 1.322916 c 0,0.07329 0.059,0.132292 0.132292,0.132292 0.07329,0 0.132292,-0.059 0.132292,-0.132292 v -1.322916 c 0,-0.07329 -0.059,-0.132292 -0.132292,-0.132292 z" />
  </g>
  <g
     id="menu"
     transform="matrix(1.0000102,0,0,1.0000102,0.26273995,-249.76256)">
    <rect
       x="-0.52916998"
       y="249.37"
       width="4.2333002"
       height="4.2333002"
       fill="none"
       id="rect5" />
    <rect
       x="-1.0174e-06"
       y="249.89999"
       width="3.175"
       height="3.175"
       fill="none"
       id="rect7" />
    <path
       class="ColorScheme-Text"
       d="m 4.5328e-8,250.17 v 0.52917 H 3.175 V 250.17 Z m 0,1.0583 v 0.52917 H 3.175 v -0.52917 z m 0,1.0583 v 0.52916 H 3.175 v -0.52916 z"
       fill="currentColor"
       id="path9" />
  </g>
  <g
     id="collapse"
     transform="matrix(1.0000102,0,0,1.0000102,0.59278325,-249.64256)">
    <rect
       x="23.283001"
       y="254.14"
       width="4.2333002"
       height="4.2333002"
       fill="none"
       id="rect12" />
    <rect
       x="23.813"
       y="254.67"
       width="3.175"
       height="3.175"
       fill="none"
       id="rect14" />
    <path
       class="ColorScheme-Text"
       d="m 24.606,254.67 0.79375,0.79375 0.79375,-0.79375 z m -1.0583,1.3229 v 0.52917 h 3.7042 v -0.52917 z m 1.8521,1.0583 -0.79375,0.79375 h 1.5875 z"
       fill="currentColor"
       id="path16" />
  </g>
  <g
     id="return-to-source"
     transform="matrix(1.0000102,0,0,1.0000102,0.52634265,-249.64256)">
    <rect
       x="18.521"
       y="254.14"
       width="4.2333002"
       height="4.2333002"
       fill="none"
       id="rect19" />
    <path
       class="ColorScheme-Text"
       transform="matrix(0.26458,0,0,0.26458,-0.52917,249.37)"
       d="m 74,19 c -0.554,0 -1,0.44599 -1,1 v 12 c 0,0.55401 0.446,1 1,1 h 12 c 0.554,0 1,-0.44599 1,-1 V 20 c 0,-0.55401 -0.446,-1 -1,-1 z m 4,2 h 4 l -2,2 z m -3,4 h 10 v 2 H 75 Z m 5,4 2,2 h -4 z"
       fill="currentColor"
       id="path21" />
  </g>
  <g
     id="restore"
     transform="matrix(1.0000102,0,0,1.0000102,0.65822395,-249.64256)">
    <rect
       x="28.046"
       y="254.14"
       width="4.2333002"
       height="4.2333002"
       fill="none"
       id="rect24" />
    <rect
       x="28.575001"
       y="254.67"
       width="3.175"
       height="3.175"
       fill="none"
       id="rect26" />
    <path
       class="ColorScheme-Text"
       d="m 29.369,255.46 0.79376,-0.79375 0.79374,0.79375 z m -1.0583,0.52917 v 0.52917 h 3.7042 v -0.52917 z m 1.8521,1.8521 -0.79376,-0.79375 h 1.5875 z"
       fill="currentColor"
       id="path28" />
  </g>
  <g
     id="move"
     transform="matrix(0.2645827,0,0,0.2645827,-50.603519,4.903137)">
    <path
       class="ColorScheme-Text"
       d="M 253,-4.5 250,-8 h 2 v -2 h 2 v 2 h 2 z"
       fill="currentColor"
       id="path43" />
    <rect
       transform="matrix(0,1,1,0,0,0)"
       x="-20.018999"
       y="245"
       width="16"
       height="16"
       fill="none"
       id="rect45" />
    <g
       class="ColorScheme-Text"
       fill="currentColor"
       id="g53">
      <path
         d="m 253,-19.5 -3,3.5 h 2 v 2 h 2 v -2 h 2 z"
         id="path47" />
      <path
         d="m 260.5,-12 -3.5,-3 v 2 h -2 v 2 h 2 l -4e-5,2 z"
         id="path49" />
      <path
         d="m 245.5,-12 3.5,-3 v 2 h 2 v 2 h -2 l -4e-5,2 z"
         id="path51" />
    </g>
  </g>
  <g
     id="size-vertical"
     transform="matrix(0.2645827,0,0,0.2645827,-50.008513,-208.62214)">
    <path
       class="ColorScheme-Text"
       transform="translate(17,313)"
       d="m 252,474 -3,5 h 2 v 6 h -2 l 3,5 3,-5 h -2 v -6 h 2 z"
       fill="currentColor"
       id="path56" />
    <rect
       transform="scale(-1)"
       x="-277"
       y="-803"
       width="16"
       height="16"
       fill="none"
       id="rect58" />
  </g>
  <g
     id="size-horizontal"
     transform="matrix(0.2645827,0,0,0.2645827,-39.88841,-208.62214)">
    <path
       class="ColorScheme-Text"
       transform="translate(17,313)"
       d="m 229,479 -5,3 5,3 v -2 h 6 v 2 l 5,-3 -5,-3 v 2 h -6 z"
       fill="currentColor"
       id="path61" />
    <rect
       transform="scale(-1)"
       x="-257"
       y="-803"
       width="16"
       height="16"
       fill="none"
       id="rect63" />
  </g>
  <g
     id="size-diagonal-tr2bl"
     transform="matrix(0.2645827,0,0,0.2645827,-77.390792,-8.0663953)">
    <path
       class="ColorScheme-Text"
       d="m 403,31.003 c -1,0 -1,1 -1,1 v 4 h 2 v -3 h 3 v -2 z m 8,0 v 2 h 3 v 3 h 2 v -4 c 0,-1 -1,-1 -1,-1 z m -9,7 v 4 c 0,1 1,1 1,1 h 4 v -2 h -3 v -3 z m 12,0 v 3 h -3 v 2 h 4 c 0,0 1,0 1,-1 v -4 z"
       fill="currentColor"
       id="path66" />
    <rect
       x="401"
       y="29"
       width="15.982"
       height="16"
       rx="0"
       ry="0"
       fill="none"
       id="rect68" />
  </g>
  <g
     id="size-diagonal-tl2br"
     transform="matrix(0.2645827,0,0,0.2645827,-106.36109,-3.1743454)">
    <path
       class="ColorScheme-Text"
       d="m 403,31.003 c -1,0 -1,1 -1,1 v 4 h 2 v -3 h 3 v -2 z m 8,0 v 2 h 3 v 3 h 2 v -4 c 0,-1 -1,-1 -1,-1 z m -9,7 v 4 c 0,1 1,1 1,1 h 4 v -2 h -3 v -3 z m 12,0 v 3 h -3 v 2 h 4 c 0,0 1,0 1,-1 v -4 z"
       fill="currentColor"
       id="path71" />
    <rect
       x="401"
       y="29"
       width="15.982"
       height="16"
       rx="0"
       ry="0"
       fill="none"
       id="rect73" />
  </g>
  <g
     id="maximize"
     transform="matrix(0.2645827,0,0,0.2645827,-101.53104,-3.1743454)">
    <path
       class="ColorScheme-Text"
       d="m 403,31.003 c -1,0 -1,1 -1,1 v 4 h 2 v -3 h 3 v -2 z m 8,0 v 2 h 3 v 3 h 2 v -4 c 0,-1 -1,-1 -1,-1 z m -9,7 v 4 c 0,1 1,1 1,1 h 4 v -2 h -3 v -3 z m 12,0 v 3 h -3 v 2 h 4 c 0,0 1,0 1,-1 v -4 z"
       fill="currentColor"
       id="path76" />
    <rect
       x="401"
       y="29"
       width="15.982"
       height="16"
       rx="0"
       ry="0"
       fill="none"
       id="rect78" />
  </g>
  <g
     id="unmaximize"
     transform="matrix(0.2645827,0,0,0.2645827,-96.704989,-3.1743454)">
    <path
       class="ColorScheme-Text"
       d="m 412,38.003 c 0,0 -1,0 -1,1 v 4 h 2 v -3 h 3 v -2 z m -10,0 v 2 h 3 v 3 h 2 v -4 c 0,0 0,-1 -1,-1 z m 9,-7 v 4 c 0,0 0,1 1,1 h 4 v -2 h -3 v -3 z m -6,0 v 3 h -3 v 2 h 4 c 1,0 1,-1 1,-1 v -4 z"
       fill="currentColor"
       id="path81" />
    <rect
       x="401"
       y="29"
       width="15.982"
       height="16"
       rx="0"
       ry="0"
       fill="none"
       id="rect83" />
  </g>
  <g
     id="status"
     transform="matrix(-0.2645827,0,0,0.2645827,88.5669,35.991354)">
    <rect
       transform="scale(1,-1)"
       x="265"
       y="103.03"
       width="16"
       height="16"
       opacity="0"
       id="rect86" />
    <path
       class="ColorScheme-Text"
       transform="matrix(-1,0,0,1,425,-717)"
       d="m 146,600 c -0.554,0 -1,0.446 -1,1 v 10 c 0,0.554 0.446,1 1,1 h 12 c 0.554,0 1,-0.446 1,-1 v -10 c 0,-0.554 -0.446,-1 -1,-1 z m 1,8 h 10 v 2 h -10 z"
       fill="currentColor"
       id="path88" />
  </g>
  <g
     id="add"
     transform="matrix(0.2645827,0,0,0.2645827,-6.7489715,-214.4422)">
    <rect
       x="61"
       y="847"
       width="16"
       height="16"
       fill="none"
       id="rect98" />
    <path
       class="ColorScheme-Text"
       d="m 68,850 v 4 h -4 v 2 h 4 v 4 h 2 v -4 h 4 v -2 h -4 v -4 z"
       fill="currentColor"
       id="path100" />
  </g>
  <g
     id="remove"
     transform="matrix(0.2645827,0,0,0.2645827,8.9273884,-63.362659)">
    <rect
       x="20"
       y="276"
       width="16"
       height="16"
       fill="none"
       id="rect103" />
    <rect
       class="ColorScheme-Text"
       x="23"
       y="283"
       width="10"
       height="2"
       fill="currentColor"
       id="rect105" />
  </g>
  <g
     id="filter"
     transform="matrix(1.0000102,0,0,1.0000102,0.52749265,-249.24256)">
    <rect
       x="18.52"
       y="258.89999"
       width="4.2329998"
       height="4.2329998"
       fill="none"
       id="rect108" />
    <rect
       x="19.049999"
       y="259.42999"
       width="3.175"
       height="3.175"
       fill="none"
       id="rect110" />
    <path
       transform="matrix(0.26458,0,0,0.26458,-0.60971,244.14)"
       d="m 76.305,57.787 -1,1 v 1 l 3,5.2598 v 2.7422 l 3,1.9961 v 0.002 h 1 v -4.7402 l 3,-5.2598 v -1 l -1,-1 h -8 z m 1,2 h 3 l -1,1 v 1 z"
       class="ColorScheme-Text"
       fill="currentColor"
       id="path112" />
  </g>
  <g
     id="showbackground"
     transform="matrix(1.0000102,0,0,1.0000102,0.39422125,0.13707801)">
    <path
       class="ColorScheme-Text"
       transform="matrix(0.26458,0,0,0.26458,0,-9.6774e-5)"
       d="m 111,37 c -1.662,0 -3,1.338 -3,3 v 8 c 0,1.662 1.338,3 3,3 h 8 c 1.662,0 3,-1.338 3,-3 v -8 c 0,-1.662 -1.338,-3 -3,-3 z m 0,2 h 8 c 0.554,0 1,0.446 1,1 v 8 c 0,0.554 -0.446,1 -1,1 h -8 c -0.554,0 -1,-0.446 -1,-1 v -8 c 0,-0.554 0.446,-1 1,-1 z"
       fill="currentColor"
       id="path131" />
    <rect
       x="28.309999"
       y="9.5248003"
       width="4.2333002"
       height="4.2333002"
       fill="none"
       id="rect133" />
    <path
       class="ColorScheme-Text"
       d="m 30.409,10.845 c 0.16004,0 0.27844,0.04109 0.3552,0.12314 0.07675,0.08206 0.11513,0.21287 0.11513,0.39233 v 1.0745 H 30.72255 L 30.6809,12.18809 h -0.0098 c -0.05716,0.08401 -0.11758,0.14605 -0.18127,0.18614 -0.06369,0.04011 -0.15024,0.06012 -0.25966,0.06012 -0.11922,0 -0.21802,-0.03622 -0.2964,-0.10882 -0.07839,-0.0745 -0.1132,-0.18996 -0.1132,-0.34651 0,-0.15273 0.04706,-0.30942 0.14994,-0.39151 0.10288,-0.08401 0.26129,-0.12776 0.47523,-0.13539 l 0.22292,-0.0087 v -0.05449 c 0,-0.12792 -0.02368,-0.2167 -0.07104,-0.26634 -0.04736,-0.04963 -0.11432,-0.0745 -0.20087,-0.0745 -0.06859,0 -0.13391,0.01243 -0.19597,0.03719 -0.06206,0.02292 -0.12003,0.04963 -0.17392,0.08023 L 29.96072,10.9765 c 0.05716,-0.03622 0.12493,-0.06682 0.20332,-0.09169 0.07839,-0.02671 0.16004,-0.04011 0.24496,-0.04011 z m 0.25721,0.79597 -0.19352,0.0087 c -0.16331,0.0076 -0.27681,0.03611 -0.3405,0.08963 -0.06206,0.05352 -0.09309,0.14542 -0.09309,0.24276 0,0.08596 0.02205,0.14892 0.06614,0.18901 0.04573,0.04011 0.1037,0.06011 0.17392,0.06011 0.10942,0 0.20087,-0.03536 0.27436,-0.10596 0.07512,-0.07255 0.11268,-0.18328 0.11268,-0.33219 z"
       fill="currentColor"
       id="path135" />
  </g>
</svg>
