<?xml version="1.0" encoding="UTF-8" standalone="no"?>
<svg
   width="16"
   height="16"
   enable-background="new"
   version="1.1"
   id="svg10"
   sodipodi:docname="view-refresh-symbolic.svg"
   inkscape:version="1.1.1 (3bf5ae0d25, 2021-09-20)"
   xmlns:inkscape="http://www.inkscape.org/namespaces/inkscape"
   xmlns:sodipodi="http://sodipodi.sourceforge.net/DTD/sodipodi-0.dtd"
   xmlns="http://www.w3.org/2000/svg"
   xmlns:svg="http://www.w3.org/2000/svg">
  <defs
     id="defs14" />
  <sodipodi:namedview
     id="namedview12"
     pagecolor="#ffffff"
     bordercolor="#666666"
     borderopacity="1.0"
     inkscape:pageshadow="2"
     inkscape:pageopacity="0.0"
     inkscape:pagecheckerboard="0"
     showgrid="false"
     inkscape:zoom="25.84375"
     inkscape:cx="9.1124547"
     inkscape:cy="7.758162"
     inkscape:window-width="1920"
     inkscape:window-height="1003"
     inkscape:window-x="0"
     inkscape:window-y="0"
     inkscape:window-maximized="1"
     inkscape:current-layer="svg10" />
  <path
     id="path2"
     style="fill:#363636"
     d="M 8.171875 0.671875 L 7.4648438 1.3789062 L 9.0859375 3 L 8 3 A 6 6 0 0 0 2 9 A 6 6 0 0 0 8 15 A 6 6 0 0 0 14 9 L 13 9 A 5 5 0 0 1 8 14 A 5 5 0 0 1 3 9 A 5 5 0 0 1 8 4 L 9.0859375 4 L 7.4648438 5.6210938 L 8.171875 6.328125 L 11 3.5 L 10.292969 2.7929688 L 8.171875 0.671875 z " />
</svg>
