<?xml version="1.0" encoding="UTF-8" standalone="no"?>
<!-- Created with Inkscape (http://www.inkscape.org/) -->

<svg
   width="16"
   height="16"
   viewBox="0 0 4.2333332 4.2333335"
   version="1.1"
   id="svg1100"
   inkscape:version="1.1.1 (3bf5ae0d25, 2021-09-20)"
   sodipodi:docname="window-restore.svg"
   xmlns:inkscape="http://www.inkscape.org/namespaces/inkscape"
   xmlns:sodipodi="http://sodipodi.sourceforge.net/DTD/sodipodi-0.dtd"
   xmlns="http://www.w3.org/2000/svg"
   xmlns:svg="http://www.w3.org/2000/svg">
  <sodipodi:namedview
     id="namedview1102"
     pagecolor="#ffffff"
     bordercolor="#666666"
     borderopacity="1.0"
     inkscape:pageshadow="2"
     inkscape:pageopacity="0.0"
     inkscape:pagecheckerboard="0"
     inkscape:document-units="px"
     showgrid="false"
     units="px"
     inkscape:zoom="49.5625"
     inkscape:cx="8"
     inkscape:cy="8"
     inkscape:window-width="1920"
     inkscape:window-height="1003"
     inkscape:window-x="0"
     inkscape:window-y="0"
     inkscape:window-maximized="1"
     inkscape:current-layer="layer1" />
  <defs
     id="defs1097" />
  <path
     id="rect846-62-9-28"
     style="fill:#363636;stroke-width:0.0855523"
     d="m 3.5663228,0.52918362 c -0.027753,0.001135 -0.055255,0.0108764 -0.078033,0.0294556 -0.00349,0.002825 -0.00655,0.006065 -0.00982,0.009305 L 2.4171308,1.629376 V 0.89032364 c 0,-0.07329 -0.059007,-0.1322917 -0.1322923,-0.1322917 -0.073287,0 -0.1322913,0.059001 -0.1322913,0.1322917 V 1.942018 c -1.135e-4,0.0023 0,0.00442 0,0.00672 0,0.0042 1.08e-4,0.00831 5.291e-4,0.012401 2.4e-4,0.0026 6.611e-4,0.00525 0.00103,0.00776 2.607e-4,0.00169 7.145e-4,0.00347 0.00103,0.00517 0.00164,0.0085 0.00415,0.016476 0.0072,0.024289 0.00106,0.0026 0.00185,0.00525 0.00305,0.00776 4.233e-4,8.995e-4 0.00109,0.00169 0.00153,0.0026 2.487e-4,4.763e-4 2.389e-4,0.00106 5.291e-4,0.00156 2.913e-4,5.291e-4 7.407e-4,9.525e-4 0.00103,0.00156 1.887e-4,3.44e-4 3.174e-4,7.145e-4 5.291e-4,0.00103 8.465e-4,0.00151 0.00175,0.00315 0.00262,0.00465 7.941e-4,0.0013 0.00175,0.00232 0.00262,0.00362 3.437e-4,5.292e-4 6.884e-4,9.525e-4 0.00103,0.00156 0.0048,0.007 0.010036,0.013658 0.016026,0.019637 0.00447,0.00451 0.00938,0.0086 0.014476,0.012401 0.00175,0.0013 0.00338,0.00241 0.00513,0.00362 0.0012,8.467e-4 0.0024,0.00177 0.0036,0.0026 0.00229,0.00151 0.0048,0.00283 0.0072,0.00413 0.00103,5.556e-4 0.00207,9.524e-4 0.00305,0.00156 8.727e-4,4.497e-4 0.00175,0.00106 0.00262,0.00156 0.00251,0.00119 0.00513,0.00201 0.00775,0.0031 0.00785,0.0032 0.015818,0.00564 0.024295,0.00723 0.00382,7.408e-4 0.00796,0.00167 0.011891,0.00206 3.174e-4,3.43e-5 7.134e-4,-3.1e-5 0.00103,0 0.00415,3.174e-4 0.00818,5.292e-4 0.012404,5.292e-4 h 0.00676 1.0516081 c 0.073287,0 0.1322912,-0.058999 0.1322912,-0.1322917 0,-0.07329 -0.059007,-0.1322917 -0.1322912,-0.1322917 H 2.6041541 L 3.6654963,0.75510534 c 0.051829,-0.05182 0.051829,-0.13524579 0,-0.18706877 -0.02604,-0.0260684 -0.059782,-0.0388364 -0.0936,-0.0388364 -0.00185,0 -0.00382,-7.538e-5 -0.00567,0 z M 0.88396122,2.1523411 c -0.070091,0.00353 -0.1255735,0.061289 -0.1255735,0.1322916 0,0.07329 0.059007,0.1322917 0.1322913,0.1322917 H 1.6295817 l -1.06154328,1.061353 c -0.051829,0.05182 -0.051829,0.1352458 0,0.1870689 0.025975,0.025989 0.059716,0.038757 0.093535,0.038757 0.00185,0 0.00382,7.54e-5 0.00567,0 0.027742,-0.00113 0.055255,-0.010876 0.078033,-0.029456 0.00349,-0.00284 0.00655,-0.00607 0.00982,-0.00931 L 1.8166388,2.6039886 v 0.7390225 c 0,0.07329 0.059007,0.1322916 0.1322924,0.1322916 0.073287,0 0.1322913,-0.059001 0.1322913,-0.1322916 V 2.2913494 c 1.134e-4,-0.0023 0,-0.00442 0,-0.00672 0,-0.0042 -1.08e-4,-0.00831 -5.291e-4,-0.012401 -2.4e-4,-0.0026 -6.611e-4,-0.00525 -0.00103,-0.00776 -2.608e-4,-0.00169 -7.146e-4,-0.00347 -0.00103,-0.00517 -0.00164,-0.0085 -0.00415,-0.016476 -0.0072,-0.024289 -0.00106,-0.0026 -0.00185,-0.00525 -0.00305,-0.00776 -4.232e-4,-8.996e-4 -0.00109,-0.00169 -0.00153,-0.0026 -2.477e-4,-4.763e-4 -2.39e-4,-0.00106 -5.291e-4,-0.00156 -2.913e-4,-5.291e-4 -7.408e-4,-9.525e-4 -0.00103,-0.00156 -1.888e-4,-3.44e-4 -3.175e-4,-7.144e-4 -5.291e-4,-0.00103 -8.466e-4,-0.00151 -0.00175,-0.00315 -0.00262,-0.00465 -7.942e-4,-0.0013 -0.00175,-0.00232 -0.00262,-0.00362 -3.436e-4,-5.292e-4 -6.884e-4,-9.525e-4 -0.00103,-0.00156 -0.0048,-0.007 -0.010036,-0.013658 -0.016026,-0.019637 -0.00447,-0.00451 -0.00938,-0.0086 -0.014476,-0.012402 -0.00175,-0.0013 -0.00338,-0.00241 -0.00513,-0.00362 -0.0012,-8.468e-4 -0.0024,-0.00178 -0.0036,-0.0026 -0.00229,-0.00151 -0.0048,-0.00283 -0.0072,-0.00413 -0.00103,-5.556e-4 -0.00207,-9.525e-4 -0.00305,-0.00156 -8.728e-4,-4.498e-4 -0.00175,-0.00106 -0.00262,-0.00156 -0.00251,-0.00119 -0.00513,-0.00201 -0.00775,-0.0031 -0.00785,-0.0032 -0.015818,-0.00564 -0.024295,-0.00723 -0.00382,-7.409e-4 -0.00796,-0.00167 -0.011891,-0.00206 -3.175e-4,-3.42e-5 -7.135e-4,3.09e-5 -0.00103,0 -0.00415,-3.175e-4 -0.00818,-5.292e-4 -0.012404,-5.292e-4 h -0.00676 -1.05154418 c -0.00229,0 -0.00447,-1.14e-4 -0.00676,0 z"
       sodipodi:nodetypes="ccccssscscccccccccccccccccccccccscssscccscccsscccsccccssscscccccccccccccccccccccccscscc" />
</svg>
