<?xml version="1.0" encoding="UTF-8" standalone="no"?>
<!-- Generator: Adobe Illustrator 23.0.0, SVG Export Plug-In . SVG Version: 6.00 Build 0)  -->

<svg
   version="1.1"
   id="레이어_1"
   x="0px"
   y="0px"
   viewBox="0 0 22 22"
   style="enable-background:new 0 0 22 22;"
   xml:space="preserve"
   sodipodi:docname="emblem-insync-error-shared.svg"
   inkscape:version="1.1 (c4e8f9ed74, 2021-05-24)"
   xmlns:inkscape="http://www.inkscape.org/namespaces/inkscape"
   xmlns:sodipodi="http://sodipodi.sourceforge.net/DTD/sodipodi-0.dtd"
   xmlns="http://www.w3.org/2000/svg"
   xmlns:svg="http://www.w3.org/2000/svg"><defs
   id="defs13" /><sodipodi:namedview
   id="namedview11"
   pagecolor="#ffffff"
   bordercolor="#666666"
   borderopacity="1.0"
   inkscape:pageshadow="2"
   inkscape:pageopacity="0.0"
   inkscape:pagecheckerboard="0"
   showgrid="false"
   inkscape:zoom="28.636364"
   inkscape:cx="11"
   inkscape:cy="11"
   inkscape:window-width="1920"
   inkscape:window-height="1009"
   inkscape:window-x="0"
   inkscape:window-y="0"
   inkscape:window-maximized="1"
   inkscape:current-layer="레이어_1" />
<style
   type="text/css"
   id="style2">
	.st0{fill:#CC3333;}
	.st1{fill:#FFFFFF;}
</style>
<path
   style="fill:#cc3333;fill-opacity:1;stroke-width:0.0853071"
   inkscape:connector-curvature="0"
   id="path10"
   d="M 21.554038,7.796086 C 21.289548,5.8001925 20.581395,3.9919487 19.335728,2.6698822 v 0 c -1.330985,-1.2453049 -3.13123,-1.95324814 -5.127706,-2.21765954 -1.911164,-0.2558822 -3.208024,-0.1961786 -3.208024,-0.1961786 0,0 -1.2968509,-0.059694 -3.2080149,0.1961786 -1.99648,0.2644114 -3.805255,0.97235464 -5.12771,2.21765954 -1.245661,1.3220665 -1.94529104,3.1303103 -2.21831104,5.1262038 -0.255958,1.9020638 -0.187705,3.207071 -0.187705,3.207071 0,0 -0.05971,1.296477 0.187705,3.207076 0.264489,1.995892 0.97265004,3.804137 2.21831104,5.126203 v 0 c 1.330986,1.245299 3.13123,1.953245 5.12771,2.217658 1.902633,0.255883 3.2080149,0.187648 3.2080149,0.187648 0,0 1.29686,0.0597 3.208024,-0.187648 1.996476,-0.264413 3.805252,-0.972359 5.127706,-2.217658 v 0 c 1.245667,-1.330596 1.95382,-3.130311 2.21831,-5.126203 0.25596,-1.902069 0.187704,-3.207076 0.187704,-3.207076 0,0 0.06825,-1.2964781 -0.187704,-3.207071"
   class="st1" />
<g
   id="g8"
   transform="matrix(1.3043478,0,0,1.2244898,-3.3478259,-2.4693878)">
	<path
   class="st1"
   d="m 12.5,11 3.1,3.3 -1.5,1.6 L 11,12.6 7.9,15.9 6.4,14.3 9.5,11 6.4,7.7 7.9,6.1 11,9.4 14.1,6.1 15.6,7.7 Z"
   id="path6" />
</g>
</svg>
