<?xml version="1.0" encoding="UTF-8" standalone="no"?>
<!-- Generator: Adobe Illustrator 23.0.0, SVG Export Plug-In . SVG Version: 6.00 Build 0)  -->

<svg
   version="1.1"
   id="레이어_1"
   x="0px"
   y="0px"
   viewBox="0 0 22 22"
   style="enable-background:new 0 0 22 22;"
   xml:space="preserve"
   sodipodi:docname="emblem-symbolic-link.svg"
   inkscape:version="1.1 (c4e8f9ed74, 2021-05-24)"
   xmlns:inkscape="http://www.inkscape.org/namespaces/inkscape"
   xmlns:sodipodi="http://sodipodi.sourceforge.net/DTD/sodipodi-0.dtd"
   xmlns="http://www.w3.org/2000/svg"
   xmlns:svg="http://www.w3.org/2000/svg"><defs
   id="defs11" /><sodipodi:namedview
   id="namedview9"
   pagecolor="#ffffff"
   bordercolor="#666666"
   borderopacity="1.0"
   inkscape:pageshadow="2"
   inkscape:pageopacity="0.0"
   inkscape:pagecheckerboard="0"
   showgrid="false"
   inkscape:zoom="3.5795455"
   inkscape:cx="-86.603174"
   inkscape:cy="-7.5428571"
   inkscape:window-width="1920"
   inkscape:window-height="1009"
   inkscape:window-x="0"
   inkscape:window-y="0"
   inkscape:window-maximized="1"
   inkscape:current-layer="레이어_1" />
<style
   type="text/css"
   id="style2">
	.st0{fill:#666666;}
	.st1{fill:#FFFFFF;}
</style>
<path
   style="fill:#666666;fill-opacity:1;stroke-width:0.0853071"
   inkscape:connector-curvature="0"
   id="path10"
   d="M 21.554038,7.796086 C 21.289548,5.8001925 20.581395,3.9919487 19.335728,2.6698822 v 0 C 18.004743,1.4245773 16.204498,0.71663411 14.208022,0.45222275 12.296858,0.19634047 10.999998,0.25604406 10.999998,0.25604406 c 0,0 -1.2968509,-0.0596938 -3.2080149,0.19617869 C 5.7955031,0.71663411 3.9867279,1.4245773 2.6642728,2.6698822 1.4186118,3.9919487 0.7189824,5.8001925 0.44596175,7.796086 0.19000429,9.6981498 0.25825701,11.003157 0.25825701,11.003157 c 0,0 -0.0597114,1.296477 0.18770474,3.207076 0.26448906,1.995892 0.97265005,3.804137 2.21831105,5.126203 v 0 c 1.3309867,1.245299 3.1312303,1.953245 5.1277103,2.217658 1.9026325,0.255883 3.2080149,0.187648 3.2080149,0.187648 0,0 1.29686,0.0597 3.208024,-0.187648 1.996476,-0.264413 3.805252,-0.972359 5.127706,-2.217658 v 0 c 1.245667,-1.330596 1.95382,-3.130311 2.21831,-5.126203 0.25596,-1.902069 0.187704,-3.207076 0.187704,-3.207076 0,0 0.06825,-1.2964781 -0.187704,-3.207071"
   class="st1" />
<path
   class="st1"
   d="m 8.799512,10.609168 c 1.0975,-0.487778 2.195,-0.487778 3.170556,-0.365833 v 3.2925 C 14.043124,11.828613 16.238124,10.12139 18.31118,8.414168 16.238124,6.7069453 14.043124,4.9997229 11.970068,3.2925004 V 5.9752785 C 10.018957,5.8533341 8.067845,6.4630564 6.4825675,7.8044454 3.1900671,10.487224 2.8242337,15.365002 5.5070118,18.657502 4.5314561,15.121113 6.1167341,11.828613 8.799512,10.609168 Z"
   id="path6"
   style="stroke-width:1.21944" />
</svg>
