<?xml version="1.0" encoding="UTF-8" standalone="no"?>
<!-- Created with Inkscape (http://www.inkscape.org/) -->

<svg
   width="22"
   height="22"
   viewBox="0 0 5.8208332 5.8208335"
   version="1.1"
   id="svg5"
   inkscape:version="1.1.1 (3bf5ae0d25, 2021-09-20)"
   sodipodi:docname="update-low.svg"
   xmlns:inkscape="http://www.inkscape.org/namespaces/inkscape"
   xmlns:sodipodi="http://sodipodi.sourceforge.net/DTD/sodipodi-0.dtd"
   xmlns="http://www.w3.org/2000/svg"
   xmlns:svg="http://www.w3.org/2000/svg">
  <sodipodi:namedview
     id="namedview7"
     pagecolor="#ffffff"
     bordercolor="#666666"
     borderopacity="1.0"
     inkscape:pageshadow="2"
     inkscape:pageopacity="0.0"
     inkscape:pagecheckerboard="0"
     inkscape:document-units="px"
     showgrid="false"
     units="px"
     height="22px"
     inkscape:zoom="4.6420455"
     inkscape:cx="-88.538555"
     inkscape:cy="14.110159"
     inkscape:window-width="1920"
     inkscape:window-height="1013"
     inkscape:window-x="0"
     inkscape:window-y="0"
     inkscape:window-maximized="1"
     inkscape:current-layer="layer1" />
  <defs
     id="defs2">
    <style
       id="current-color-scheme"
       type="text/css">
     .ColorScheme-Text { color:#dedede; } .ColorScheme-Highlight { color:#4285f4; }
    </style>
  </defs>
  <g
     inkscape:label="레이어 1"
     inkscape:groupmode="layer"
     id="layer1">
    <path
       id="path846"
       style="fill:currentColor;stroke-width:1.36419"
       class="ColorScheme-Text"
       d="m 11,4 a 6.9999998,6.9999998 0 0 0 -7,7 6.9999998,6.9999998 0 0 0 7,7 6.9999998,6.9999998 0 0 0 2.195312,-0.357422 A 3.4999999,3.4999999 0 0 1 13,16.5 3.4999999,3.4999999 0 0 1 16.5,13 3.4999999,3.4999999 0 0 1 17.644531,13.191406 6.9999998,6.9999998 0 0 0 18,11 6.9999998,6.9999998 0 0 0 11,4 Z m 0,3 a 3.9999998,3.9999998 0 0 1 4,4 h 0.900391 L 14.5,12.400391 13.099609,11 H 14 a 2.9999998,2.9999998 0 0 0 -3,-3 2.9999998,2.9999998 0 0 0 -3,3 2.9999998,2.9999998 0 0 0 3,3 v 1 A 3.9999998,3.9999998 0 0 1 7,11 3.9999998,3.9999998 0 0 1 11,7 Z"
       transform="scale(0.26458333)" />
    <circle
       style="fill:#d33636;fill-opacity:1;stroke-width:0.27903"
       class="ColorScheme-Highlight"
       id="path1627-5"
       cx="4.3656249"
       cy="4.3656249"
       r="0.66145831" />
  </g>
</svg>
