<?xml version="1.0" encoding="UTF-8" standalone="no"?>
<!-- Generator: Adobe Illustrator 23.0.0, SVG Export Plug-In . SVG Version: 6.00 Build 0)  -->

<svg
   version="1.1"
   id="레이어_1"
   x="0px"
   y="0px"
   viewBox="0 0 256 256"
   style="enable-background:new 0 0 256 256;"
   xml:space="preserve"
   sodipodi:docname="J7Z.svg"
   inkscape:version="1.1 (c4e8f9ed74, 2021-05-24)"
   xmlns:inkscape="http://www.inkscape.org/namespaces/inkscape"
   xmlns:sodipodi="http://sodipodi.sourceforge.net/DTD/sodipodi-0.dtd"
   xmlns="http://www.w3.org/2000/svg"
   xmlns:svg="http://www.w3.org/2000/svg"
   xmlns:rdf="http://www.w3.org/1999/02/22-rdf-syntax-ns#"
   xmlns:cc="http://creativecommons.org/ns#"
   xmlns:dc="http://purl.org/dc/elements/1.1/"><metadata
   id="metadata29"><rdf:RDF><cc:Work
       rdf:about=""><dc:format>image/svg+xml</dc:format><dc:type
         rdf:resource="http://purl.org/dc/dcmitype/StillImage" /></cc:Work></rdf:RDF></metadata><defs
   id="defs27">
	
	
	
</defs><sodipodi:namedview
   pagecolor="#ffffff"
   bordercolor="#666666"
   borderopacity="1"
   objecttolerance="10"
   gridtolerance="10"
   guidetolerance="10"
   inkscape:pageopacity="0"
   inkscape:pageshadow="2"
   inkscape:window-width="1920"
   inkscape:window-height="1009"
   id="namedview25"
   showgrid="false"
   inkscape:zoom="0.921875"
   inkscape:cx="128"
   inkscape:cy="128"
   inkscape:window-x="0"
   inkscape:window-y="0"
   inkscape:window-maximized="1"
   inkscape:current-layer="레이어_1"
   inkscape:pagecheckerboard="0" />
<style
   type="text/css"
   id="style2">
	.st0{fill:#E6E6E6;}
	.st1{fill:#E7A12E;}
	.st2{fill:#FFFFFF;}
</style>
<path
   class="st0"
   d="M 251.7,90.4 C 248.6,67 240.3,45.8 225.7,30.3 v 0 C 210.1,15.7 189,7.4 165.6,4.3 143.2,1.3 128,2 128,2 128,2 112.8,1.3 90.4,4.3 67,7.4 45.8,15.7 30.3,30.3 15.7,45.8 7.5,67 4.3,90.4 1.3,112.7 2.1,128 2.1,128 c 0,0 -0.7,15.2 2.2,37.6 3.1,23.4 11.4,44.6 26,60.1 v 0 c 15.6,14.6 36.7,22.9 60.1,26 22.3,3 37.6,2.2 37.6,2.2 0,0 15.2,0.7 37.6,-2.2 23.4,-3.1 44.6,-11.4 60.1,-26 v 0 c 14.6,-15.6 22.9,-36.7 26,-60.1 3,-22.3 2.2,-37.6 2.2,-37.6 0,0 0.8,-15.2 -2.2,-37.6"
   id="path4"
   style="opacity:0.1;fill:#000000" />
<path
   class="st1"
   d="M249.8,91c-3-23-11.2-43.9-25.6-59.2l0,0C208.8,17.5,188,9.3,165,6.3C142.9,3.3,128,4,128,4s-14.9-0.7-37,2.2  c-23,3-43.9,11.2-59.2,25.6C17.5,47.1,9.4,68,6.2,91c-2.9,22-2.1,37-2.1,37S3.4,143,6.2,165c3,23,11.2,43.9,25.6,59.2l0,0  C47.2,238.6,68,246.8,91,249.8c22,2.9,37,2.1,37,2.1s14.9,0.7,37-2.1c23-3,43.9-11.2,59.2-25.6l0,0c14.4-15.3,22.6-36.1,25.6-59.2  c2.9-22,2.1-37,2.1-37S252.7,113,249.8,91"
   id="path6"
   style="fill:#8b8b8b;fill-opacity:1" />
<path
   style="fill:#ffffff"
   d="M 65 63.300781 C 58.4 63.300781 53 68.600781 53 75.300781 L 53 108.5 L 53 178 C 53 186.1 59.599219 192.69922 67.699219 192.69922 L 188.30078 192.69922 C 196.40078 192.69922 203.00039 186.1 202.90039 178 L 202.90039 102.40039 C 202.90039 94.300392 196.29922 87.699219 188.19922 87.699219 L 137.80078 87.699219 C 132.10078 87.599219 127.40078 82.899609 127.30078 77.099609 L 127.19922 77.099609 L 127.19922 75.300781 C 127.19922 68.700781 121.89922 63.300781 115.19922 63.300781 L 100.39648 63.300781 A 11 11 0 0 1 101.19922 67.400391 A 11 11 0 0 1 90.199219 78.400391 A 11 11 0 0 1 79.199219 67.400391 A 11 11 0 0 1 79.998047 63.300781 L 65 63.300781 z M 90.199219 88.800781 A 11 11 0 0 1 101.19922 99.800781 A 11 11 0 0 1 90.199219 110.80078 A 11 11 0 0 1 79.199219 99.800781 A 11 11 0 0 1 90.199219 88.800781 z M 90.199219 121.30078 A 11 11 0 0 1 101.19922 132.30078 A 11 11 0 0 1 90.199219 143.30078 A 11 11 0 0 1 79.199219 132.30078 A 11 11 0 0 1 90.199219 121.30078 z M 90.199219 153.80078 A 11 11 0 0 1 101.19922 164.80078 A 11 11 0 0 1 90.199219 175.80078 A 11 11 0 0 1 79.199219 164.80078 A 11 11 0 0 1 90.199219 153.80078 z "
   id="path8" />




</svg>
