<?xml version="1.0" encoding="UTF-8" standalone="no"?>
<svg
   width="256"
   height="256"
   version="1.1"
   id="svg24"
   sodipodi:docname="akregator.svg"
   inkscape:version="1.1 (c4e8f9ed74, 2021-05-24)"
   xmlns:inkscape="http://www.inkscape.org/namespaces/inkscape"
   xmlns:sodipodi="http://sodipodi.sourceforge.net/DTD/sodipodi-0.dtd"
   xmlns:xlink="http://www.w3.org/1999/xlink"
   xmlns="http://www.w3.org/2000/svg"
   xmlns:svg="http://www.w3.org/2000/svg">
  <sodipodi:namedview
     id="namedview26"
     pagecolor="#ffffff"
     bordercolor="#666666"
     borderopacity="1.0"
     inkscape:pageshadow="2"
     inkscape:pageopacity="0.0"
     inkscape:pagecheckerboard="0"
     showgrid="false"
     inkscape:zoom="1.1600971"
     inkscape:cx="45.685832"
     inkscape:cy="118.09357"
     inkscape:window-width="1920"
     inkscape:window-height="1009"
     inkscape:window-x="0"
     inkscape:window-y="0"
     inkscape:window-maximized="1"
     inkscape:current-layer="svg24" />
  <defs
     id="defs12">
    <linearGradient
       id="a"
       y1="40"
       x1="43"
       y2="4"
       x2="13"
       gradientUnits="userSpaceOnUse">
      <stop
         stop-color="#f27935"
         id="stop2" />
      <stop
         offset="1"
         stop-color="#f2784b"
         id="stop4" />
    </linearGradient>
    <linearGradient
       id="b"
       y1="27.129999"
       x1="24.129999"
       y2="41"
       x2="38"
       gradientUnits="userSpaceOnUse"
       gradientTransform="matrix(6.2998623,0,0,6.2998623,11.601101,-47.245351)">
      <stop
         stop-color="#292c2f"
         id="stop7" />
      <stop
         offset="1"
         stop-opacity="0"
         id="stop9" />
    </linearGradient>
    <linearGradient
       inkscape:collect="always"
       xlink:href="#a"
       id="linearGradient1129"
       x1="247.69763"
       y1="220.87431"
       x2="30.746386"
       y2="8.7496128"
       gradientUnits="userSpaceOnUse" />
  </defs>
  <path
     style="opacity:0.1;fill:#000000;fill-opacity:1"
     d="m 132.79987,0.5 c 6.2,0 18.1,0.3 33.3,2.3 23.7,3.1 45.1,11.5 60.8,26.3 v 0 c 14.7,15.7 23.1,37.1 26.2,60.9 3,22.6 2.3,38 2.3,38 0,0 0.7,15.4 -2.3,38 -3.1,23.7 -11.5,45.1 -26.3,60.9 v 0 c -15.7,14.8 -37.1,23.1 -60.8,26.3 -15.1,2 -27,2.3 -33.2,2.3 -3.1,0 -4.7,-0.1 -4.7,-0.1 0,0 -1.7,0.1 -4.7,0.1 -6.2,0 -18.1,-0.3 -33.200002,-2.3 -23.7,-3.1 -45.1,-11.5 -60.8,-26.3 v 0 c -15,-15.7 -23.4000002,-37.1 -26.5000002,-60.9 -3.00000003,-22.6 -2.30000003,-38 -2.30000003,-38 0,0 -0.7,-15.4 2.30000003,-38 3.1,-23.8 11.5000002,-45.2 26.3000002,-60.9 v 0 c 15.6,-14.8 37.1,-23.2 60.7,-26.3 15.100002,-2 27.000002,-2.3 33.300002,-2.3 3.1,0 4.7,0.1 4.7,0.1 0,0 1.8,-0.1 4.9,-0.1"
     id="path4"
     inkscape:connector-curvature="0" />
  <path
     style="opacity:1;fill:url(#linearGradient1129);fill-opacity:1"
     inkscape:connector-curvature="0"
     id="path10"
     d="m 251.69967,90.40021 c -3.1,-23.4 -11.4,-44.6 -26,-60.1 v 0 c -15.6,-14.6 -36.7,-22.9 -60.1,-26 -22.4,-3 -37.6,-2.3 -37.6,-2.3 0,0 -15.2,-0.7 -37.600012,2.3 -23.4,3.1 -44.6,11.4 -60.1,26 -14.6,15.5 -22.8000002,36.7 -26.0000002,60.1 -3,22.3 -2.2,37.6 -2.2,37.6 0,0 -0.7,15.2 2.2,37.6 3.1,23.4 11.4000002,44.6 26.0000002,60.1 v 0 c 15.6,14.6 36.7,22.9 60.1,26 22.300012,3 37.600012,2.2 37.600012,2.2 0,0 15.2,0.7 37.6,-2.2 23.4,-3.1 44.6,-11.4 60.1,-26 v 0 c 14.6,-15.6 22.9,-36.7 26,-60.1 3,-22.3 2.2,-37.6 2.2,-37.6 0,0 0.8,-15.2 -2.2,-37.6"
     class="st1" />
  <g
     stroke-linejoin="round"
     stroke-width="6"
     id="g22"
     transform="matrix(6.2998623,0,0,6.2998623,9.601101,-47.245351)">
    <path
       id="path16"
       style="opacity:0.2;fill:url(#b);stroke-width:37.7992"
       d="M 87.199219,78.751953 124.99805,116.55078 87.199219,129.15039 200.32031,242.27148 c 9.48312,-4.19913 18.06587,-9.6819 25.37891,-16.57031 14.51203,-15.50602 22.79774,-36.44834 25.9414,-59.67969 L 175.39648,89.777344 Z m 17.816401,82.982427 -35.632808,35.63085 56.593748,56.59571 c 1.22666,-0.0277 2.02344,-0.0606 2.02344,-0.0606 0,0 15.19957,0.7008 37.59961,-2.19922 8.01901,-1.06235 15.7792,-2.73648 23.14062,-5.06445 z"
       transform="matrix(0.15873363,0,0,0.15873363,-1.5240176,7.499426)" />
    <path
       fill="#ffffff"
       d="m 12.317467,16 v 4 c 8.837,0 16,7.163 16,16 h 4 c 0,-11.05 -8.954,-20 -20,-20 m 0,8 v 4 c 4.418,0 8,3.582 8,8 h 4 c 0,-6.627 -5.373,-12 -12,-12 m 0,8 c -2.209,0 -3.9999997,1.791 -3.9999997,4 0,2.209 1.7909997,4 3.9999997,4 2.209,0 4,-1.791 4,-4 0,-2.209 -1.791,-4 -4,-4"
       id="path20" />
  </g>
</svg>
