<?xml version="1.0" encoding="UTF-8" standalone="no"?>
<svg
   width="256"
   height="256"
   version="1.1"
   viewBox="0 0 67.732 67.732"
   id="svg14"
   sodipodi:docname="Amazon-www.amazon.ca.svg"
   inkscape:version="1.1.1 (3bf5ae0d25, 2021-09-20)"
   xmlns:inkscape="http://www.inkscape.org/namespaces/inkscape"
   xmlns:sodipodi="http://sodipodi.sourceforge.net/DTD/sodipodi-0.dtd"
   xmlns="http://www.w3.org/2000/svg"
   xmlns:svg="http://www.w3.org/2000/svg">
  <defs
     id="defs18" />
  <sodipodi:namedview
     id="namedview16"
     pagecolor="#ffffff"
     bordercolor="#666666"
     borderopacity="1.0"
     inkscape:pageshadow="2"
     inkscape:pageopacity="0.0"
     inkscape:pagecheckerboard="0"
     showgrid="false"
     inkscape:zoom="1.1421432"
     inkscape:cx="25.828636"
     inkscape:cy="151.03185"
     inkscape:window-width="1920"
     inkscape:window-height="1003"
     inkscape:window-x="0"
     inkscape:window-y="0"
     inkscape:window-maximized="1"
     inkscape:current-layer="svg14" />
  <path
     style="opacity:0.1;fill:#000000;fill-opacity:1;stroke-width:0.264578"
     d="m 35.13594,0.13228906 c 1.640384,0 4.788864,0.07937 8.810451,0.60853 6.270502,0.82019204 11.932473,3.04264804 16.08635,6.95840404 v 0 c 3.889298,4.1538769 6.111754,9.8158489 6.931947,16.1128079 0.793734,5.979465 0.608529,10.053968 0.608529,10.053968 0,0 0.185205,4.074503 -0.608529,10.053969 -0.820193,6.270501 -3.042649,11.932473 -6.958405,16.112807 v 0 c -4.153876,3.915757 -9.815848,6.111755 -16.08635,6.958405 -3.995129,0.529156 -7.143609,0.60853 -8.783993,0.60853 -0.820192,0 -1.243517,-0.02646 -1.243517,-0.02646 0,0 -0.449783,0.02646 -1.243518,0.02646 -1.640384,0 -4.788864,-0.07937 -8.783994,-0.60853 C 17.59441,66.170988 11.932438,63.948532 7.7785618,60.032775 v 0 C 3.80989,55.878899 1.5874337,50.216927 0.76724159,43.919968 -0.02649281,37.940502 0.15871189,33.865999 0.15871189,33.865999 c 0,0 -0.1852047,-4.074503 0.6085297,-10.053968 C 1.5874337,17.515072 3.80989,11.8531 7.7256462,7.6992231 v 0 c 4.1274188,-3.915756 9.8158478,-6.138212 16.0598918,-6.95840404 3.99513,-0.529157 7.14361,-0.60853 8.810452,-0.60853 0.820192,0 1.243517,0.02646 1.243517,0.02646 0,0 0.476241,-0.02646 1.296433,-0.02646"
     id="path4"
     inkscape:connector-curvature="0" />
  <path
     style="fill:#f9f9f9;fill-opacity:1;stroke-width:0.264578"
     inkscape:connector-curvature="0"
     id="path10-3"
     d="M 66.594225,23.917918 C 65.774033,17.72679 63.578035,12.117733 59.715194,8.0167731 v 0 C 55.587776,4.1539321 50.005177,1.9579341 43.814049,1.1377411 37.887499,0.34400706 33.865912,0.52921206 33.865912,0.52921206 c 0,0 -4.021588,-0.185205 -9.948141,0.60852904 C 17.726644,1.9579341 12.117587,4.1539321 8.0166265,8.0167731 4.153786,12.117733 1.9842454,17.72679 1.1375954,23.917918 0.34386099,29.81801 0.55552349,33.866055 0.55552349,33.866055 c 0,0 -0.1852047,4.021587 0.58207191,9.948137 0.8201921,6.191128 3.0161906,11.800184 6.8790311,15.901145 v 0 c 4.1274185,3.862841 9.7100175,6.058839 15.9011445,6.879031 5.900096,0.793735 9.948141,0.582072 9.948141,0.582072 0,0 4.021587,0.185205 9.948137,-0.582072 6.191128,-0.820192 11.800184,-3.01619 15.901145,-6.879031 v 0 c 3.862841,-4.127418 6.058839,-9.710017 6.879031,-15.901145 0.793735,-5.900092 0.582072,-9.948137 0.582072,-9.948137 0,0 0.211663,-4.021587 -0.582072,-9.948137"
     class="st1" />
  <g
     fill-rule="evenodd"
     id="g12"
     transform="matrix(4.8460041,0,0,4.8460041,-7.1610462,-7.1793703)">
    <path
       d="m 9.073,7.87 c 0,0.446 0.011,0.816 -0.204,1.21 -0.173,0.321 -0.448,0.518 -0.754,0.518 -0.419,0 -0.662,-0.333 -0.662,-0.825 0,-0.972 0.833,-1.149 1.62,-1.149 v 0.247 m 1.099,2.778 A 0.22,0.22 0 0 1 9.915,10.677 C 9.554,10.363 9.489,10.217 9.289,9.917 8.691,10.555 8.269,10.746 7.493,10.746 6.576,10.746 5.861,10.155 5.861,8.97 5.861,8.045 6.341,7.415 7.023,7.107 7.613,6.834 8.44,6.787 9.072,6.711 V 6.563 C 9.072,6.293 9.092,5.972 8.941,5.738 8.808,5.528 8.553,5.442 8.329,5.442 7.913,5.442 7.543,5.664 7.453,6.126 7.433,6.229 7.363,6.33 7.263,6.335 L 6.206,6.217 C 6.117,6.195 6.019,6.12 6.043,5.977 6.288,4.64 7.445,4.235 8.481,4.235 c 0.53,0 1.223,0.147 1.64,0.567 0.531,0.518 0.48,1.209 0.48,1.96 v 1.776 c 0,0.535 0.212,0.768 0.411,1.057 0.07,0.102 0.086,0.227 -0.002,0.303 a 52.39,52.39 0 0 0 -0.836,0.757 L 10.17,10.651"
       fill="#201f1f"
       id="path6" />
    <path
       d="m 11.886,11.625 c -0.927,0.7 -2.27,1.074 -3.428,1.074 A 6.117,6.117 0 0 1 4.271,11.061 c -0.087,-0.08 -0.01,-0.19 0.095,-0.128 a 8.27,8.27 0 0 0 4.19,1.139 8.138,8.138 0 0 0 3.196,-0.67 c 0.157,-0.068 0.289,0.105 0.135,0.222"
       fill="#ff9900"
       id="path8" />
    <path
       d="m 12.272,11.173 c -0.118,-0.155 -0.784,-0.074 -1.081,-0.037 -0.092,0.011 -0.106,-0.07 -0.023,-0.129 0.529,-0.381 1.4,-0.272 1.5,-0.143 0.101,0.128 -0.026,1.021 -0.525,1.447 -0.076,0.066 -0.148,0.031 -0.114,-0.056 0.11,-0.286 0.362,-0.927 0.243,-1.082"
       fill="#ff9900"
       id="path10" />
  </g>
</svg>
