<?xml version="1.0" encoding="UTF-8" standalone="no"?>
<!-- Generator: Adobe Illustrator 23.0.0, SVG Export Plug-In . SVG Version: 6.00 Build 0)  -->

<svg
   version="1.1"
   id="레이어_1"
   x="0px"
   y="0px"
   viewBox="0 0 256 256"
   style="enable-background:new 0 0 256 256;"
   xml:space="preserve"
   sodipodi:docname="applications-science.svg"
   inkscape:version="1.1.1 (3bf5ae0d25, 2021-09-20)"
   xmlns:inkscape="http://www.inkscape.org/namespaces/inkscape"
   xmlns:sodipodi="http://sodipodi.sourceforge.net/DTD/sodipodi-0.dtd"
   xmlns="http://www.w3.org/2000/svg"
   xmlns:svg="http://www.w3.org/2000/svg"
   xmlns:rdf="http://www.w3.org/1999/02/22-rdf-syntax-ns#"
   xmlns:cc="http://creativecommons.org/ns#"
   xmlns:dc="http://purl.org/dc/elements/1.1/"><metadata
   id="metadata21"><rdf:RDF><cc:Work
       rdf:about=""><dc:format>image/svg+xml</dc:format><dc:type
         rdf:resource="http://purl.org/dc/dcmitype/StillImage" /></cc:Work></rdf:RDF></metadata><defs
   id="defs19">
		
		
	
			
		
				
			
	
	
</defs><sodipodi:namedview
   pagecolor="#ffffff"
   bordercolor="#666666"
   borderopacity="1"
   objecttolerance="10"
   gridtolerance="10"
   guidetolerance="10"
   inkscape:pageopacity="0"
   inkscape:pageshadow="2"
   inkscape:window-width="1920"
   inkscape:window-height="1005"
   id="namedview17"
   showgrid="false"
   inkscape:zoom="2.195898"
   inkscape:cx="142.99389"
   inkscape:cy="152.78487"
   inkscape:window-x="0"
   inkscape:window-y="0"
   inkscape:window-maximized="1"
   inkscape:current-layer="레이어_1"
   inkscape:pagecheckerboard="0" />
<style
   type="text/css"
   id="style2">
	.st0{opacity:0.1;}
	.st1{fill:#FAFAFA;}
</style>


<path
   style="opacity:0.9;fill:#4da1b1;fill-opacity:1"
   inkscape:connector-curvature="0"
   id="path10"
   d="m 251.6998,90.400211 c -3.1,-23.4 -11.4,-44.6 -26,-60.1 v 0 c -15.6,-14.6 -36.7,-22.9000004 -60.1,-26.0000004 -22.4,-3 -37.6,-2.3 -37.6,-2.3 0,0 -15.2,-0.7 -37.600014,2.3 -23.4,3.1 -44.6,11.4000004 -60.1,26.0000004 -14.6,15.5 -22.7999996,36.7 -25.9999996,60.1 -3,22.299999 -2.2,37.599999 -2.2,37.599999 0,0 -0.7,15.2 2.2,37.6 3.1,23.4 11.3999996,44.6 25.9999996,60.1 v 0 c 15.6,14.6 36.7,22.9 60.1,26 22.300014,3 37.600014,2.2 37.600014,2.2 0,0 15.2,0.7 37.6,-2.2 23.4,-3.1 44.6,-11.4 60.1,-26 v 0 c 14.6,-15.6 22.9,-36.7 26,-60.1 3,-22.3 2.2,-37.6 2.2,-37.6 0,0 0.8,-15.2 -2.2,-37.599999"
   class="st1" /><path
   id="rect4752"
   style="fill:#397384;fill-opacity:0.901961"
   d="m 101.36139,132 -31.730471,54.13281 c -2.18043,3.74533 -0.702703,9.98854 5.998047,9.86719 H 179.08209 c 6.53337,0 8.0506,-5.51402 6.26367,-9.86719 L 154.461,132 Z" /><path
   id="path46"
   style="fill:#ffffff;stroke-width:3.11873"
   class="st4"
   d="m 92.00006,56.011719 c -2.77,0 -5,3.218281 -5,5.988281 0,2.77 2.23,6.011719 5,6.011719 h 7 v 48.134761 l -39.296875,67.89844 c -4.989975,9.3562 1.560386,20.89453 12.164063,20.89453 H 184.14068 c 10.60368,0 17.46528,-11.53833 11.85157,-20.89453 L 157.00006,116.67383 V 68.011719 h 7 c 2.77,0 5,-3.241719 5,-6.011719 0,-2.77 -2.23,-5.988281 -5,-5.988281 z m 20,11.988281 h 32 v 52.67383 l 37.3457,63.45898 C 183.13269,188.48598 181.61546,194 175.08209,194 H 79.628966 c -6.700756,0.12135 -8.178481,-6.12186 -5.998047,-9.86719 l 38.369141,-63.45898 z"
   sodipodi:nodetypes="csscccsscccssccccccscccc" /></svg>
