<?xml version="1.0" encoding="UTF-8" standalone="no"?>
<!-- Generator: Adobe Illustrator 23.0.0, SVG Export Plug-In . SVG Version: 6.00 Build 0)  -->

<svg
   version="1.1"
   id="레이어_1"
   x="0px"
   y="0px"
   viewBox="0 0 256 256"
   style="enable-background:new 0 0 256 256;"
   xml:space="preserve"
   sodipodi:docname="cantata.svg"
   inkscape:version="1.1.1 (3bf5ae0d25, 2021-09-20)"
   xmlns:inkscape="http://www.inkscape.org/namespaces/inkscape"
   xmlns:sodipodi="http://sodipodi.sourceforge.net/DTD/sodipodi-0.dtd"
   xmlns="http://www.w3.org/2000/svg"
   xmlns:svg="http://www.w3.org/2000/svg"
   xmlns:rdf="http://www.w3.org/1999/02/22-rdf-syntax-ns#"
   xmlns:cc="http://creativecommons.org/ns#"
   xmlns:dc="http://purl.org/dc/elements/1.1/"><metadata
   id="metadata31"><rdf:RDF><cc:Work
       rdf:about=""><dc:format>image/svg+xml</dc:format><dc:type
         rdf:resource="http://purl.org/dc/dcmitype/StillImage" /></cc:Work></rdf:RDF></metadata><defs
   id="defs29">
		
		
		
		
	
	
	
</defs><sodipodi:namedview
   pagecolor="#ffffff"
   bordercolor="#666666"
   borderopacity="1"
   objecttolerance="10"
   gridtolerance="10"
   guidetolerance="10"
   inkscape:pageopacity="0"
   inkscape:pageshadow="2"
   inkscape:window-width="1920"
   inkscape:window-height="1003"
   id="namedview27"
   showgrid="false"
   inkscape:zoom="0.4609375"
   inkscape:cx="-148.61017"
   inkscape:cy="-79.186441"
   inkscape:window-x="0"
   inkscape:window-y="0"
   inkscape:window-maximized="1"
   inkscape:current-layer="레이어_1"
   inkscape:pagecheckerboard="0" />
<style
   type="text/css"
   id="style2">
	.st0{opacity:0.1;}
	.st1{fill:#549FFF;}
	.st2{fill:#FFFFFF;}
	.st3{fill:#AB8DFF;}
</style>
<g
   class="st0"
   id="g8">
	<g
   id="g6">
		<path
   d="m 132.7,0.5 c 6.2,0 18.1,0.3 33.3,2.3 23.7,3.1 45.1,11.5 60.9,26.3 v 0 c 14.7,15.7 23.1,37.2 26.3,60.9 3,22.6 2.3,38 2.3,38 0,0 0.7,15.4 -2.3,38 -3.1,23.7 -11.5,45.1 -26.3,60.9 v 0 c -15.7,14.8 -37.2,23.2 -60.9,26.3 -15.1,2 -27.1,2.3 -33.3,2.3 -3.1,0 -4.7,-0.1 -4.7,-0.1 0,0 -1.7,0.1 -4.7,0.1 -6.2,0 -18.1,-0.3 -33.3,-2.3 -23.7,-3.1 -45.1,-11.5 -60.9,-26.3 v 0 C 14.4,211.2 6,189.7 2.8,166 -0.2,143.4 0.5,128 0.5,128 0.5,128 -0.2,112.6 2.8,90 6,66.3 14.4,44.8 29.1,29.1 v 0 C 44.9,14.3 66.3,5.9 90,2.8 c 15.2,-2 27.1,-2.3 33.3,-2.3 3.1,0 4.7,0.1 4.7,0.1 0,0 1.7,-0.1 4.7,-0.1"
   id="path4" />
	</g>
</g>
<path
   class="st1"
   d="M251.7,90.4c-3.1-23.4-11.4-44.6-26-60.2h0c-15.5-14.6-36.7-22.9-60.1-26C143.2,1.3,128,2,128,2  s-15.2-0.7-37.6,2.2C67,7.4,45.8,15.7,30.3,30.3C15.7,45.8,7.4,67,4.3,90.4c-3,22.4-2.2,37.6-2.2,37.6s-0.7,15.2,2.2,37.6  c3.1,23.4,11.4,44.6,26,60.1v0c15.5,14.6,36.7,22.9,60.1,26c22.3,3,37.6,2.2,37.6,2.2s15.2,0.7,37.6-2.2c23.4-3.1,44.6-11.4,60.1-26  l0,0c14.6-15.5,22.9-36.7,26-60.1c3-22.4,2.2-37.6,2.2-37.6S254.6,112.8,251.7,90.4"
   id="path10"
   style="fill:#9fd876;fill-opacity:1" />
<path
   id="path12"
   style="fill:#ffffff;stroke-width:0.833319"
   d="M 191,51 91.333984,69 v 82.41992 C 87.765868,149.83207 83.905474,149.00883 80,149.00195 c -15.463452,1.7e-4 -27.999822,12.53655 -28,28 1.78e-4,15.46344 12.536548,27.99788 28,27.99805 15.46408,7.2e-4 27.99983,-12.53397 28,-27.99805 v -94.3457 l 66.33398,-11.980469 v 66.744139 c -3.56812,-1.58785 -7.4285,-2.41109 -11.33398,-2.41797 -15.46345,1.7e-4 -27.99982,12.53655 -28,28 1.8e-4,15.46344 12.53655,27.99788 28,27.99805 15.46408,7.2e-4 27.99983,-12.53397 28,-27.99805 z"
   sodipodi:nodetypes="ccccccccccccccc" />
<circle
   style="fill:#bbc839;fill-opacity:1;stroke-width:0.833319"
   id="circle22"
   r="12.999775"
   cy="177.00121"
   cx="79.99984"
   class="st3" />
<circle
   style="fill:#bbc839;fill-opacity:1;stroke-width:0.833319"
   id="circle22-5"
   r="12.999775"
   cy="163.00114"
   cx="162.99985"
   class="st3" />
</svg>
