<?xml version="1.0" encoding="UTF-8" standalone="no"?>
<!-- Generator: Adobe Illustrator 23.0.0, SVG Export Plug-In . SVG Version: 6.00 Build 0)  -->

<svg
   version="1.1"
   id="레이어_1"
   x="0px"
   y="0px"
   viewBox="0 0 256 256"
   style="enable-background:new 0 0 256 256;"
   xml:space="preserve"
   sodipodi:docname="cs-online-accounts.svg"
   inkscape:version="1.1.1 (3bf5ae0d25, 2021-09-20)"
   xmlns:inkscape="http://www.inkscape.org/namespaces/inkscape"
   xmlns:sodipodi="http://sodipodi.sourceforge.net/DTD/sodipodi-0.dtd"
   xmlns="http://www.w3.org/2000/svg"
   xmlns:svg="http://www.w3.org/2000/svg"><defs
   id="defs25">
			
			
		
	
	

		
		
		
	
			
		
				
			
	
	
</defs><sodipodi:namedview
   id="namedview23"
   pagecolor="#ffffff"
   bordercolor="#666666"
   borderopacity="1.0"
   inkscape:pageshadow="2"
   inkscape:pageopacity="0.0"
   inkscape:pagecheckerboard="0"
   showgrid="false"
   inkscape:zoom="2.2842864"
   inkscape:cx="165.91615"
   inkscape:cy="156.06624"
   inkscape:window-width="1920"
   inkscape:window-height="1005"
   inkscape:window-x="0"
   inkscape:window-y="0"
   inkscape:window-maximized="1"
   inkscape:current-layer="레이어_1" />
<style
   type="text/css"
   id="style2">
	.st0{opacity:0.1;}
	.st1{fill:#7882FF;}
	.st2{fill:#FFFFFF;}
	.st3{fill:#4D5CC1;}
</style>
<path
   class="st1"
   d="M 251.7,90.4 C 248.6,67 240.3,45.8 225.7,30.3 v 0 C 210.1,15.7 189,7.4 165.6,4.3 143.2,1.3 128,2 128,2 128,2 112.8,1.3 90.4,4.3 67,7.4 45.8,15.7 30.3,30.3 15.7,45.8 7.5,67 4.3,90.4 1.3,112.7 2.1,128 2.1,128 c 0,0 -0.7,15.2 2.2,37.6 3.1,23.4 11.4,44.6 26,60.1 v 0 c 15.6,14.6 36.7,22.9 60.1,26 22.3,3 37.6,2.2 37.6,2.2 0,0 15.2,0.7 37.6,-2.2 23.4,-3.1 44.6,-11.4 60.1,-26 v 0 c 14.6,-15.6 22.9,-36.7 26,-60.1 3,-22.3 2.2,-37.6 2.2,-37.6 0,0 0.8,-15.2 -2.2,-37.6"
   id="path10"
   style="fill:#7882ff;fill-opacity:1" />
<path
   id="path6"
   style="fill:#f9f9f9;fill-opacity:1;stroke-width:1.02352"
   d="m 128.02734,57.21875 c -9.82583,0 -17.6032,2.047951 -21.18554,3.173828 -21.903427,6.857615 -34.185947,22.618992 -38.689456,28.964844 -0.409409,1.125877 -1.228932,3.378271 -0.921875,6.24414 0.204705,2.251755 1.024557,3.990933 1.638672,4.912108 8.904664,8.69995 22.618693,20.06289 41.656249,29.37695 8.29055,4.0941 26.71545,12.17826 51.68945,15.14649 11.56583,1.43293 21.49275,1.33128 28.75977,0.92187 5.62939,-1.12588 7.16597,-3.7878 7.67773,-4.70898 0.51176,-1.02352 0.61365,-2.96687 0.81836,-6.75391 0.2047,-2.96822 0.20508,-5.32381 0.20508,-5.63086 0,-39.610401 -32.03804,-71.64648 -71.64844,-71.64648 z M 73.986328,74.720703 c -11.668181,1.842345 -29.682169,9.622375 -32.65039,22.109375 -2.251754,9.416422 4.09391,21.390782 15.966796,33.263672 2.865869,36.94923 33.673348,66.12109 71.441406,66.12109 19.85638,0 37.87038,-8.08639 50.86914,-21.1875 13.81758,-0.81882 28.65935,-4.29829 33.57227,-15.25 6.34585,-14.02229 -6.85791,-32.34335 -10.33789,-36.94922 2.35411,7.47173 1.94536,13.51026 1.43359,16.99024 -0.61411,3.99175 -1.12632,7.47123 -3.99219,10.43945 -4.19645,4.50351 -10.23462,4.81055 -11.97461,4.81055 -13.20347,1.33058 -39.40721,2.25253 -69.39648,-9.21094 -29.886917,-11.46348 -48.718384,-29.68314 -57.623048,-39.61133 -3.172927,-6.345845 -2.25237,-11.156489 -1.945313,-12.896481 0.921172,-3.684688 2.865346,-6.140276 6.140625,-10.234375 3.172926,-3.889393 6.24434,-6.654539 8.496094,-8.394531 z"
   sodipodi:nodetypes="scccccccccsscccsccccccccccc" /></svg>
