<?xml version="1.0" encoding="UTF-8" standalone="no"?>
<!-- Generator: Adobe Illustrator 23.0.0, SVG Export Plug-In . SVG Version: 6.00 Build 0)  -->

<svg
   version="1.1"
   id="레이어_1"
   x="0px"
   y="0px"
   viewBox="0 0 256 256"
   style="enable-background:new 0 0 256 256;"
   xml:space="preserve"
   sodipodi:docname="github.svg"
   inkscape:version="1.1.1 (3bf5ae0d25, 2021-09-20)"
   xmlns:inkscape="http://www.inkscape.org/namespaces/inkscape"
   xmlns:sodipodi="http://sodipodi.sourceforge.net/DTD/sodipodi-0.dtd"
   xmlns="http://www.w3.org/2000/svg"
   xmlns:svg="http://www.w3.org/2000/svg"
   xmlns:rdf="http://www.w3.org/1999/02/22-rdf-syntax-ns#"
   xmlns:cc="http://creativecommons.org/ns#"
   xmlns:dc="http://purl.org/dc/elements/1.1/"><metadata
   id="metadata21"><rdf:RDF><cc:Work
       rdf:about=""><dc:format>image/svg+xml</dc:format><dc:type
         rdf:resource="http://purl.org/dc/dcmitype/StillImage" /></cc:Work></rdf:RDF></metadata><defs
   id="defs19">
		
		
	
			
		
				
			
	
	
</defs><sodipodi:namedview
   pagecolor="#ffffff"
   bordercolor="#666666"
   borderopacity="1"
   objecttolerance="10"
   gridtolerance="10"
   guidetolerance="10"
   inkscape:pageopacity="0"
   inkscape:pageshadow="2"
   inkscape:window-width="1920"
   inkscape:window-height="1005"
   id="namedview17"
   showgrid="false"
   inkscape:zoom="1.3037281"
   inkscape:cx="-10.738435"
   inkscape:cy="153.78973"
   inkscape:window-x="0"
   inkscape:window-y="0"
   inkscape:window-maximized="1"
   inkscape:current-layer="레이어_1"
   inkscape:pagecheckerboard="0" />
<style
   type="text/css"
   id="style2">
	.st0{opacity:0.1;}
	.st1{fill:#FAFAFA;}
</style>
<path
   style="opacity:0.1;fill:#000000"
   d="m 132.8,0.5 c 6.2,0 18.1,0.3 33.3,2.3 23.7,3.1 45.1,11.5 60.8,26.3 v 0 c 14.7,15.7 23.1,37.1 26.2,60.9 3,22.6 2.3,38 2.3,38 0,0 0.7,15.4 -2.3,38 -3.1,23.7 -11.5,45.1 -26.3,60.9 v 0 c -15.7,14.8 -37.1,23.1 -60.8,26.3 -15.1,2 -27,2.3 -33.2,2.3 -3.1,0 -4.7,-0.1 -4.7,-0.1 0,0 -1.7,0.1 -4.7,0.1 -6.2,0 -18.1,-0.3 -33.2,-2.3 -23.7,-3.1 -45.1,-11.5 -60.8,-26.3 v 0 C 14.4,211.2 6,189.8 2.9,166 -0.1,143.4 0.6,128 0.6,128 0.6,128 -0.1,112.6 2.9,90 6,66.2 14.4,44.8 29.2,29.1 v 0 C 44.8,14.3 66.3,5.9 89.9,2.8 c 15.1,-2 27,-2.3 33.3,-2.3 3.1,0 4.7,0.1 4.7,0.1 0,0 1.8,-0.1 4.9,-0.1"
   id="path4"
   inkscape:connector-curvature="0" />

<path
   style="opacity:0.9;fill:#333333"
   inkscape:connector-curvature="0"
   id="path10"
   d="m 251.6998,90.400211 c -3.1,-23.4 -11.4,-44.6 -26,-60.1 v 0 c -15.6,-14.6 -36.7,-22.9000004 -60.1,-26.0000004 -22.4,-3 -37.6,-2.3 -37.6,-2.3 0,0 -15.2,-0.7 -37.600014,2.3 -23.4,3.1 -44.6,11.4000004 -60.1,26.0000004 -14.6,15.5 -22.7999996,36.7 -25.9999996,60.1 -3,22.299999 -2.2,37.599999 -2.2,37.599999 0,0 -0.7,15.2 2.2,37.6 3.1,23.4 11.3999996,44.6 25.9999996,60.1 v 0 c 15.6,14.6 36.7,22.9 60.1,26 22.300014,3 37.600014,2.2 37.600014,2.2 0,0 15.2,0.7 37.6,-2.2 23.4,-3.1 44.6,-11.4 60.1,-26 v 0 c 14.6,-15.6 22.9,-36.7 26,-60.1 3,-22.3 2.2,-37.6 2.2,-37.6 0,0 0.8,-15.2 -2.2,-37.599999"
   class="st1" /><path
   d="m 127.53702,37.354207 c 0.15474,-4.09e-4 0.30948,-4.09e-4 0.46417,0 51.36183,0 92.99881,41.636984 92.99881,92.998833 -0.002,40.01839 -25.6035,75.54869 -63.56468,88.21453 -2.91402,-0.44536 -5.16661,-2.82166 -5.16661,-5.86307 v -26.65038 c 0,-5.78603 -2.64277,-10.22519 -6.73053,-13.08799 23.43053,-3.6322 40.69731,-15.47712 40.69731,-39.98073 0,-11.9855 -3.46317,-21.58192 -9.30401,-29.0115 2.35329,-8.413281 2.08705,-16.950048 -0.39354,-25.580848 -8.49751,0 -18.03247,4.611107 -24.09754,9.566463 -7.47865,-2.328933 -15.74728,-3.501636 -24.45042,-3.501589 -8.72226,0 -16.96247,1.184643 -24.38016,3.53187 -6.07644,-4.967502 -15.618118,-9.596428 -24.127509,-9.596428 -2.522954,8.781655 -2.79947,17.463084 -0.312835,26.014832 -5.537562,7.36964 -8.789421,16.81934 -8.789421,28.5677 0,24.5031 16.844149,36.33152 40.091785,39.97039 -4.09396,2.86275 -6.73053,7.31591 -6.73053,13.10815 -1e-5,0 -2.40107,1.51369 -8.526958,1.51369 -6.453085,0 -9.76384,-1.56913 -15.73178,-9.10204 -3.341964,-4.21518 -8.657673,-9.27816 -13.703375,-9.90952 -0.721722,-0.0914 -1.435695,-0.0992 -2.139282,0.0103 -0.806714,0.12142 -1.596996,0.38285 -2.361293,0.80728 -3.645036,2.01972 8.96922,5.19658 13.390796,18.19421 3.317785,9.74678 14.021119,12.12959 22.997574,12.12959 h 6.064558 v 13.00745 c 0,3.03598 -2.24985,5.41048 -5.156529,5.86307 C 60.609755,205.90624 35.00296,170.3751 35,130.35397 34.999359,79.173154 76.353679,37.611036 127.53382,37.355137 Z M 100.32143,219.1359 c 0.43296,0.13432 0.86687,0.26556 1.30173,0.39368 -0.43487,-0.12812 -0.86878,-0.25936 -1.30173,-0.39368 z m 54.33198,0.31309 c -0.3894,0.11676 -0.77962,0.23146 -1.17054,0.34306 0.39089,-0.1116 0.78111,-0.2263 1.17054,-0.34306 z m -3.22913,0.90817 c -0.50348,0.12865 -1.00807,0.25317 -1.51366,0.37355 0.5056,-0.12038 1.01016,-0.2449 1.51366,-0.37355 z m -42.18064,1.07971 c 0.60091,0.12348 1.20305,0.24128 1.80629,0.35339 0.45347,0.0843 0.90759,0.16482 1.36228,0.24232 -0.45471,-0.0775 -0.90879,-0.1581 -1.36228,-0.24232 -0.60324,-0.1116 -1.20538,-0.22939 -1.80629,-0.35339 z m 34.51134,0.56512 c -0.35618,0.0625 -0.71274,0.12296 -1.06965,0.18186 -0.59783,0.0966 -1.19659,0.18755 -1.79621,0.27228 0.59962,-0.0853 1.19838,-0.17566 1.79621,-0.27228 0.35692,-0.0584 0.71346,-0.11883 1.06965,-0.18186 z m -27.20525,0.63575 c 0.59804,0.0764 1.19681,0.14724 1.79622,0.21182 0.6116,0.0631 1.22382,0.12039 1.83656,0.17153 -0.61274,-0.0516 -1.22496,-0.10849 -1.83656,-0.17153 -0.59941,-0.0645 -1.19818,-0.13536 -1.79622,-0.21182 z"
   fill="#e6e6e6"
   opacity="0.8"
   stroke-width="19.5277"
   style="opacity:1;fill:#ffffff;paint-order:stroke markers fill"
   id="path7"
   sodipodi:nodetypes="ccccsscscccccccscsscccccscscccccccccccccccccccccccccccc" /></svg>
