<?xml version="1.0" encoding="UTF-8" standalone="no"?>
<!-- Generator: Adobe Illustrator 23.0.0, SVG Export Plug-In . SVG Version: 6.00 Build 0)  -->

<svg
   version="1.1"
   id="레이어_1"
   x="0px"
   y="0px"
   viewBox="0 0 256 256"
   style="enable-background:new 0 0 256 256;"
   xml:space="preserve"
   sodipodi:docname="chrome.svg"
   inkscape:version="1.1.1 (3bf5ae0d25, 2021-09-20)"
   xmlns:inkscape="http://www.inkscape.org/namespaces/inkscape"
   xmlns:sodipodi="http://sodipodi.sourceforge.net/DTD/sodipodi-0.dtd"
   xmlns:xlink="http://www.w3.org/1999/xlink"
   xmlns="http://www.w3.org/2000/svg"
   xmlns:svg="http://www.w3.org/2000/svg"><defs
   id="defs27"><linearGradient
   inkscape:collect="always"
   id="linearGradient5341"><stop
     style="stop-color:#a52714;stop-opacity:0.30000001"
     offset="0"
     id="stop5337" /><stop
     style="stop-color:#a52714;stop-opacity:0;"
     offset="1"
     id="stop5339" /></linearGradient><linearGradient
   inkscape:collect="always"
   id="linearGradient4918"><stop
     style="stop-color:#3e2723;stop-opacity:0.30000001"
     offset="0"
     id="stop4914" /><stop
     style="stop-color:#3e2723;stop-opacity:0;"
     offset="1"
     id="stop4916" /></linearGradient><linearGradient
   inkscape:collect="always"
   id="linearGradient4306"><stop
     style="stop-color:#ea6100;stop-opacity:0.30000001"
     offset="0"
     id="stop4302" /><stop
     style="stop-color:#ea6100;stop-opacity:0;"
     offset="1"
     id="stop4304" /></linearGradient><linearGradient
   inkscape:collect="always"
   id="linearGradient3754"><stop
     style="stop-color:#055524;stop-opacity:0.40000001"
     offset="0"
     id="stop3750" /><stop
     style="stop-color:#055524;stop-opacity:0;"
     offset="1"
     id="stop3752" /></linearGradient><linearGradient
   inkscape:collect="always"
   id="linearGradient2429"><stop
     style="stop-color:#263238;stop-opacity:0.30000001"
     offset="0"
     id="stop2425" /><stop
     style="stop-color:#263238;stop-opacity:0;"
     offset="1"
     id="stop2427" /></linearGradient><linearGradient
   inkscape:collect="always"
   id="linearGradient885"><stop
     style="stop-color:#3e2723;stop-opacity:0.30000001"
     offset="0"
     id="stop881" /><stop
     style="stop-color:#3e2723;stop-opacity:0;"
     offset="1"
     id="stop883" /></linearGradient>
	
	
	
	
	
<linearGradient
   inkscape:collect="always"
   xlink:href="#linearGradient885"
   id="linearGradient1433"
   x1="116.82613"
   y1="97.715416"
   x2="207.40001"
   y2="97.975"
   gradientUnits="userSpaceOnUse"
   gradientTransform="translate(0.3000121,0.30039014)" /><linearGradient
   inkscape:collect="always"
   xlink:href="#linearGradient2429"
   id="linearGradient2431"
   x1="167.69498"
   y1="140.67162"
   x2="121.3"
   y2="217.10001"
   gradientUnits="userSpaceOnUse"
   gradientTransform="translate(0.3000121,0.30039014)" /><linearGradient
   inkscape:collect="always"
   xlink:href="#linearGradient3754"
   id="linearGradient3756"
   x1="139.95329"
   y1="199.56216"
   x2="45.983475"
   y2="150.05421"
   gradientUnits="userSpaceOnUse"
   gradientTransform="translate(0.3000121,0.30039014)" /><linearGradient
   inkscape:collect="always"
   xlink:href="#linearGradient4306"
   id="linearGradient4308"
   x1="207.40001"
   y1="87.5"
   x2="207.30084"
   y2="147.40761"
   gradientUnits="userSpaceOnUse"
   gradientTransform="translate(0.3000121,0.30039014)" /><linearGradient
   inkscape:collect="always"
   xlink:href="#linearGradient4918"
   id="linearGradient4626"
   x1="52.799999"
   y1="79.699997"
   x2="109.73666"
   y2="79.68412"
   gradientUnits="userSpaceOnUse"
   gradientTransform="translate(0.3000121,0.30039014)" /><linearGradient
   inkscape:collect="always"
   xlink:href="#linearGradient5341"
   id="linearGradient5343"
   x1="64.522026"
   y1="99.861526"
   x2="121.68312"
   y2="67.956039"
   gradientUnits="userSpaceOnUse"
   gradientTransform="translate(0.3308721,0.30000014)" /></defs><sodipodi:namedview
   id="namedview25"
   pagecolor="#ffffff"
   bordercolor="#666666"
   borderopacity="1.0"
   inkscape:pageshadow="2"
   inkscape:pageopacity="0.0"
   inkscape:pagecheckerboard="0"
   showgrid="false"
   inkscape:zoom="1.5957031"
   inkscape:cx="67.681763"
   inkscape:cy="210.87882"
   inkscape:window-width="1920"
   inkscape:window-height="1013"
   inkscape:window-x="0"
   inkscape:window-y="0"
   inkscape:window-maximized="1"
   inkscape:current-layer="레이어_1" />
<style
   type="text/css"
   id="style2">
	.st0{opacity:0.1;}
	.st1{fill:#FFFFFF;}
	.st2{fill:#DB4437;}
	.st3{fill:#0F9D58;}
	.st4{fill:#FFCD40;}
	.st5{fill:#4285F4;}
</style>
<g
   class="st0"
   id="g8">
	<g
   id="g6">
		<path
   d="M132.7,0.5c6.2,0,18.1,0.3,33.3,2.3c23.7,3.1,45.1,11.5,60.9,26.3h0C241.6,44.8,250,66.3,253.2,90c3,22.6,2.3,38,2.3,38    s0.7,15.4-2.3,38c-3.1,23.7-11.5,45.1-26.3,60.9l0,0c-15.7,14.8-37.2,23.2-60.9,26.3c-15.1,2-27.1,2.3-33.3,2.3    c-3.1,0-4.7-0.1-4.7-0.1s-1.7,0.1-4.7,0.1c-6.2,0-18.1-0.3-33.3-2.3c-23.7-3.1-45.1-11.5-60.9-26.3l0,0    C14.4,211.2,6,189.7,2.8,166c-3-22.6-2.3-38-2.3-38s-0.7-15.4,2.3-38C6,66.3,14.4,44.8,29.1,29.1h0C44.9,14.3,66.3,5.9,90,2.8    c15.2-2,27.1-2.3,33.3-2.3c3.1,0,4.7,0.1,4.7,0.1S129.7,0.5,132.7,0.5"
   id="path4" />
	</g>
</g>
<path
   class="st1"
   d="M251.7,90.4c-3.1-23.4-11.4-44.6-26-60.2h0c-15.5-14.6-36.7-22.9-60.1-26C143.2,1.3,128,2,128,2  s-15.2-0.7-37.6,2.2C67,7.4,45.8,15.7,30.3,30.3C15.7,45.8,7.4,67,4.3,90.4c-3,22.4-2.2,37.6-2.2,37.6s-0.7,15.2,2.2,37.6  c3.1,23.4,11.4,44.6,26,60.1v0c15.5,14.6,36.7,22.9,60.1,26c22.3,3,37.6,2.2,37.6,2.2s15.2,0.7,37.6-2.2c23.4-3.1,44.6-11.4,60.1-26  l0,0c14.6-15.5,22.9-36.7,26-60.1c3-22.4,2.2-37.6,2.2-37.6S254.6,112.8,251.7,90.4"
   id="path10" />
<circle
   class="st2"
   cx="128.3"
   cy="128.30038"
   r="89.400002"
   id="circle12" /><path
   id="circle12-9"
   style="fill:url(#linearGradient5343);fill-opacity:1"
   class="st2"
   d="M 128.33008,38.9 A 89.400002,89.400002 0 0 0 52.892582,80.390234 c 0.07668,-0.121462 0.16292,-0.272443 0.23829,-0.390625 12.29999,21.200001 24.69999,42.300391 37,63.400401 H 129.33008 V 87.80039 h 78.66993 A 89.400002,89.400002 0 0 0 128.33008,38.9 Z m 80.44336,50.435547 c 0.18105,0.374521 0.35388,0.716871 0.54102,1.11914 a 89.400002,89.400002 0 0 0 -0.54102,-1.11914 z M 47.417972,90.413672 a 89.400002,89.400002 0 0 0 -0.85937,1.957031 c 0.28693,-0.654312 0.56924,-1.335473 0.85937,-1.957031 z m 162.587898,1.599609 c 3.38129,7.646007 7.29275,19.386139 7.625,34.087889 0.024,0.96004 0.0352,2.08642 0.0195,3.33009 a 89.400002,89.400002 0 0 0 0.0801,-1.13087 89.400002,89.400002 0 0 0 -7.7246,-36.287109 z M 43.169932,101.4547 a 89.400002,89.400002 0 0 0 -0.88086,2.86522 c 0.27423,-0.99285 0.58346,-1.91706 0.88086,-2.86522 z m -2.94336,12.34569 a 89.400002,89.400002 0 0 0 -0.58789,4.58399 c 0.06905,-0.63119 0.10763,-1.2463 0.1914,-1.88477 0.11774,-0.91513 0.25401,-1.81059 0.39649,-2.69922 z m -1.07813,11.43164 a 89.400002,89.400002 0 0 0 -0.21875,3.06836 89.400002,89.400002 0 0 0 0.21094,2.94727 c -0.07037,-1.95183 -0.05703,-3.96698 0.0078,-6.01563 z m 0.41993,12 a 89.400002,89.400002 0 0 0 1.08984,7.55664 c -0.45515,-2.39592 -0.81726,-4.92971 -1.08984,-7.55664 z m 177.355458,2.34571 c -0.13291,1.04804 -0.3214,2.16881 -0.5039,3.2832 a 89.400002,89.400002 0 0 0 0.5039,-3.2832 z m -175.292958,9.68359 a 89.400002,89.400002 0 0 0 2.40039,8.19531 c -0.85747,-2.49595 -1.67949,-5.22213 -2.40039,-8.19531 z m 172.730458,3.07227 c -0.18188,0.65608 -0.35672,1.30673 -0.55859,1.9746 a 89.400002,89.400002 0 0 0 0.55859,-1.9746 z m -169.093748,8.4336 a 89.400002,89.400002 0 0 0 3.29688,7.51758 c -1.00288,-1.9973 -2.14064,-4.54147 -3.29688,-7.51758 z m 164.591798,4.11522 c -0.19686,0.44024 -0.42221,0.8875 -0.62891,1.33009 a 89.400002,89.400002 0 0 0 0.62891,-1.33009 z m -158.427728,8.65625 a 89.400002,89.400002 0 0 0 4.125,6.34766 c -1.72637,-2.44025 -3.09084,-4.5811 -4.125,-6.34766 z m 152.533198,2.31641 c -0.33145,0.52616 -0.7249,1.11165 -1.10547,1.6875 a 89.400002,89.400002 0 0 0 1.10547,-1.6875 z m -145.652338,7.71289 a 89.400002,89.400002 0 0 0 4.57226,5.39649 c -1.71743,-1.8579 -3.19943,-3.65315 -4.57226,-5.39649 z m 138.015618,2.69922 c -0.3417,0.40187 -0.71907,0.81507 -1.07812,1.22266 a 89.400002,89.400002 0 0 0 1.07812,-1.22266 z m -128.447258,7.69336 a 89.400002,89.400002 0 0 0 4.24218,3.6543 c -1.48898,-1.20975 -2.91529,-2.42922 -4.24218,-3.6543 z m 119.365228,1.5332 c -0.22853,0.20176 -0.45067,0.40406 -0.68359,0.60547 a 89.400002,89.400002 0 0 0 0.68359,-0.60547 z m -109.615228,6.24414 a 89.400002,89.400002 0 0 0 4.90039,3.1543 c -1.71334,-1.02038 -3.33803,-2.07665 -4.90039,-3.1543 z m 99.148428,1.6836 c -0.0726,0.0469 -0.14389,0.0938 -0.21679,0.14062 a 89.400002,89.400002 0 0 0 0.21679,-0.14062 z m -88.414058,4.65625 a 89.400002,89.400002 0 0 0 7.65625,3.3457 c -2.94367,-1.13921 -5.54184,-2.29743 -7.65625,-3.3457 z m 77.199218,1.49023 c -0.0719,0.0329 -0.143,0.065 -0.21484,0.0977 a 89.400002,89.400002 0 0 0 0.21484,-0.0977 z m -67.947268,2.45117 a 89.400002,89.400002 0 0 0 9.996098,3.03321 c -3.67424,-0.88721 -7.00307,-1.93794 -9.996098,-3.03321 z m 56.277348,1.91992 c -0.22757,0.0672 -0.45907,0.14214 -0.68555,0.20704 a 89.400002,89.400002 0 0 0 0.68555,-0.20704 z m -42.08594,2.0254 a 89.400002,89.400002 0 0 0 7.17187,1.06835 c -2.48866,-0.26892 -4.88335,-0.62988 -7.17187,-1.06835 z m 30.75781,0.49804 c -0.77937,0.12321 -1.59864,0.28907 -2.35351,0.38867 a 89.400002,89.400002 0 0 0 2.35351,-0.38867 z m -15.51172,1.14649 a 89.400002,89.400002 0 0 0 1.27539,0.0918 89.400002,89.400002 0 0 0 0.95118,-0.0684 c -0.80087,0.009 -1.49105,-0.013 -2.22657,-0.0234 z" /><path
   d="m 93.482277,147.28828 -39.82,-68.299999 -0.58,1 39.54,67.799999 z"
   class="C D"
   id="path20"
   style="fill:#3e2723;fill-opacity:0.15" /><path
   id="rect2956"
   style="fill:url(#linearGradient4626);fill-opacity:1"
   d="m 53.100012,80.000388 57.249998,57.240002 -17.779998,10.41 z"
   sodipodi:nodetypes="cccc" /><path
   class="st3"
   d="M 168.70001,143.40039 H 90.100012 c -12.3,-21.1 -24.7,-42.2 -37,-63.4 -4.4,6.9 -11.1,19.4 -13.3,36.5 -3.7,28.20001 7.2,49.4 10.7,55.50001 3.7,6.59999 13.4,22 32.5,33.2 4.8,2.8 18.999998,10.59999 38.699998,12.09999 4.8,0.40001 8.9,0.3 11.8,0.1 -1,-1.69999 -2,-3.5 -3.1,-5.19999 12.8,-3 25.6,-5.90001 38.4,-8.90001 v -59.9 z"
   id="path14" /><path
   class="st3"
   d="M 168.70001,143.40039 H 90.100012 c -12.3,-21.1 -24.7,-42.2 -37,-63.400002 -4.4,6.9 -11.1,19.400002 -13.3,36.500002 -3.7,28.2 7.2,49.4 10.7,55.5 3.7,6.6 13.4,22 32.5,33.20001 4.8,2.8 18.999998,10.59999 38.699998,12.09999 4.8,0.40001 8.9,0.3 11.8,0.1 -1,-1.69999 -2,-3.5 -3.1,-5.19999 12.8,-3 25.6,-5.90001 38.4,-8.90001 v -59.9 z"
   id="path14-5"
   style="fill:url(#linearGradient3756);fill-opacity:1" /><path
   class="st4"
   d="m 217.60001,126.10039 c -0.4,-17.7 -6,-31.2 -9.6,-38.3 -26.2,0 -52.5,0 -78.7,0 0,20 0,40 0,60 h 34.7 c -14.1,23.2 -28.2,46.40001 -42.4,69.6 8.2,0.6 25.9,0.80001 45.2,-8.4 24,-11.4 35.6,-30.2 39.4,-36.9 11,-19.6 11.6,-38 11.4,-46 z"
   id="path16" /><path
   class="st4"
   d="m 217.60001,126.10039 c -0.4,-17.7 -6,-31.2 -9.6,-38.3 -26.2,0 -52.5,0 -78.7,0 0,20 0,40 0,60 h 34.7 c -14.1,23.19999 -28.2,46.39999 -42.4,69.6 8.2,0.59999 25.9,0.80001 45.2,-8.40001 24,-11.39999 35.6,-30.19998 39.4,-36.89999 11,-19.60001 11.6,-38 11.4,-46 z"
   id="path16-2"
   style="fill:url(#linearGradient4308);fill-opacity:1" />
<path
   id="rect1313"
   style="fill:url(#linearGradient1433);fill-opacity:1;stroke-width:1.00175"
   d="m 129.30001,87.80039 h 78.40001 l -78.40001,20.95 z"
   sodipodi:nodetypes="cccc" /><path
   id="rect2008"
   style="fill:url(#linearGradient2431);fill-opacity:1"
   d="m 146.16001,137.56039 17.84,10.24 c 0.02,0.04 -43.66001,69.67 -42.4,69.6 z"
   sodipodi:nodetypes="cccc" /><path
   id="path109"
   style="fill:#3e2723;fill-opacity:0.2;stroke-width:1.02439"
   class="C E"
   d="m 125.82469,86.776 c -22.63902,0 -38.155546,20.29495 -38.155546,42.93399 v 1.0244 c -0.391677,-19.97563 17.004886,-42.934 38.155546,-42.934 h 82.17532 c -0.16926,-0.342533 -0.34067,-0.684003 -0.51421,-1.02439 z"
   sodipodi:nodetypes="sscsccs" /><path
   d="m 129.02305,87.911173 c -0.1717,0 -0.3333,0.0202 -0.505,0.0303 22.0786,0.2727 39.895,18.230497 39.895,40.369697 0,22.1392 -17.8164,40.097 -39.895,40.3697 0.1717,0 0.3333,0.0303 0.505,0.0303 22.321,0 40.4,-18.079 40.4,-40.4 0,-22.321 -18.079,-40.399997 -40.4,-40.399997 z"
   opacity="0.1"
   class="C"
   id="path113"
   style="fill:#3e2723;stroke-width:1.01" /><path
   d="m 164.35001,149.12039 c 3.4,-5.88 4.5134,-13.43007 4.5134,-20.71007 0.002,-4.1022 -0.62841,-8.1802 -1.87,-12.09 0.95,3.42 1.5,7 1.5,10.73 0,7.28 -1.1134,14.83007 -4.5134,20.71008 l 0.02,0.04 -42.4,69.6 h 1.16 z"
   fill="#ffffff"
   class="E"
   id="path115-3"
   style="fill-opacity:0.2"
   sodipodi:nodetypes="cccsccccc" /><path
   id="path111-6"
   d="m 53.082277,79.988281 a 90.205624,90.205624 0 0 0 -0.279843,0.512388 l 40.125941,68.768461 c 6.982353,12.0476 19.978025,20.18023 34.911395,20.18023 14.93337,0 27.92905,-8.12254 34.91141,-20.18023 h 0.0513 v -1.009 h -0.0513 c -6.98236,12.04759 -19.97804,20.18022 -34.91141,20.18022 -14.93337,0 -27.949218,-8.13263 -34.911395,-20.18022 h -0.03941 z"
   style="fill:#ffffff;fill-opacity:0.101961;stroke-width:1.00901" /><circle
   class="st1"
   cx="128.3"
   cy="128.30038"
   r="40.400002"
   id="circle18" /><circle
   class="st5"
   cx="128.3"
   cy="128.30038"
   r="32.5"
   id="circle20" /><path
   d="m 128.29547,39.915857 c 49.19796,0 89.11099,39.750487 89.39543,88.887493 0,-0.1727 0.0101,-0.33524 0.0101,-0.50792 C 217.701,78.924769 177.67624,38.9 128.30558,38.9 c -49.370643,0 -89.40557,40.024769 -89.40557,89.39543 0,0.17268 0.01016,0.33522 0.01016,0.50792 0.274281,-49.137006 40.187306,-88.887493 89.38525,-88.887493 z"
   fill="#ffffff"
   class="E"
   id="path117"
   style="fill-opacity:0.2;stroke-width:1.01586" /><path
   d="m 128.29547,216.78749 c 49.19797,0 89.111,-39.75048 89.39544,-88.88749 0,0.17269 0.0101,0.33523 0.0101,0.50793 0,49.37066 -40.02476,89.39542 -89.39543,89.39542 -49.370643,0 -89.40557,-40.02476 -89.40557,-89.39542 0,-0.1727 0.01016,-0.33524 0.01016,-0.50793 0.274281,49.13701 40.187306,88.88749 89.38525,88.88749 z"
   fill="#ffffff"
   class="E"
   id="path117-2"
   style="fill:#3e2723;fill-opacity:0.14902;stroke-width:1.01586" /></svg>
