<?xml version="1.0" encoding="UTF-8" standalone="no"?>
<!-- Generator: Adobe Illustrator 23.0.0, SVG Export Plug-In . SVG Version: 6.00 Build 0)  -->

<svg
   version="1.1"
   id="레이어_1"
   x="0px"
   y="0px"
   viewBox="0 0 256 256"
   style="enable-background:new 0 0 256 256;"
   xml:space="preserve"
   sodipodi:docname="web-google-drive.svg"
   inkscape:version="1.1 (c4e8f9ed74, 2021-05-24)"
   xmlns:inkscape="http://www.inkscape.org/namespaces/inkscape"
   xmlns:sodipodi="http://sodipodi.sourceforge.net/DTD/sodipodi-0.dtd"
   xmlns="http://www.w3.org/2000/svg"
   xmlns:svg="http://www.w3.org/2000/svg"><defs
   id="defs29" /><sodipodi:namedview
   id="namedview27"
   pagecolor="#ffffff"
   bordercolor="#666666"
   borderopacity="1.0"
   inkscape:pageshadow="2"
   inkscape:pageopacity="0.0"
   inkscape:pagecheckerboard="0"
   showgrid="false"
   inkscape:zoom="2.4609375"
   inkscape:cx="128"
   inkscape:cy="128"
   inkscape:window-width="1920"
   inkscape:window-height="1009"
   inkscape:window-x="0"
   inkscape:window-y="0"
   inkscape:window-maximized="1"
   inkscape:current-layer="레이어_1" />
<style
   type="text/css"
   id="style2">
	.st0{opacity:0.1;}
	.st1{fill:#FAFAFA;}
	.st2{fill:#A2A2A2;}
	.st3{fill:#2684FC;}
	.st4{fill:#FFBA00;}
	.st5{fill:#EA4335;}
	.st6{fill:#00AC47;}
	.st7{fill:#0066DA;}
	.st8{fill:#00832D;}
</style>
<g
   class="st0"
   id="g8">
	<g
   id="g6">
		<path
   d="M132.7,0.5c6.2,0,18.1,0.3,33.3,2.3c23.7,3.1,45.1,11.5,60.9,26.3h0C241.6,44.8,250,66.3,253.2,90c3,22.6,2.3,38,2.3,38    s0.7,15.4-2.3,38c-3.1,23.7-11.5,45.1-26.3,60.9l0,0c-15.7,14.8-37.2,23.2-60.9,26.3c-15.1,2-27.1,2.3-33.3,2.3    c-3.1,0-4.7-0.1-4.7-0.1s-1.7,0.1-4.7,0.1c-6.2,0-18.1-0.3-33.3-2.3c-23.7-3.1-45.1-11.5-60.9-26.3l0,0    C14.4,211.2,6,189.7,2.8,166c-3-22.6-2.3-38-2.3-38s-0.7-15.4,2.3-38C6,66.3,14.4,44.8,29.1,29.1h0C44.9,14.3,66.3,5.9,90,2.8    c15.2-2,27.1-2.3,33.3-2.3c3.1,0,4.7,0.1,4.7,0.1S129.7,0.5,132.7,0.5"
   id="path4" />
	</g>
</g>
<path
   class="st1"
   d="M251.7,90.4c-3.1-23.4-11.4-44.6-26-60.1l0,0c-15.6-14.6-36.7-22.9-60.1-26C143.2,1.3,128,2,128,2  s-15.2-0.7-37.6,2.3C67,7.4,45.8,15.7,30.3,30.3C15.7,45.8,7.5,67,4.3,90.4c-3,22.3-2.2,37.6-2.2,37.6s-0.7,15.2,2.2,37.6  c3.1,23.4,11.4,44.6,26,60.1l0,0c15.6,14.6,36.7,22.9,60.1,26c22.3,3,37.6,2.2,37.6,2.2s15.2,0.7,37.6-2.2  c23.4-3.1,44.6-11.4,60.1-26l0,0c14.6-15.6,22.9-36.7,26-60.1c3-22.3,2.2-37.6,2.2-37.6S254.7,112.8,251.7,90.4"
   id="path10" />
<path
   class="st2"
   d="M 218,156.55074"
   id="path12"
   style="stroke-width:1.19523" />
<path
   class="st3"
   d="m 38.356571,155.59456 c -0.478093,2.15141 -0.358569,4.42236 0.71714,6.57377 5.139499,10.279 10.398522,20.43848 15.538021,30.71748 4.661406,9.20329 13.506126,14.9404 23.067985,14.9404 h 96.933353 c 11.47423,0 21.99227,-6.81282 27.60986,-17.92848 4.18332,-8.00806 8.48615,-16.13564 12.66947,-24.1437 0.47809,-1.19523 1.07571,-2.74903 1.43428,-4.54188 0.47809,-2.15142 0.71714,-4.06379 0.71714,-5.61759 -59.52258,0 -119.045152,0 -178.687249,0 z"
   id="path14"
   style="stroke-width:1.19523" />
<path
   class="st4"
   d="m 188.83633,204.24051 c 1.91237,-1.07571 4.42236,-2.74903 7.1714,-5.37854 2.50998,-2.50999 4.06379,-4.78093 5.49807,-7.1714 6.09568,-9.8009 9.08376,-14.70135 11.8328,-21.15561 2.15141,-5.1395 3.22712,-7.88853 3.58569,-11.59375 0.59762,-5.6176 -0.47809,-10.279 -1.43428,-13.14756 -15.77706,-26.65368 -31.55413,-53.307359 -47.45072,-79.961046 -1.19523,-2.629512 -3.94427,-8.127581 -9.92043,-12.430417 -4.30284,-3.107604 -8.60567,-4.42236 -11.23519,-5.019976 -13.50612,0.119523 -26.89272,0.119523 -40.39885,0.239046 -2.50999,0.119523 -4.54188,1.195233 -6.09569,2.629511 29.52224,50.916902 58.92496,101.953322 88.4472,152.989742 z"
   id="path16"
   style="stroke-width:1.19523" />
<path
   class="st5"
   d="m 188.83633,204.24051 c 1.79285,-1.07571 4.42236,-2.74903 7.1714,-5.37854 2.86855,-2.86856 4.54188,-5.49807 5.49807,-7.1714 5.61759,-9.44233 11.23518,-20.0799 12.66946,-22.70941 0.83666,-2.0319 1.79285,-4.66141 2.39046,-7.64949 0.35857,-2.03189 0.59762,-3.94427 0.71714,-5.61759 -18.76515,0 -37.64982,0 -56.41497,0 9.20329,16.13564 18.64563,32.27127 27.96844,48.52643 z"
   id="path18"
   style="stroke-width:1.19523" />
<path
   class="st6"
   d="m 65.846916,204.71861 c -2.270941,-1.43428 -5.498069,-3.82475 -8.48615,-7.64949 -3.107604,-3.82474 -4.661406,-7.52996 -5.617592,-10.03995 -3.466174,-6.81283 -6.932348,-13.50613 -10.278999,-20.31895 -1.075709,-1.43428 -2.629511,-4.06379 -3.227127,-7.52997 -0.956186,-5.61759 1.195232,-10.39852 2.629511,-13.26708 4.302837,-8.36662 24.860834,-42.78932 53.785459,-89.164333 0.83666,-1.314755 3.22713,-4.661406 7.529962,-6.812824 4.18332,-2.031895 8.36663,-1.912372 11.23519,-1.553802 9.92043,0 19.84086,0 29.76128,0 2.15142,-0.119524 5.37855,0 8.96425,1.314755 1.43428,0.478093 2.62951,1.195233 3.70522,1.792849 C 125.72806,102.64576 95.847248,153.68218 65.846916,204.71861 Z"
   id="path20"
   style="stroke-width:1.19523" />
<path
   class="st7"
   d="m 94.652018,155.35551 c -18.76515,0 -37.530298,0 -56.295447,0 -0.239046,0.95618 -0.358569,2.03189 -0.239046,3.1076 0,0.11953 0,0.35857 0,0.4781 0,0 0,0 0,0 0.119523,0.59761 0.239046,1.19523 0.478093,1.79284 0.119523,0.4781 0.358569,0.83667 0.478093,1.19524 5.139499,10.279 10.398522,20.43847 15.538021,30.71747 0.717139,1.5538 1.673325,2.86856 2.629511,4.18331 0,0 0,0 0,0 2.988081,3.82475 6.334732,6.21521 8.48615,7.64949 9.681382,-16.37468 19.243245,-32.74937 28.924625,-49.12405 z"
   id="path22"
   style="stroke-width:1.19523" />
<path
   class="st8"
   d="m 148.19843,48.501734 c -5.1395,-0.119523 -19.12372,-0.239047 -37.5303,-0.119523 0,0 0,0 0,0 -0.59761,0 -1.07571,0 -1.67332,0 -1.79285,0 -4.06379,0.239046 -6.45426,1.314755 -0.59761,0.35857 -1.31475,0.836663 -1.79285,1.314756 9.20329,15.896591 18.28706,31.793182 27.49035,47.570249 9.20329,-15.657544 18.40658,-31.434612 27.60987,-47.092156 -2.98808,-1.553802 -5.61759,-2.509988 -7.64949,-2.988081 z"
   id="path24"
   style="stroke-width:1.19523" />
</svg>
