<?xml version="1.0" encoding="UTF-8" standalone="no"?>
<!-- Generator: Adobe Illustrator 23.0.0, SVG Export Plug-In . SVG Version: 6.00 Build 0)  -->

<svg
   version="1.1"
   id="레이어_1"
   x="0px"
   y="0px"
   viewBox="0 0 256 256"
   style="enable-background:new 0 0 256 256;"
   xml:space="preserve"
   sodipodi:docname="hwinfo.svg"
   inkscape:version="1.1 (c4e8f9ed74, 2021-05-24)"
   xmlns:inkscape="http://www.inkscape.org/namespaces/inkscape"
   xmlns:sodipodi="http://sodipodi.sourceforge.net/DTD/sodipodi-0.dtd"
   xmlns="http://www.w3.org/2000/svg"
   xmlns:svg="http://www.w3.org/2000/svg"
   xmlns:rdf="http://www.w3.org/1999/02/22-rdf-syntax-ns#"
   xmlns:cc="http://creativecommons.org/ns#"
   xmlns:dc="http://purl.org/dc/elements/1.1/"><metadata
   id="metadata15"><rdf:RDF><cc:Work
       rdf:about=""><dc:format>image/svg+xml</dc:format><dc:type
         rdf:resource="http://purl.org/dc/dcmitype/StillImage" /></cc:Work></rdf:RDF></metadata><defs
   id="defs13" /><sodipodi:namedview
   pagecolor="#ffffff"
   bordercolor="#666666"
   borderopacity="1"
   objecttolerance="10"
   gridtolerance="10"
   guidetolerance="10"
   inkscape:pageopacity="0"
   inkscape:pageshadow="2"
   inkscape:window-width="1920"
   inkscape:window-height="1009"
   id="namedview11"
   showgrid="false"
   inkscape:zoom="2.6074562"
   inkscape:cx="136.14802"
   inkscape:cy="121.19091"
   inkscape:window-x="0"
   inkscape:window-y="0"
   inkscape:window-maximized="1"
   inkscape:current-layer="레이어_1"
   inkscape:pagecheckerboard="0" />
<style
   type="text/css"
   id="style2">
	.st0{fill:#999999;}
	.st1{fill:#FFFFFF;}
</style>
<path
   class="st0"
   d="M251.7,90.4c-3.1-23.4-11.4-44.6-26-60.1l0,0c-15.6-14.6-36.7-22.9-60.1-26C143.2,1.3,128,2,128,2  s-15.2-0.7-37.6,2.3C67,7.4,45.8,15.7,30.3,30.3C15.7,45.8,7.5,67,4.3,90.4c-3,22.3-2.2,37.6-2.2,37.6s-0.7,15.2,2.2,37.6  c3.1,23.4,11.4,44.6,26,60.1l0,0c15.6,14.6,36.7,22.9,60.1,26c22.3,3,37.6,2.2,37.6,2.2s15.2,0.7,37.6-2.2  c23.4-3.1,44.6-11.4,60.1-26l0,0c14.6-15.6,22.9-36.7,26-60.1c3-22.3,2.2-37.6,2.2-37.6S254.7,112.8,251.7,90.4"
   id="path4"
   style="fill:#339999;fill-opacity:1" />


<path
   id="rect816-3"
   style="opacity:1;fill:#ffffff;fill-opacity:1;stroke-width:0.316108"
   d="M 96.652344 48.203125 L 96.652344 74.869141 L 88.748047 74.869141 C 80.815923 74.869141 74.429687 81.255374 74.429688 89.1875 L 74.429688 95.314453 L 47.763672 95.314453 L 47.763672 113.0918 L 74.429688 113.0918 L 74.429688 139.75781 L 47.763672 139.75781 L 47.763672 157.53711 L 74.429688 157.53711 L 74.429688 167.21875 C 74.429688 175.15087 80.815923 181.53711 88.748047 181.53711 L 96.652344 181.53711 L 96.652344 208.20312 L 114.42969 208.20312 L 114.42969 181.53711 L 141.09766 181.53711 L 141.09766 208.20312 L 158.875 208.20312 L 158.875 181.53711 L 166.77734 181.53711 C 174.70947 181.53712 181.09766 175.15087 181.09766 167.21875 L 181.09766 157.53711 L 207.76367 157.53711 L 207.76367 139.75781 L 181.09766 139.75781 L 181.09766 113.0918 L 207.76367 113.0918 L 207.76367 95.314453 L 181.09766 95.314453 L 181.09766 89.1875 C 181.09766 81.255374 174.70947 74.869141 166.77734 74.869141 L 158.875 74.869141 L 158.875 48.203125 L 141.09766 48.203125 L 141.09766 74.869141 L 114.42969 74.869141 L 114.42969 48.203125 L 96.652344 48.203125 z M 127 94 A 7 7.0000029 0 0 1 134 101 A 7 7.0000029 0 0 1 127 108 A 7 7.0000029 0 0 1 120 101 A 7 7.0000029 0 0 1 127 94 z M 108 116.40039 L 120 116.40039 L 128 116.40039 L 134 116.40039 L 134 166.40039 L 120 166.40039 L 120 128.40039 L 108 128.40039 L 108 116.40039 z " /><rect
   style="fill:#256c6c;fill-opacity:1"
   id="rect1405"
   width="17.777779"
   height="26.666668"
   x="96.652557"
   y="48.203121" /><rect
   style="fill:#256c6c;fill-opacity:1"
   id="rect1405-6"
   width="17.777779"
   height="26.666668"
   x="141.097"
   y="48.203121" /><rect
   style="fill:#256c6c;fill-opacity:1"
   id="rect1405-7"
   width="17.777779"
   height="26.666668"
   x="96.65255"
   y="181.53645" /><rect
   style="fill:#256c6c;fill-opacity:1"
   id="rect1405-6-5"
   width="17.777779"
   height="26.666668"
   x="141.097"
   y="181.53645" /><rect
   style="fill:#256c6c;fill-opacity:1"
   id="rect1405-7-3"
   width="17.777779"
   height="26.666668"
   x="95.314232"
   y="-74.430336"
   transform="rotate(90)" /><rect
   style="fill:#256c6c;fill-opacity:1"
   id="rect1405-6-5-5"
   width="17.777779"
   height="26.666668"
   x="139.75867"
   y="-74.430344"
   transform="rotate(90)" /><rect
   style="fill:#256c6c;fill-opacity:1"
   id="rect1405-7-3-6"
   width="17.777779"
   height="26.666668"
   x="95.314232"
   y="-207.76367"
   transform="rotate(90)" /><rect
   style="fill:#256c6c;fill-opacity:1"
   id="rect1405-6-5-5-2"
   width="17.777779"
   height="26.666668"
   x="139.75865"
   y="-207.76367"
   transform="rotate(90)" /></svg>
