<?xml version="1.0" encoding="UTF-8" standalone="no"?>
<!-- Generator: Adobe Illustrator 23.0.0, SVG Export Plug-In . SVG Version: 6.00 Build 0)  -->

<svg
   version="1.1"
   id="레이어_1"
   x="0px"
   y="0px"
   viewBox="0 0 256 256"
   style="enable-background:new 0 0 256 256;"
   xml:space="preserve"
   sodipodi:docname="ibus-anthy.svg"
   inkscape:version="1.1.1 (3bf5ae0d25, 2021-09-20)"
   xmlns:inkscape="http://www.inkscape.org/namespaces/inkscape"
   xmlns:sodipodi="http://sodipodi.sourceforge.net/DTD/sodipodi-0.dtd"
   xmlns="http://www.w3.org/2000/svg"
   xmlns:svg="http://www.w3.org/2000/svg"><defs
   id="defs17">
	

		
	</defs><sodipodi:namedview
   id="namedview15"
   pagecolor="#ffffff"
   bordercolor="#666666"
   borderopacity="1.0"
   inkscape:pageshadow="2"
   inkscape:pageopacity="0.0"
   inkscape:pagecheckerboard="0"
   showgrid="false"
   inkscape:zoom="1.6152344"
   inkscape:cx="163.44377"
   inkscape:cy="98.128173"
   inkscape:window-width="1920"
   inkscape:window-height="1005"
   inkscape:window-x="0"
   inkscape:window-y="0"
   inkscape:window-maximized="1"
   inkscape:current-layer="레이어_1" />
<style
   type="text/css"
   id="style2">
	.st0{opacity:0.1;}
	.st1{fill:#0091B1;}
	.st2{fill:#FFFFFF;}
</style>
<path
   d="m 132.7,0.5 c 6.2,0 18.1,0.3 33.3,2.3 23.7,3.1 45.1,11.5 60.9,26.3 v 0 c 14.7,15.7 23.1,37.2 26.3,60.9 3,22.6 2.3,38 2.3,38 0,0 0.7,15.4 -2.3,38 -3.1,23.7 -11.5,45.1 -26.3,60.9 v 0 c -15.7,14.8 -37.2,23.2 -60.9,26.3 -15.1,2 -27.1,2.3 -33.3,2.3 -3.1,0 -4.7,-0.1 -4.7,-0.1 0,0 -1.7,0.1 -4.7,0.1 -6.2,0 -18.1,-0.3 -33.3,-2.3 -23.7,-3.1 -45.1,-11.5 -60.9,-26.3 v 0 C 14.4,211.2 6,189.7 2.8,166 -0.2,143.4 0.5,128 0.5,128 0.5,128 -0.2,112.6 2.8,90 6,66.3 14.4,44.8 29.1,29.1 v 0 C 44.9,14.3 66.3,5.9 90,2.8 c 15.2,-2 27.1,-2.3 33.3,-2.3 3.1,0 4.7,0.1 4.7,0.1 0,0 1.7,-0.1 4.7,-0.1"
   id="path4"
   style="opacity:0.1;fill:#000000" />
<path
   class="st1"
   d="M251.7,90.4c-3.1-23.4-11.4-44.6-26-60.1l0,0c-15.6-14.6-36.7-22.9-60.1-26C143.2,1.3,128,2,128,2  s-15.2-0.7-37.6,2.3C67,7.4,45.8,15.7,30.3,30.3C15.7,45.8,7.5,67,4.3,90.4c-3,22.3-2.2,37.6-2.2,37.6s-0.7,15.2,2.2,37.6  c3.1,23.4,11.4,44.6,26,60.1l0,0c15.6,14.6,36.7,22.9,60.1,26c22.3,3,37.6,2.2,37.6,2.2s15.2,0.7,37.6-2.2  c23.4-3.1,44.6-11.4,60.1-26l0,0c14.6-15.6,22.9-36.7,26-60.1c3-22.3,2.2-37.6,2.2-37.6S254.7,112.8,251.7,90.4L251.7,90.4z"
   id="path10" />
<path
   class="st2"
   d="M182.7,75.6H73.3c-8.5,0-15.3,6.9-15.3,15.3v74.3c0,8.5,6.9,15.3,15.3,15.3h109.4c8.5,0,15.3-6.9,15.3-15.3  V90.9C198,82.4,191.1,75.6,182.7,75.6z M129.6,95.4c4.4,0,7.9,3.5,7.9,7.9s-3.5,7.9-7.9,7.9s-7.9-3.5-7.9-7.9S125.2,95.4,129.6,95.4  z M129.6,120.7c4.4,0,7.9,3.5,7.9,7.9s-3.5,7.9-7.9,7.9s-7.9-3.5-7.9-7.9S125.2,120.7,129.6,120.7z M106.1,95.4  c4.4,0,7.9,3.5,7.9,7.9s-3.5,7.9-7.9,7.9s-7.9-3.5-7.9-7.9S101.7,95.4,106.1,95.4z M83.6,136.5c-4.4,0-7.9-3.5-7.9-7.9  s3.5-7.9,7.9-7.9s7.9,3.5,7.9,7.9S88,136.5,83.6,136.5z M83.6,111.3c-4.4,0-7.9-3.5-7.9-7.9s3.5-7.9,7.9-7.9s7.9,3.5,7.9,7.9  S88,111.3,83.6,111.3z M98.2,128.6c0-4.4,3.5-7.9,7.9-7.9s7.9,3.5,7.9,7.9s-3.5,7.9-7.9,7.9S98.2,133,98.2,128.6z M154.6,164.8  h-53.7v-16.6h53.7V164.8z M150.7,136.5c-4.4,0-7.9-3.5-7.9-7.9s3.5-7.9,7.9-7.9s7.9,3.5,7.9,7.9S155.1,136.5,150.7,136.5z   M150.7,111.3c-4.4,0-7.9-3.5-7.9-7.9s3.5-7.9,7.9-7.9s7.9,3.5,7.9,7.9S155.1,111.3,150.7,111.3z M172.7,136.5  c-4.4,0-7.9-3.5-7.9-7.9s3.5-7.9,7.9-7.9s7.9,3.5,7.9,7.9S177.1,136.5,172.7,136.5z M172.7,111.3c-4.4,0-7.9-3.5-7.9-7.9  s3.5-7.9,7.9-7.9s7.9,3.5,7.9,7.9S177.1,111.3,172.7,111.3z"
   id="path12" />
<rect
   style="fill:#005e72;fill-opacity:1"
   id="rect856"
   width="53.700001"
   height="16.6"
   x="100.9"
   y="148.2" /><path
   class="st1"
   d="m 250.65731,189.72303 c -1.18098,-8.91451 -4.34297,-16.9909 -9.90503,-22.89582 v 0 c -5.943,-5.56204 -13.9813,-8.72403 -22.89582,-9.90501 -8.53354,-1.14289 -14.32417,-0.87621 -14.32417,-0.87621 0,0 -5.79062,-0.26668 -14.32418,0.87621 -8.91451,1.18098 -16.9909,4.34297 -22.89582,9.90501 -5.56204,5.90492 -8.68593,13.98131 -9.90501,22.89582 -1.14288,8.49546 -0.83812,14.32417 -0.83812,14.32417 0,0 -0.26667,5.79063 0.83812,14.32419 1.18098,8.9145 4.34297,16.99091 9.90501,22.89582 v 0 c 5.94302,5.56205 13.98131,8.72403 22.89582,9.90501 8.49546,1.14288 14.32418,0.83811 14.32418,0.83811 0,0 5.79063,0.26669 14.32417,-0.83811 8.91452,-1.18098 16.99092,-4.34296 22.89582,-9.90501 v 0 c 5.56206,-5.94301 8.72405,-13.98132 9.90503,-22.89582 1.14288,-8.49546 0.83811,-14.32419 0.83811,-14.32419 0,0 0.30477,-5.79061 -0.83811,-14.32417 z"
   id="path10-3"
   style="fill:#006277;fill-opacity:1;stroke-width:0.380962" /><path
   d="m 211.99609,199.82273 h -1.23958 q -3.57292,0 -6.78126,0.72917 -3.13542,0.65625 -5.76042,1.60416 0,1.45834 0,2.91667 0,7 1.3125,13.41667 7.43751,-6.63542 12.46876,-18.66667 z m -18.95834,5.90625 v -1.23958 q -5.54167,3.20833 -9.11459,8.09375 -3.5,4.8125 -3.5,9.33334 0,4.44792 4.15625,4.44792 4.22917,0 10.13542,-3.86459 -1.67708,-8.45834 -1.67708,-16.77084 z m 25.95834,-9.98959 -0.0729,0.29167 q 7,1.96875 10.86459,6.70834 3.9375,4.66667 3.9375,10.79167 0,5.32292 -2.47917,9.98959 -2.47917,4.59375 -7.80209,7.875 -5.32292,3.28125 -13.92709,4.66667 l -3.20833,-5.03125 q 10.0625,-1.09375 15.75,-5.83334 5.76042,-4.8125 5.76042,-11.95834 0,-4.22917 -2.69791,-7.65625 -2.69792,-3.42709 -7.94792,-4.88542 -6.56251,15.82292 -16.33335,23.84376 0.87501,3.13542 1.82292,5.97917 l -5.46875,1.67708 q -0.14583,-0.58333 -0.36458,-1.23958 -0.4375,-1.3125 -0.80209,-2.84375 -6.48958,4.01042 -12.39584,4.01042 -3.79167,0 -6.34375,-2.26042 -2.47917,-2.33334 -2.47917,-7.07292 0,-7.07292 5.25,-13.63542 5.32292,-6.63542 13.19793,-10.28126 0.21875,-4.59375 0.65625,-9.04167 0.0729,-0.94792 0.14583,-1.82292 -2.33333,0.0729 -4.52083,0.0729 -2.18751,0 -5.54167,-0.14583 -3.35417,-0.14584 -5.83334,-0.29167 -0.21875,0 -0.51042,0 l -0.14583,-5.61459 q 2.11458,0.29167 5.97917,0.58334 3.86458,0.29166 6.125,0.29166 2.47917,0 4.95834,-0.0729 0.14583,-1.3125 0.29167,-2.55209 0.14583,-1.67708 0.29166,-3.13542 0.14584,-0.875 0.14584,-1.82291 0.0729,-1.02084 0.0729,-1.67709 l 6.27084,0.14584 q -0.51042,1.53125 -0.80209,3.0625 -0.0729,0.14583 -0.0729,0.21875 -0.4375,2.33333 -0.875,5.61458 14.21875,-0.58333 25.88543,-3.13541 l 0.0729,5.61458 q -12.39584,1.89584 -26.61459,2.69792 -0.51042,4.30208 -0.80209,9.11459 6.85417,-1.96875 12.39584,-1.96875 1.38542,0 2.69792,0.0729 l 0.21875,-0.65625 q 0.21875,-0.94791 0.4375,-2.11458 0.21875,-1.16667 0.29167,-2.1875 l 5.97917,1.53125 q -0.36459,0.875 -0.80209,2.33333 -0.36458,1.02084 -0.65625,1.75 z"
   style="font-size:74.6667px;line-height:1.25;font-family:SamsungOneUI;-inkscape-font-specification:SamsungOneUI;fill:#ffffff"
   id="path19037" /></svg>
