<?xml version="1.0" encoding="UTF-8" standalone="no"?>
<!-- Generator: Adobe Illustrator 23.0.0, SVG Export Plug-In . SVG Version: 6.00 Build 0)  -->

<svg
   version="1.1"
   id="레이어_1"
   x="0px"
   y="0px"
   viewBox="0 0 256 256"
   style="enable-background:new 0 0 256 256;"
   xml:space="preserve"
   sodipodi:docname="ibus-pinyin.svg"
   inkscape:version="1.1.1 (3bf5ae0d25, 2021-09-20)"
   xmlns:inkscape="http://www.inkscape.org/namespaces/inkscape"
   xmlns:sodipodi="http://sodipodi.sourceforge.net/DTD/sodipodi-0.dtd"
   xmlns="http://www.w3.org/2000/svg"
   xmlns:svg="http://www.w3.org/2000/svg"><defs
   id="defs17">
	

		
	</defs><sodipodi:namedview
   id="namedview15"
   pagecolor="#ffffff"
   bordercolor="#666666"
   borderopacity="1.0"
   inkscape:pageshadow="2"
   inkscape:pageopacity="0.0"
   inkscape:pagecheckerboard="0"
   showgrid="false"
   inkscape:zoom="1.6152344"
   inkscape:cx="51.076178"
   inkscape:cy="98.128173"
   inkscape:window-width="1920"
   inkscape:window-height="1013"
   inkscape:window-x="0"
   inkscape:window-y="0"
   inkscape:window-maximized="1"
   inkscape:current-layer="레이어_1" />
<style
   type="text/css"
   id="style2">
	.st0{opacity:0.1;}
	.st1{fill:#0091B1;}
	.st2{fill:#FFFFFF;}
</style>
<path
   d="m 132.7,0.5 c 6.2,0 18.1,0.3 33.3,2.3 23.7,3.1 45.1,11.5 60.9,26.3 v 0 c 14.7,15.7 23.1,37.2 26.3,60.9 3,22.6 2.3,38 2.3,38 0,0 0.7,15.4 -2.3,38 -3.1,23.7 -11.5,45.1 -26.3,60.9 v 0 c -15.7,14.8 -37.2,23.2 -60.9,26.3 -15.1,2 -27.1,2.3 -33.3,2.3 -3.1,0 -4.7,-0.1 -4.7,-0.1 0,0 -1.7,0.1 -4.7,0.1 -6.2,0 -18.1,-0.3 -33.3,-2.3 -23.7,-3.1 -45.1,-11.5 -60.9,-26.3 v 0 C 14.4,211.2 6,189.7 2.8,166 -0.2,143.4 0.5,128 0.5,128 0.5,128 -0.2,112.6 2.8,90 6,66.3 14.4,44.8 29.1,29.1 v 0 C 44.9,14.3 66.3,5.9 90,2.8 c 15.2,-2 27.1,-2.3 33.3,-2.3 3.1,0 4.7,0.1 4.7,0.1 0,0 1.7,-0.1 4.7,-0.1"
   id="path4"
   style="opacity:0.1;fill:#000000" />
<path
   class="st1"
   d="M251.7,90.4c-3.1-23.4-11.4-44.6-26-60.1l0,0c-15.6-14.6-36.7-22.9-60.1-26C143.2,1.3,128,2,128,2  s-15.2-0.7-37.6,2.3C67,7.4,45.8,15.7,30.3,30.3C15.7,45.8,7.5,67,4.3,90.4c-3,22.3-2.2,37.6-2.2,37.6s-0.7,15.2,2.2,37.6  c3.1,23.4,11.4,44.6,26,60.1l0,0c15.6,14.6,36.7,22.9,60.1,26c22.3,3,37.6,2.2,37.6,2.2s15.2,0.7,37.6-2.2  c23.4-3.1,44.6-11.4,60.1-26l0,0c14.6-15.6,22.9-36.7,26-60.1c3-22.3,2.2-37.6,2.2-37.6S254.7,112.8,251.7,90.4L251.7,90.4z"
   id="path10" />
<path
   class="st2"
   d="M182.7,75.6H73.3c-8.5,0-15.3,6.9-15.3,15.3v74.3c0,8.5,6.9,15.3,15.3,15.3h109.4c8.5,0,15.3-6.9,15.3-15.3  V90.9C198,82.4,191.1,75.6,182.7,75.6z M129.6,95.4c4.4,0,7.9,3.5,7.9,7.9s-3.5,7.9-7.9,7.9s-7.9-3.5-7.9-7.9S125.2,95.4,129.6,95.4  z M129.6,120.7c4.4,0,7.9,3.5,7.9,7.9s-3.5,7.9-7.9,7.9s-7.9-3.5-7.9-7.9S125.2,120.7,129.6,120.7z M106.1,95.4  c4.4,0,7.9,3.5,7.9,7.9s-3.5,7.9-7.9,7.9s-7.9-3.5-7.9-7.9S101.7,95.4,106.1,95.4z M83.6,136.5c-4.4,0-7.9-3.5-7.9-7.9  s3.5-7.9,7.9-7.9s7.9,3.5,7.9,7.9S88,136.5,83.6,136.5z M83.6,111.3c-4.4,0-7.9-3.5-7.9-7.9s3.5-7.9,7.9-7.9s7.9,3.5,7.9,7.9  S88,111.3,83.6,111.3z M98.2,128.6c0-4.4,3.5-7.9,7.9-7.9s7.9,3.5,7.9,7.9s-3.5,7.9-7.9,7.9S98.2,133,98.2,128.6z M154.6,164.8  h-53.7v-16.6h53.7V164.8z M150.7,136.5c-4.4,0-7.9-3.5-7.9-7.9s3.5-7.9,7.9-7.9s7.9,3.5,7.9,7.9S155.1,136.5,150.7,136.5z   M150.7,111.3c-4.4,0-7.9-3.5-7.9-7.9s3.5-7.9,7.9-7.9s7.9,3.5,7.9,7.9S155.1,111.3,150.7,111.3z M172.7,136.5  c-4.4,0-7.9-3.5-7.9-7.9s3.5-7.9,7.9-7.9s7.9,3.5,7.9,7.9S177.1,136.5,172.7,136.5z M172.7,111.3c-4.4,0-7.9-3.5-7.9-7.9  s3.5-7.9,7.9-7.9s7.9,3.5,7.9,7.9S177.1,111.3,172.7,111.3z"
   id="path12" />
<rect
   style="fill:#005e72;fill-opacity:1"
   id="rect856"
   width="53.700001"
   height="16.6"
   x="100.9"
   y="148.2" /><path
   class="st1"
   d="m 250.65731,189.72303 c -1.18098,-8.91451 -4.34297,-16.9909 -9.90503,-22.89582 v 0 c -5.943,-5.56204 -13.9813,-8.72403 -22.89582,-9.90501 -8.53354,-1.14289 -14.32417,-0.87621 -14.32417,-0.87621 0,0 -5.79062,-0.26668 -14.32418,0.87621 -8.91451,1.18098 -16.9909,4.34297 -22.89582,9.90501 -5.56204,5.90492 -8.68593,13.98131 -9.90501,22.89582 -1.14288,8.49546 -0.83812,14.32417 -0.83812,14.32417 0,0 -0.26667,5.79063 0.83812,14.32419 1.18098,8.9145 4.34297,16.99091 9.90501,22.89582 v 0 c 5.94302,5.56205 13.98131,8.72403 22.89582,9.90501 8.49546,1.14288 14.32418,0.83811 14.32418,0.83811 0,0 5.79063,0.26669 14.32417,-0.83811 8.91452,-1.18098 16.99092,-4.34296 22.89582,-9.90501 v 0 c 5.56206,-5.94301 8.72405,-13.98132 9.90503,-22.89582 1.14288,-8.49546 0.83811,-14.32419 0.83811,-14.32419 0,0 0.30477,-5.79061 -0.83811,-14.32417 z"
   id="path10-3"
   style="fill:#006277;fill-opacity:1;stroke-width:0.380962" /><path
   d="m 213.31441,185.27822 c -1.18777,-3.07423 -3.98253,-8.10479 -6.49782,-11.73799 l -4.40174,1.81659 c 2.51528,3.77293 5.10044,8.87337 6.14847,12.08734 z m -19.00437,22.91703 -0.62882,-4.75109 -6.21834,1.95633 v -13.62445 h 6.91704 v -4.82096 h -6.91704 v -13.9738 h -5.03056 v 13.9738 h -8.52402 v 4.82096 h 8.52402 v 15.23144 c -3.56333,1.11791 -6.84717,2.09607 -9.43232,2.86463 l 1.32752,4.9607 8.1048,-2.65502 v 17.95632 c 0,0.97818 -0.34935,1.25765 -1.18777,1.25765 -0.76856,0.0698 -3.49345,0.0698 -6.42796,-0.0699 0.6987,1.53712 1.32752,3.77292 1.60699,5.17031 4.26202,0 6.9869,-0.20961 8.66376,-1.04803 1.74673,-0.90831 2.37554,-2.37556 2.37554,-5.31005 V 210.5009 Z m 17.39738,-1.67685 v -0.69869 -13.20524 h 10.06114 v 13.90393 z m 25.29258,0 h -10.13101 v -13.90393 h 8.52402 v -4.9607 h -9.29257 c 2.16594,-3.70305 4.47161,-8.59389 6.42795,-12.64629 l -5.31005,-1.95633 c -1.46725,4.40175 -4.12227,10.48035 -6.42795,14.60262 h -22.49781 v 4.9607 h 8.31441 v 13.13537 0.76856 H 195.9869 v 5.03057 h 10.48035 c -0.62882,7.54584 -3.00437,16.13973 -12.08733,21.79912 1.11789,0.76856 2.79475,2.58515 3.49345,3.70306 10.06113,-6.91704 12.92576,-16.76856 13.69432,-25.50218 h 10.20087 v 24.94322 h 5.10043 V 211.54897 H 237 Z"
   style="font-size:72.0524px;line-height:1.25;font-family:SamsungOneUI;-inkscape-font-specification:SamsungOneUI;fill:#ffffff;stroke-width:0.935745"
   id="path22300" /></svg>
