<?xml version="1.0" encoding="UTF-8" standalone="no"?>
<svg
   width="256"
   height="256"
   version="1.1"
   id="svg50"
   sodipodi:docname="juk.svg"
   inkscape:version="1.1.1 (3bf5ae0d25, 2021-09-20)"
   xmlns:inkscape="http://www.inkscape.org/namespaces/inkscape"
   xmlns:sodipodi="http://sodipodi.sourceforge.net/DTD/sodipodi-0.dtd"
   xmlns:xlink="http://www.w3.org/1999/xlink"
   xmlns="http://www.w3.org/2000/svg"
   xmlns:svg="http://www.w3.org/2000/svg">
  <sodipodi:namedview
     id="namedview52"
     pagecolor="#ffffff"
     bordercolor="#666666"
     borderopacity="1.0"
     inkscape:pageshadow="2"
     inkscape:pageopacity="0.0"
     inkscape:pagecheckerboard="0"
     showgrid="false"
     inkscape:zoom="1.5722656"
     inkscape:cx="45.793789"
     inkscape:cy="149.78385"
     inkscape:window-width="1920"
     inkscape:window-height="1007"
     inkscape:window-x="0"
     inkscape:window-y="0"
     inkscape:window-maximized="1"
     inkscape:current-layer="svg50" />
  <defs
     id="defs18">
    <linearGradient
       id="a"
       y1="543.79999"
       y2="503.79999"
       x2="0"
       gradientUnits="userSpaceOnUse">
      <stop
         stop-color="#2a2c2f"
         id="stop2" />
      <stop
         offset="1"
         stop-color="#424649"
         id="stop4" />
    </linearGradient>
    <linearGradient
       id="b"
       y1="530.79999"
       y2="516.79999"
       gradientUnits="userSpaceOnUse"
       x2="0"
       gradientTransform="matrix(6.3017,0,0,6.3017,-2446.6516,-3172.7964)">
      <stop
         stop-color="#ee643a"
         id="stop7" />
      <stop
         offset="1"
         stop-color="#fe9473"
         id="stop9" />
    </linearGradient>
    <linearGradient
       xlink:href="#a"
       id="c"
       y1="-521.79999"
       y2="-525.79999"
       gradientUnits="userSpaceOnUse"
       x2="0"
       gradientTransform="matrix(6.3017,0,0,6.3017,-2446.6516,3172.7964)" />
    <linearGradient
       id="d"
       y1="523.79999"
       x1="408.57001"
       y2="537.79999"
       x2="422.57001"
       gradientUnits="userSpaceOnUse"
       gradientTransform="matrix(6.3017,0,0,6.3017,-2446.6516,-3172.7964)">
      <stop
         stop-color="#292c2f"
         id="stop13" />
      <stop
         offset="1"
         stop-opacity="0"
         id="stop15" />
    </linearGradient>
    <linearGradient
       inkscape:collect="always"
       xlink:href="#a"
       id="linearGradient1097"
       x1="127.99967"
       y1="253.90021"
       x2="132.79987"
       y2="0.5"
       gradientUnits="userSpaceOnUse" />
  </defs>
  <path
     style="opacity:0.1"
     d="m 132.79987,0.5 c 6.2,0 18.1,0.3 33.3,2.3 23.7,3.1 45.1,11.5 60.8,26.3 v 0 c 14.7,15.7 23.1,37.1 26.2,60.9 3,22.6 2.3,38 2.3,38 0,0 0.7,15.4 -2.3,38 -3.1,23.7 -11.5,45.1 -26.3,60.9 v 0 c -15.7,14.8 -37.1,23.1 -60.8,26.3 -15.1,2 -27,2.3 -33.2,2.3 -3.1,0 -4.7,-0.1 -4.7,-0.1 0,0 -1.7,0.1 -4.7,0.1 -6.2,0 -18.1,-0.3 -33.200002,-2.3 -23.7,-3.1 -45.1,-11.5 -60.8,-26.3 v 0 c -15,-15.7 -23.4000002,-37.1 -26.5000002,-60.9 -3.00000003,-22.6 -2.30000003,-38 -2.30000003,-38 0,0 -0.7,-15.4 2.30000003,-38 3.1,-23.8 11.5000002,-45.2 26.3000002,-60.9 v 0 c 15.6,-14.8 37.1,-23.2 60.7,-26.3 15.100002,-2 27.000002,-2.3 33.300002,-2.3 3.1,0 4.7,0.1 4.7,0.1 0,0 1.8,-0.1 4.9,-0.1"
     id="path4"
     inkscape:connector-curvature="0" />
  <path
     style="opacity:1;fill:url(#linearGradient1097);fill-opacity:1"
     inkscape:connector-curvature="0"
     id="path10"
     d="m 251.69967,90.400211 c -3.1,-23.4 -11.4,-44.6 -26,-60.100001 v 0 c -15.6,-14.6 -36.7,-22.9 -60.1,-26 -22.4,-3 -37.6,-2.3 -37.6,-2.3 0,0 -15.2,-0.7 -37.600016,2.3 -23.4,3.1 -44.6,11.4 -60.1,26 -14.6,15.500001 -22.8000002,36.700001 -25.9999962,60.100001 -3,22.299999 -2.2,37.599999 -2.2,37.599999 0,0 -0.7,15.2 2.2,37.6 3.099996,23.4 11.3999962,44.6 25.9999962,60.1 v 0 c 15.6,14.6 36.7,22.9 60.1,26 22.300016,3 37.600016,2.2 37.600016,2.2 0,0 15.2,0.7 37.6,-2.2 23.4,-3.1 44.6,-11.4 60.1,-26 v 0 c 14.6,-15.6 22.9,-36.7 26,-60.1 3,-22.3 2.2,-37.6 2.2,-37.6 0,0 0.8,-15.2 -2.2,-37.599999"
     class="st1" />
  <path
     opacity="0.4"
     fill="url(#d)"
     fill-rule="evenodd"
     d="m 165.84416,102.82726 -69.318698,56.7153 83.365188,83.36519 c 27.97325,-12.59079 50.4136,-35.04375 63.017,-63.017 z"
     id="path22"
     style="fill:url(#d);stroke-width:6.3017" />
  <rect
     width="88.223801"
     x="83.922112"
     y="83.922089"
     fill="url(#b)"
     rx="44.1119"
     height="88.223801"
     id="rect24"
     style="fill:url(#b);stroke-width:6.3017" />
  <rect
     width="25.2068"
     x="115.43061"
     y="-140.63739"
     fill="url(#c)"
     rx="12.6034"
     height="25.2068"
     transform="scale(1,-1)"
     id="rect26"
     style="fill:url(#c);stroke-width:6.3017" />
  <path
     fill="#ffffff"
     fill-opacity="0.275"
     d="m 128.03396,90.223864 c -20.94685,0 -37.810198,16.863346 -37.810198,37.810196 0,20.94686 16.863348,37.8102 37.810198,37.8102 20.94685,0 37.8102,-16.86334 37.8102,-37.8102 0,-20.94685 -16.86335,-37.810196 -37.8102,-37.810196 m 0,6.3017 c 17.45571,0 31.5085,14.052796 31.5085,31.508496 0,17.45571 -14.05279,31.5085 -31.5085,31.5085 -17.45571,0 -31.508498,-14.05279 -31.508498,-31.5085 0,-17.4557 14.052788,-31.508496 31.508498,-31.508496"
     id="path28"
     style="stroke-width:6.3017" />
  <path
     d="m 187.90011,24.308082 c -6.11895,-3.528952 -12.43325,-6.3017 -18.84208,-8.67744 l -21.83539,59.034325 c 3.11934,1.128004 6.18827,2.495473 9.16267,4.209536 2.9744,1.720364 5.69044,3.699098 8.23002,5.829072 l 40.21115,-48.428564 c -5.23041,-4.37338 -10.81372,-8.444278 -16.93267,-11.979532"
     id="path30"
     style="fill:#4c5053;stroke-width:6.3017" />
  <path
     d="M 68.167812,231.69703 C 62.048861,228.16808 56.465555,224.09088 51.235144,219.7175 l 40.211148,-48.42857 c 2.539585,2.13628 5.255618,4.11501 8.230018,5.82908 2.9744,1.72036 6.04963,3.08153 9.16267,4.20953 l -21.835387,59.03433 c -6.402527,-2.34424 -12.729434,-5.14219 -18.842083,-8.67114"
     id="path32"
     style="fill:#4c5053;stroke-width:6.3017" />
  <g
     fill-opacity="0.198"
     id="g42"
     transform="matrix(6.3017,0,0,6.3017,-2446.6516,-3172.7964)"
     style="fill:#4c5053">
    <path
       d="m 422.01,510.36 c -0.793,-0.793 -1.646,-1.481 -2.531,-2.103 l -5.771,8.152 c 0.431,0.301 0.846,0.636 1.232,1.022 0.386,0.386 0.721,0.801 1.022,1.232 l 8.152,-5.771 c -0.622,-0.885 -1.311,-1.739 -2.103,-2.531"
       id="path34" />
    <path
       d="m 395.14,537.23 c -0.793,-0.793 -1.481,-1.646 -2.103,-2.532 l 8.152,-5.771 c 0.301,0.431 0.636,0.846 1.022,1.232 0.386,0.386 0.801,0.721 1.232,1.022 l -5.771,8.152 c -0.885,-0.622 -1.739,-1.311 -2.531,-2.103"
       id="path36" />
    <path
       d="m 425.03,514.3 c -0.56,-0.971 -1.207,-1.857 -1.901,-2.687 l -7.685,6.381 c 0.339,0.403 0.653,0.834 0.925,1.306 0.273,0.472 0.489,0.96 0.668,1.454 l 9.368,-3.465 c -0.372,-1.016 -0.816,-2.02 -1.377,-2.99"
       id="path38" />
    <path
       d="m 392.12,533.3 c -0.56,-0.971 -1,-1.973 -1.377,-2.99 l 9.368,-3.465 c 0.179,0.495 0.396,0.982 0.668,1.454 0.273,0.472 0.587,0.903 0.925,1.306 l -7.685,6.381 c -0.694,-0.83 -1.34,-1.716 -1.901,-2.687"
       id="path40" />
  </g>
</svg>
