<?xml version="1.0" encoding="UTF-8" standalone="no"?>
<svg
   width="256"
   height="256"
   version="1.1"
   id="svg58"
   sodipodi:docname="kiriki.svg"
   inkscape:version="1.1 (c4e8f9ed74, 2021-05-24)"
   xmlns:inkscape="http://www.inkscape.org/namespaces/inkscape"
   xmlns:sodipodi="http://sodipodi.sourceforge.net/DTD/sodipodi-0.dtd"
   xmlns:xlink="http://www.w3.org/1999/xlink"
   xmlns="http://www.w3.org/2000/svg"
   xmlns:svg="http://www.w3.org/2000/svg">
  <sodipodi:namedview
     id="namedview60"
     pagecolor="#ffffff"
     bordercolor="#666666"
     borderopacity="1.0"
     inkscape:pageshadow="2"
     inkscape:pageopacity="0.0"
     inkscape:pagecheckerboard="0"
     showgrid="false"
     inkscape:zoom="2.3201941"
     inkscape:cx="93.095658"
     inkscape:cy="98.698638"
     inkscape:window-width="1920"
     inkscape:window-height="1009"
     inkscape:window-x="0"
     inkscape:window-y="0"
     inkscape:window-maximized="1"
     inkscape:current-layer="svg58" />
  <defs
     id="defs32">
    <linearGradient
       id="linearGradient4167">
      <stop
         style="stop-color:#ffffff;stop-opacity:0"
         offset="0"
         id="stop2" />
      <stop
         style="stop-color:#ffffff;stop-opacity:1"
         offset="1"
         id="stop4" />
    </linearGradient>
    <linearGradient
       id="linearGradient4324">
      <stop
         style="stop-color:#eff1f1;stop-opacity:1"
         offset="0"
         id="stop7" />
      <stop
         style="stop-color:#ececec;stop-opacity:1;"
         offset="1"
         id="stop9" />
    </linearGradient>
    <linearGradient
       id="linearGradient4306">
      <stop
         offset="0"
         style="stop-color:#000000;stop-opacity:0;"
         id="stop12" />
      <stop
         offset="1"
         style="stop-color:#000000;stop-opacity:1;"
         id="stop14" />
    </linearGradient>
    <linearGradient
       id="linearGradient4266">
      <stop
         style="stop-color:#e22828;stop-opacity:1"
         offset="0"
         id="stop17" />
      <stop
         style="stop-color:#e05e4c;stop-opacity:1"
         offset="1"
         id="stop19" />
    </linearGradient>
    <linearGradient
       xlink:href="#linearGradient4266"
       id="linearGradient4272"
       x1="35"
       y1="44"
       x2="19"
       y2="3"
       gradientUnits="userSpaceOnUse"
       gradientTransform="translate(-22.909795,32.501304)" />
    <linearGradient
       xlink:href="#linearGradient4306"
       id="linearGradient4312"
       x1="-17"
       y1="12"
       x2="-7"
       y2="12"
       gradientUnits="userSpaceOnUse" />
    <radialGradient
       xlink:href="#linearGradient4324"
       id="radialGradient4340"
       cx="-12"
       cy="12"
       fx="-12"
       fy="12"
       r="4"
       gradientUnits="userSpaceOnUse" />
    <linearGradient
       xlink:href="#linearGradient4167"
       id="linearGradient4165"
       gradientUnits="userSpaceOnUse"
       x1="-17"
       y1="12"
       x2="-7"
       y2="12"
       gradientTransform="translate(24)" />
    <linearGradient
       xlink:href="#linearGradient4306"
       id="linearGradient4186"
       gradientUnits="userSpaceOnUse"
       x1="-17"
       y1="12"
       x2="-7"
       y2="12"
       gradientTransform="translate(-12,12)" />
    <radialGradient
       xlink:href="#linearGradient4324"
       id="radialGradient4188"
       gradientUnits="userSpaceOnUse"
       cx="-12"
       cy="12"
       fx="-12"
       fy="12"
       r="4"
       gradientTransform="translate(-12,12)" />
    <linearGradient
       xlink:href="#linearGradient4167"
       id="linearGradient4190"
       gradientUnits="userSpaceOnUse"
       gradientTransform="translate(36,12)"
       x1="-17"
       y1="12"
       x2="-7"
       y2="12" />
    <linearGradient
       xlink:href="#linearGradient4306"
       id="linearGradient4200"
       gradientUnits="userSpaceOnUse"
       x1="-17"
       y1="12"
       x2="-7"
       y2="12"
       gradientTransform="translate(-24,24)" />
    <radialGradient
       xlink:href="#linearGradient4324"
       id="radialGradient4202"
       gradientUnits="userSpaceOnUse"
       cx="-12"
       cy="12"
       fx="-12"
       fy="12"
       r="4"
       gradientTransform="translate(-24,24)" />
    <linearGradient
       xlink:href="#linearGradient4167"
       id="linearGradient4204"
       gradientUnits="userSpaceOnUse"
       gradientTransform="translate(48,24)"
       x1="-17"
       y1="12"
       x2="-7"
       y2="12" />
    <linearGradient
       inkscape:collect="always"
       xlink:href="#linearGradient4266"
       id="linearGradient1108"
       x1="186.62279"
       y1="256.11826"
       x2="88.045197"
       y2="-1.3784935"
       gradientUnits="userSpaceOnUse" />
  </defs>
  <path
     style="opacity:0.1;fill:#000000;fill-opacity:1"
     d="m 132.79987,0.5 c 6.2,0 18.1,0.3 33.3,2.3 23.7,3.1 45.1,11.5 60.8,26.3 v 0 c 14.7,15.7 23.1,37.1 26.2,60.9 3,22.6 2.3,38 2.3,38 0,0 0.7,15.4 -2.3,38 -3.1,23.7 -11.5,45.1 -26.3,60.9 v 0 c -15.7,14.8 -37.1,23.1 -60.8,26.3 -15.1,2 -27,2.3 -33.2,2.3 -3.1,0 -4.7,-0.1 -4.7,-0.1 0,0 -1.7,0.1 -4.7,0.1 -6.2,0 -18.1,-0.3 -33.200002,-2.3 -23.7,-3.1 -45.1,-11.5 -60.8,-26.3 v 0 c -15,-15.7 -23.4000002,-37.1 -26.5000002,-60.9 -3.00000003,-22.6 -2.30000003,-38 -2.30000003,-38 0,0 -0.7,-15.4 2.30000003,-38 3.1,-23.8 11.5000002,-45.2 26.3000002,-60.9 v 0 c 15.6,-14.8 37.1,-23.2 60.7,-26.3 15.100002,-2 27.000002,-2.3 33.300002,-2.3 3.1,0 4.7,0.1 4.7,0.1 0,0 1.8,-0.1 4.9,-0.1"
     id="path4"
     inkscape:connector-curvature="0" />
  <path
     style="fill:url(#linearGradient1108);fill-opacity:1"
     inkscape:connector-curvature="0"
     id="path10"
     d="m 251.69967,90.40021 c -3.1,-23.4 -11.4,-44.6 -26,-60.1 v 0 c -15.6,-14.6 -36.7,-22.9 -60.1,-26 -22.4,-3 -37.6,-2.3 -37.6,-2.3 0,0 -15.2,-0.7 -37.600012,2.3 -23.4,3.1 -44.6,11.4 -60.1,26 -14.6,15.5 -22.8000002,36.7 -26.0000002,60.1 -3,22.3 -2.2,37.6 -2.2,37.6 0,0 -0.7,15.2 2.2,37.6 3.1,23.4 11.4000002,44.6 26.0000002,60.1 v 0 c 15.6,14.6 36.7,22.9 60.1,26 22.300012,3 37.600012,2.2 37.600012,2.2 0,0 15.2,0.7 37.6,-2.2 23.4,-3.1 44.6,-11.4 60.1,-26 v 0 c 14.6,-15.6 22.9,-36.7 26,-60.1 3,-22.3 2.2,-37.6 2.2,-37.6 0,0 0.8,-15.2 -2.2,-37.6"
     class="st1" />
  <g
     id="g56"
     transform="matrix(5.75,0,0,5.75,-10,-10)">
    <rect
       style="opacity:0.1;fill:none;fill-opacity:1;stroke:url(#linearGradient4312);stroke-width:2;stroke-miterlimit:4;stroke-dasharray:none;stroke-opacity:1"
       width="8"
       height="8"
       x="-16"
       y="8"
       transform="rotate(-90)"
       ry="4"
       rx="4"
       id="rect38" />
    <rect
       rx="4"
       ry="4"
       transform="rotate(-90)"
       y="8"
       x="-16"
       height="8"
       width="8"
       style="fill:url(#radialGradient4340);fill-opacity:1;stroke:none"
       id="rect40" />
    <rect
       rx="4"
       ry="4"
       transform="matrix(0,1,1,0,0,0)"
       y="8"
       x="8"
       height="8"
       width="8"
       style="opacity:0.1;fill:none;fill-opacity:1;stroke:url(#linearGradient4165);stroke-width:2;stroke-miterlimit:4;stroke-dasharray:none;stroke-opacity:1"
       id="rect42" />
    <rect
       rx="4"
       ry="4"
       transform="rotate(-90)"
       y="20"
       x="-28"
       height="8"
       width="8"
       style="opacity:0.1;fill:none;fill-opacity:1;stroke:url(#linearGradient4186);stroke-width:2;stroke-miterlimit:4;stroke-dasharray:none;stroke-opacity:1"
       id="rect44" />
    <rect
       style="fill:url(#radialGradient4188);fill-opacity:1;stroke:none"
       width="8"
       height="8"
       x="-28"
       y="20"
       transform="rotate(-90)"
       ry="4"
       rx="4"
       id="rect46" />
    <rect
       style="opacity:0.1;fill:none;fill-opacity:1;stroke:url(#linearGradient4190);stroke-width:2;stroke-miterlimit:4;stroke-dasharray:none;stroke-opacity:1"
       width="8"
       height="8"
       x="20"
       y="20"
       transform="matrix(0,1,1,0,0,0)"
       ry="4"
       rx="4"
       id="rect48" />
    <rect
       style="opacity:0.1;fill:none;fill-opacity:1;stroke:url(#linearGradient4200);stroke-width:2;stroke-miterlimit:4;stroke-dasharray:none;stroke-opacity:1"
       width="8"
       height="8"
       x="-40"
       y="32"
       transform="rotate(-90)"
       ry="4"
       rx="4"
       id="rect50" />
    <rect
       rx="4"
       ry="4"
       transform="rotate(-90)"
       y="32"
       x="-40"
       height="8"
       width="8"
       style="fill:url(#radialGradient4202);fill-opacity:1;stroke:none"
       id="rect52" />
    <rect
       rx="4"
       ry="4"
       transform="matrix(0,1,1,0,0,0)"
       y="32"
       x="32"
       height="8"
       width="8"
       style="opacity:0.1;fill:none;fill-opacity:1;stroke:url(#linearGradient4204);stroke-width:2;stroke-miterlimit:4;stroke-dasharray:none;stroke-opacity:1"
       id="rect54" />
  </g>
</svg>
