<?xml version="1.0" encoding="UTF-8" standalone="no"?>
<svg
   version="1.1"
   viewBox="0 0 256 256"
   id="svg28"
   sodipodi:docname="knights.svg"
   width="256"
   height="256"
   inkscape:version="1.1 (c4e8f9ed74, 2021-05-24)"
   xmlns:inkscape="http://www.inkscape.org/namespaces/inkscape"
   xmlns:sodipodi="http://sodipodi.sourceforge.net/DTD/sodipodi-0.dtd"
   xmlns="http://www.w3.org/2000/svg"
   xmlns:svg="http://www.w3.org/2000/svg">
  <sodipodi:namedview
     id="namedview30"
     pagecolor="#ffffff"
     bordercolor="#666666"
     borderopacity="1.0"
     inkscape:pageshadow="2"
     inkscape:pageopacity="0.0"
     inkscape:pagecheckerboard="0"
     showgrid="false"
     inkscape:zoom="1.1600971"
     inkscape:cx="148.26346"
     inkscape:cy="212.91322"
     inkscape:window-width="1920"
     inkscape:window-height="1009"
     inkscape:window-x="0"
     inkscape:window-y="0"
     inkscape:window-maximized="1"
     inkscape:current-layer="svg28" />
  <defs
     id="defs12">
    <linearGradient
       id="b"
       x1="15.425"
       x2="31.702721"
       y1="13.05"
       y2="30.814844"
       gradientTransform="matrix(6.5262206,0,0,6.1720616,-14.466175,4.4094451)"
       gradientUnits="userSpaceOnUse">
      <stop
         offset="0"
         id="stop2" />
      <stop
         stop-opacity="0"
         offset="1"
         id="stop4" />
    </linearGradient>
    <linearGradient
       id="a"
       x1="30.207001"
       x2="14"
       y1="43"
       y2="10"
       gradientTransform="matrix(-6.4991277,0,0,6.4991277,281.67737,-26.369774)"
       gradientUnits="userSpaceOnUse">
      <stop
         stop-color="#cebee5"
         offset="0"
         id="stop7" />
      <stop
         stop-color="#f1f1f1"
         offset="1"
         id="stop9" />
    </linearGradient>
  </defs>
  <path
     style="opacity:0.1;fill:#000000;fill-opacity:1"
     d="m 132.79987,0.5 c 6.2,0 18.1,0.3 33.3,2.3 23.7,3.1 45.1,11.5 60.8,26.3 v 0 c 14.7,15.7 23.1,37.1 26.2,60.9 3,22.6 2.3,38 2.3,38 0,0 0.7,15.4 -2.3,38 -3.1,23.7 -11.5,45.1 -26.3,60.9 v 0 c -15.7,14.8 -37.1,23.1 -60.8,26.3 -15.1,2 -27,2.3 -33.2,2.3 -3.1,0 -4.7,-0.1 -4.7,-0.1 0,0 -1.7,0.1 -4.7,0.1 -6.2,0 -18.1,-0.3 -33.200002,-2.3 -23.7,-3.1 -45.1,-11.5 -60.8,-26.3 v 0 c -15,-15.7 -23.4000002,-37.1 -26.5000002,-60.9 -3.00000003,-22.6 -2.30000003,-38 -2.30000003,-38 0,0 -0.7,-15.4 2.30000003,-38 3.1,-23.8 11.5000002,-45.2 26.3000002,-60.9 v 0 c 15.6,-14.8 37.1,-23.2 60.7,-26.3 15.100002,-2 27.000002,-2.3 33.300002,-2.3 3.1,0 4.7,0.1 4.7,0.1 0,0 1.8,-0.1 4.9,-0.1"
     id="path4"
     inkscape:connector-curvature="0" />
  <path
     style="fill:#c87137;fill-opacity:1"
     inkscape:connector-curvature="0"
     id="path10"
     d="m 251.69967,90.400211 c -3.1,-23.4 -11.4,-44.600001 -26,-60.100001 v 0 c -15.6,-14.6 -36.7,-22.9 -60.1,-26 -22.4,-3 -37.6,-2.3 -37.6,-2.3 0,0 -15.2,-0.7 -37.600016,2.3 -23.4,3.1 -44.6,11.4 -60.1,26 -14.6,15.5 -22.8000002,36.700001 -26.0000002,60.100001 -3,22.299999 -2.2,37.599999 -2.2,37.599999 0,0 -0.7,15.2 2.2,37.6 3.1,23.4 11.4000002,44.6 26.0000002,60.1 v 0 c 15.6,14.6 36.7,22.9 60.1,26 22.300016,3 37.600016,2.2 37.600016,2.2 0,0 15.2,0.7 37.6,-2.2 23.4,-3.1 44.6,-11.4 60.1,-26 v 0 c 14.6,-15.6 22.9,-36.7 26,-60.1 3,-22.3 2.2,-37.6 2.2,-37.6 0,0 0.8,-15.2 -2.2,-37.599999"
     class="st1" />
  <path
     d="m 210.18696,77.616269 -48.156,-4.623349 -98.437542,82.37872 69.043812,71.09565 -10.27733,20.48206 5.63974,6.95088 33.9532,-4.07534 c 30.04287,-12.65738 75.97383,-48.72519 55.23518,-32.79564 -57.3461,44.0481 -7.74547,28.18808 24.85292,-31.92891 7.93115,-14.62642 13.52709,-40.43082 14.45263,-58.17805 z"
     fill="url(#b)"
     opacity="0.2"
     id="path18"
     style="fill:url(#b);stroke-width:6.49913" />
  <path
     d="m 105.40127,32.122376 c 0,0 20.77862,14.252392 22.20108,22.340751 0,0 43.95952,-13.89598 82.58461,23.153142 h -19.49738 c 0,0 51.10446,31.937101 51.99302,51.993021 -0.88856,-0.55827 -9.39332,-4.99373 -12.99825,-6.49913 0,0 12.2231,36.83836 2.78097,64.73437 0,0 -5.76732,51.83924 -98.5256,57.14572 -12.9761,0.74233 9.1e-4,0.0195 -12.99735,0.0195 V 207.5985 l 12.99826,-7e-5 v -19.49738 c 20.82977,-1.00977 25.88518,-50.73408 -1.7432,-64.99095 0,0 -17.4614,24.50704 -37.966539,26.88507 0,0 -2.393564,21.00746 -27.177078,7.66696 -6.614487,-3.54515 -9.073757,-15.27341 -2.399088,-24.79067 L 69.90992,125.268 c 0,0 17.400115,-41.786593 29.791871,-54.150923 0,0 6.499129,-19.497383 0,-32.495639 0,0 7.363319,5.467391 9.748689,9.748692 0,0 -1.65831,-13.886231 -4.04921,-16.247819 z"
     fill="url(#a)"
     id="path20"
     style="fill:url(#a);stroke-width:6.49913"
     sodipodi:nodetypes="cccccccscccccccccccccc" />
  <path
     d="m 223.985,207.59882 c -30.64657,0.0325 -72.39606,-3.2e-4 -103.04263,-3.2e-4 l -0.0858,6.51895 97.7179,0.0325 c 5.23101,-5.20573 5.41052,-6.55112 5.41052,-6.55112 z"
     color="#000000"
     color-rendering="auto"
     dominant-baseline="auto"
     fill="#c6c3c7"
     fill-rule="evenodd"
     image-rendering="auto"
     shape-rendering="auto"
     solid-color="#000000"
     style="font-variant-ligatures:normal;font-variant-position:normal;font-variant-caps:normal;font-variant-numeric:normal;font-variant-alternates:normal;font-feature-settings:normal;text-indent:0;text-decoration-line:none;text-decoration-style:solid;text-decoration-color:#000000;text-transform:none;text-orientation:mixed;white-space:normal;shape-padding:0;isolation:auto;mix-blend-mode:normal;stroke-width:6.49913"
     id="path22"
     sodipodi:nodetypes="ccccc" />
  <path
     d="m 232.46532,187.84453 c -30.64657,0.0325 -67.87812,0.25737 -98.52469,0.25737 v 6.49912 l 96.49001,0.026 z"
     color="#000000"
     color-rendering="auto"
     dominant-baseline="auto"
     fill="#c6c3c7"
     fill-rule="evenodd"
     image-rendering="auto"
     shape-rendering="auto"
     solid-color="#000000"
     style="font-variant-ligatures:normal;font-variant-position:normal;font-variant-caps:normal;font-variant-numeric:normal;font-variant-alternates:normal;font-feature-settings:normal;text-indent:0;text-decoration-line:none;text-decoration-style:solid;text-decoration-color:#000000;text-transform:none;text-orientation:mixed;white-space:normal;shape-padding:0;isolation:auto;mix-blend-mode:normal;stroke-width:6.49913"
     id="path24"
     sodipodi:nodetypes="cccccc" />
</svg>
