<?xml version="1.0" encoding="UTF-8" standalone="no"?>
<!-- Generator: Adobe Illustrator 23.0.0, SVG Export Plug-In . SVG Version: 6.00 Build 0)  -->

<svg
   version="1.1"
   id="레이어_1"
   x="0px"
   y="0px"
   viewBox="0 0 256 256"
   style="enable-background:new 0 0 256 256;"
   xml:space="preserve"
   sodipodi:docname="kontact-import-wizard.svg"
   inkscape:version="1.1.1 (3bf5ae0d25, 2021-09-20)"
   xmlns:inkscape="http://www.inkscape.org/namespaces/inkscape"
   xmlns:sodipodi="http://sodipodi.sourceforge.net/DTD/sodipodi-0.dtd"
   xmlns="http://www.w3.org/2000/svg"
   xmlns:svg="http://www.w3.org/2000/svg"><defs
   id="defs26">
	
	

		
		
		
	
			
			
		
			
		
			
		
				
			</defs><sodipodi:namedview
   id="namedview24"
   pagecolor="#ffffff"
   bordercolor="#666666"
   borderopacity="1.0"
   inkscape:pageshadow="2"
   inkscape:pageopacity="0.0"
   inkscape:pagecheckerboard="0"
   showgrid="false"
   inkscape:zoom="1.2304688"
   inkscape:cx="42.260317"
   inkscape:cy="101.99365"
   inkscape:window-width="1920"
   inkscape:window-height="1007"
   inkscape:window-x="0"
   inkscape:window-y="0"
   inkscape:window-maximized="1"
   inkscape:current-layer="레이어_1" />
<style
   type="text/css"
   id="style2">
	.st0{opacity:0.1;}
	.st1{fill:#E43C35;}
	.st2{fill:#FFFFFF;}
	.st3{fill:#B92A2A;}
</style>
<path
   d="m 132.7,0.5 c 6.2,0 18.1,0.3 33.3,2.3 23.7,3.1 45.1,11.5 60.9,26.3 v 0 c 14.7,15.7 23.1,37.2 26.3,60.9 3,22.6 2.3,38 2.3,38 0,0 0.7,15.4 -2.3,38 -3.1,23.7 -11.5,45.1 -26.3,60.9 v 0 c -15.7,14.8 -37.2,23.2 -60.9,26.3 -15.1,2 -27.1,2.3 -33.3,2.3 -3.1,0 -4.7,-0.1 -4.7,-0.1 0,0 -1.7,0.1 -4.7,0.1 -6.2,0 -18.1,-0.3 -33.3,-2.3 -23.7,-3.1 -45.1,-11.5 -60.9,-26.3 v 0 C 14.4,211.2 6,189.7 2.8,166 -0.2,143.4 0.5,128 0.5,128 0.5,128 -0.2,112.6 2.8,90 6,66.3 14.4,44.8 29.1,29.1 v 0 C 44.9,14.3 66.3,5.9 90,2.8 c 15.2,-2 27.1,-2.3 33.3,-2.3 3.1,0 4.7,0.1 4.7,0.1 0,0 1.7,-0.1 4.7,-0.1"
   id="path4"
   style="opacity:0.1;fill:#000000;fill-opacity:1" /><path
   id="SVGID_3_"
   class="st1"
   d="M 251.7,90.4 C 248.6,67 240.3,45.8 225.7,30.2 v 0 C 210.2,15.6 189,7.3 165.6,4.2 143.2,1.3 128,2 128,2 128,2 112.8,1.3 90.4,4.2 67,7.4 45.8,15.7 30.3,30.3 15.7,45.8 7.4,67 4.3,90.4 1.3,112.8 2.1,128 2.1,128 c 0,0 -0.7,15.2 2.2,37.6 3.1,23.4 11.4,44.6 26,60.1 v 0 c 15.5,14.6 36.7,22.9 60.1,26 22.3,3 37.6,2.2 37.6,2.2 0,0 15.2,0.7 37.6,-2.2 23.4,-3.1 44.6,-11.4 60.1,-26 v 0 c 14.6,-15.5 22.9,-36.7 26,-60.1 3,-22.4 2.2,-37.6 2.2,-37.6 0,0 0.7,-15.2 -2.2,-37.6" /><path
   class="st2"
   d="M 187.8,182.5 H 68.2 c -7.3,0 -13.3,-5.9 -13.3,-13.3 V 86.8 c 0,-7.3 5.9,-13.3 13.3,-13.3 h 119.6 c 7.3,0 13.3,5.9 13.3,13.3 v 82.5 c -0.1,7.3 -6,13.2 -13.3,13.2 z"
   id="path13" /><path
   class="st3"
   d="m 185.1,92 c -2.9,-3.4 -8,-3.9 -11.4,-1 L 128,129.3 82.3,91 c -3.4,-2.9 -8.5,-2.4 -11.4,1 -2.9,3.4 -2.4,8.5 1,11.4 l 39,32.7 0.1,-0.1 17.2,14.4 3,-2.5 0.3,-0.4 52.6,-44.1 c 3.4,-2.9 3.9,-8 1,-11.4 z"
   id="path15" />

<path
   class="st1"
   d="m 253.12502,192.70533 c -1.18098,-8.91452 -4.34297,-16.99092 -9.90503,-22.93392 v 0 c -5.9049,-5.56205 -13.9813,-8.72403 -22.89582,-9.90503 C 211.79063,158.7616 206,159.02827 206,159.02827 c 0,0 -5.79062,-0.26667 -14.32418,0.83811 -8.91451,1.21908 -16.9909,4.38107 -22.89582,9.94313 -5.56204,5.9049 -8.72403,13.9813 -9.90501,22.89582 -1.14288,8.53354 -0.83812,14.32417 -0.83812,14.32417 0,0 -0.26667,5.79062 0.83812,14.32418 1.18098,8.9145 4.34297,16.9909 9.90501,22.89582 v 0 c 5.90492,5.56204 13.98131,8.72403 22.89582,9.90501 8.49546,1.14288 14.32418,0.83811 14.32418,0.83811 0,0 5.79063,0.26668 14.32417,-0.83811 8.91452,-1.18098 16.99092,-4.34297 22.89582,-9.90501 v 0 c 5.56206,-5.90492 8.72405,-13.98132 9.90503,-22.89582 1.14288,-8.53356 0.83811,-14.32418 0.83811,-14.32418 0,0 0.26667,-5.79063 -0.83811,-14.32417"
   id="path10-5"
   style="fill:#b92a2a;fill-opacity:1;stroke-width:0.380962" /><g
   id="g18"
   transform="translate(78.16313,81.90059)"
   style="fill:#f8dfdf;fill-opacity:1"><path
     id="path14"
     style="fill:#f8dfdf;fill-opacity:1;stroke-width:0.501253"
     class="st3"
     d="m 206.26367,169.12891 c -11.02757,0 -20,8.97243 -20,20 0,11.02757 8.97243,20 20,20 v -7.2168 c -7.06767,0 -12.7832,-5.71553 -12.7832,-12.7832 0,-7.06767 5.71553,-12.78125 12.7832,-12.78125 7.06767,0 12.78125,5.71358 12.78125,12.78125 h -4.86133 c 2.75689,2.45614 5.46316,4.96249 8.16993,7.46875 2.60651,-2.45614 5.26262,-4.96248 7.86914,-7.46875 h -3.95899 c 0,-11.02757 -8.97243,-20 -20,-20 z"
     transform="translate(-78.16313,-79.0295)" /><path
     id="path14-3"
     style="fill:#f47b7b;fill-opacity:1;stroke-width:0.501253"
     class="st3"
     d="m 128.10054,162.8826 c 11.02757,0 20,-8.97243 20,-20 0,-11.02756 -8.97243,-19.99999 -20,-19.99999 v 7.2168 c 7.06767,0 12.7832,5.71553 12.7832,12.78319 0,7.06767 -5.71553,12.78125 -12.7832,12.78125 -7.06767,0 -12.78125,-5.71358 -12.78125,-12.78125 h 4.86133 c -2.75689,-2.45613 -5.46316,-4.96248 -8.16993,-7.46874 -2.60651,2.45614 -5.26262,4.96248 -7.86914,7.46874 h 3.959 c 0,11.02757 8.97242,20 19.99999,20 z" /></g></svg>
