<?xml version="1.0" encoding="UTF-8" standalone="no"?>
<!-- Generator: Adobe Illustrator 23.0.0, SVG Export Plug-In . SVG Version: 6.00 Build 0)  -->

<svg
   version="1.1"
   id="레이어_1"
   x="0px"
   y="0px"
   viewBox="0 0 256 256"
   style="enable-background:new 0 0 256 256;"
   xml:space="preserve"
   sodipodi:docname="ktnef.svg"
   inkscape:version="1.1.1 (3bf5ae0d25, 2021-09-20)"
   xmlns:inkscape="http://www.inkscape.org/namespaces/inkscape"
   xmlns:sodipodi="http://sodipodi.sourceforge.net/DTD/sodipodi-0.dtd"
   xmlns="http://www.w3.org/2000/svg"
   xmlns:svg="http://www.w3.org/2000/svg"><defs
   id="defs23">
	
	

		
		
		
		
	
			
		
				
			</defs><sodipodi:namedview
   id="namedview21"
   pagecolor="#ffffff"
   bordercolor="#666666"
   borderopacity="1.0"
   inkscape:pageshadow="2"
   inkscape:pageopacity="0.0"
   inkscape:pagecheckerboard="0"
   showgrid="false"
   inkscape:zoom="2.4609375"
   inkscape:cx="155.63175"
   inkscape:cy="155.42857"
   inkscape:window-width="1920"
   inkscape:window-height="1013"
   inkscape:window-x="0"
   inkscape:window-y="0"
   inkscape:window-maximized="1"
   inkscape:current-layer="레이어_1" />
<style
   type="text/css"
   id="style2">
	.st0{opacity:0.1;}
	.st1{fill:#E67828;}
	.st2{fill:#FFE192;}
	.st3{fill:#FFFFFF;}
</style>
<path
   d="m 132.7,0.5 c 6.2,0 18.1,0.3 33.3,2.3 23.7,3.1 45.1,11.5 60.9,26.3 v 0 c 14.7,15.7 23.1,37.2 26.3,60.9 3,22.6 2.3,38 2.3,38 0,0 0.7,15.4 -2.3,38 -3.1,23.7 -11.5,45.1 -26.3,60.9 v 0 c -15.7,14.8 -37.2,23.2 -60.9,26.3 -15.1,2 -27.1,2.3 -33.3,2.3 -3.1,0 -4.7,-0.1 -4.7,-0.1 0,0 -1.7,0.1 -4.7,0.1 -6.2,0 -18.1,-0.3 -33.3,-2.3 -23.7,-3.1 -45.1,-11.5 -60.9,-26.3 v 0 C 14.4,211.2 6,189.7 2.8,166 -0.2,143.4 0.5,128 0.5,128 0.5,128 -0.2,112.6 2.8,90 6,66.3 14.4,44.8 29.1,29.1 v 0 C 44.9,14.3 66.3,5.9 90,2.8 c 15.2,-2 27.1,-2.3 33.3,-2.3 3.1,0 4.7,0.1 4.7,0.1 0,0 1.7,-0.1 4.7,-0.1"
   id="path4"
   style="opacity:0.1;fill:#000000;fill-opacity:1" /><path
   class="st1"
   d="M 251.3,90.4 C 248.2,67 239.9,45.8 225.3,30.2 v 0 C 209.8,15.6 188.6,7.3 165.2,4.2 142.8,1.3 127.6,2 127.6,2 127.6,2 112.4,1.3 90,4.2 66.6,7.4 45.4,15.7 29.9,30.3 15.3,45.8 7,67 3.9,90.4 0.9,112.8 1.7,128 1.7,128 c 0,0 -0.7,15.2 2.2,37.6 3.1,23.4 11.4,44.6 26,60.1 v 0 c 15.5,14.6 36.7,22.9 60.1,26 22.3,3 37.6,2.2 37.6,2.2 0,0 15.2,0.7 37.6,-2.2 23.4,-3.1 44.6,-11.4 60.1,-26 v 0 c 14.6,-15.5 22.9,-36.7 26,-60.1 3,-22.4 2.2,-37.6 2.2,-37.6 0,0 0.7,-15.2 -2.2,-37.6"
   id="path10"
   style="fill:#e43c35;fill-opacity:1" />

<path
   id="rect1175"
   style="fill:#ffffff;stroke-width:2.54571"
   d="m 70.74762,73.5 h 114.50476 c 8.77958,0 15.84762,7.068038 15.84762,15.847618 v 77.304762 c 0,8.77958 -7.06804,15.84762 -15.84762,15.84762 H 70.74762 c -8.779581,0 -15.847618,-7.06804 -15.847618,-15.84762 V 89.347618 C 54.900002,80.568038 61.968039,73.5 70.74762,73.5 Z" /><path
   id="path15"
   class="st3"
   d="m 77.187986,89.193101 c -2.329321,-0.01165 -4.655859,0.983984 -6.287109,2.896484 -2.9,3.4 -2.4,8.500385 1,11.400395 18.740776,15.90925 37.541233,31.29596 56.298833,47 18.50109,-15.7795 37.24947,-31.36301 55.90039,-47 3.4,-2.9 3.9,-8.000395 1,-11.400395 -2.9,-3.4 -8.00039,-3.9 -11.40039,-1 L 128.00049,129.39037 82.301267,91.089585 c -1.4875,-1.26875 -3.301587,-1.887427 -5.113281,-1.896484 z"
   style="fill:#b92a2a" /><path
   class="st1"
   d="m 253.67357,192.73651 c -1.18098,-8.91452 -4.34297,-16.99092 -9.90503,-22.93392 v 0 c -5.9049,-5.56205 -13.9813,-8.72403 -22.89582,-9.90503 -8.53354,-1.10478 -14.32417,-0.83811 -14.32417,-0.83811 0,0 -5.79062,-0.26667 -14.32418,0.83811 -8.91451,1.21908 -16.9909,4.38107 -22.89582,9.94313 -5.56204,5.9049 -8.72403,13.9813 -9.90501,22.89582 -1.14288,8.53354 -0.83812,14.32417 -0.83812,14.32417 0,0 -0.26667,5.79062 0.83812,14.32418 1.18098,8.9145 4.34297,16.9909 9.90501,22.89582 v 0 c 5.90492,5.56204 13.98131,8.72403 22.89582,9.90501 8.49546,1.14288 14.32418,0.83811 14.32418,0.83811 0,0 5.79063,0.26668 14.32417,-0.83811 8.91452,-1.18098 16.99092,-4.34297 22.89582,-9.90501 v 0 c 5.56206,-5.90492 8.72405,-13.98132 9.90503,-22.89582 1.14288,-8.53356 0.83811,-14.32418 0.83811,-14.32418 0,0 0.26667,-5.79063 -0.83811,-14.32417"
   id="path10-5"
   style="fill:#b92a2a;fill-opacity:1;stroke-width:0.380962" /><path
   d="m 235.86082,181.73356 c 4.6999,4.69989 4.6999,12.26773 0,16.97154 l -36.67191,36.67191 c -6.26782,6.26783 -16.35929,6.26783 -22.62724,0 -6.2678,-6.26778 -6.2678,-16.35928 0,-22.62722 l 36.67193,-36.67191 2.82798,2.82798 -36.67192,36.67191 c -4.69991,4.69994 -4.69991,12.26773 0,16.97159 4.6999,4.69989 12.2677,4.69989 16.97155,0 l 36.67191,-36.67196 c 3.13185,-3.13185 3.13185,-8.17978 0,-11.31179 -3.13185,-3.13185 -8.17978,-3.13185 -11.31179,0 l -36.67192,36.67192 c -1.56789,1.56792 -1.56789,4.09186 0,5.65583 1.5679,1.56789 4.08792,1.56789 5.65581,0 l 33.84333,-33.84333 2.82798,2.82801 -33.8433,33.8433 c -3.13189,3.13189 -8.1798,3.13189 -11.31181,0 -3.13186,-3.13185 -3.13186,-8.17978 0,-11.31179 l 36.67194,-36.67191 c 4.69989,-4.6999 12.26768,-4.6999 16.97154,0"
   color-rendering="auto"
   fill="#ffffff"
   image-rendering="auto"
   shape-rendering="auto"
   stroke-width="3.99995"
   id="path14"
   style="fill:#ffffff;fill-opacity:1" /></svg>
