<?xml version="1.0" encoding="UTF-8" standalone="no"?>
<svg
   width="256"
   height="256"
   viewBox="0 0 67.733333 67.733333"
   version="1.1"
   id="svg108"
   sodipodi:docname="ktrip.svg"
   inkscape:version="1.1 (c4e8f9ed74, 2021-05-24)"
   xmlns:inkscape="http://www.inkscape.org/namespaces/inkscape"
   xmlns:sodipodi="http://sodipodi.sourceforge.net/DTD/sodipodi-0.dtd"
   xmlns:xlink="http://www.w3.org/1999/xlink"
   xmlns="http://www.w3.org/2000/svg"
   xmlns:svg="http://www.w3.org/2000/svg">
  <defs
     id="defs112">
    <linearGradient
       inkscape:collect="always"
       xlink:href="#f"
       id="linearGradient1051"
       gradientUnits="userSpaceOnUse"
       x1="32.114254"
       y1="263.09515"
       x2="32.114254"
       y2="271.94937" />
    <linearGradient
       inkscape:collect="always"
       xlink:href="#f"
       id="linearGradient1053"
       gradientUnits="userSpaceOnUse"
       x1="32.114254"
       y1="263.09515"
       x2="32.114254"
       y2="271.94937" />
    <linearGradient
       inkscape:collect="always"
       xlink:href="#f"
       id="linearGradient1055"
       gradientUnits="userSpaceOnUse"
       x1="32.114254"
       y1="263.09515"
       x2="32.114254"
       y2="271.94937" />
    <linearGradient
       inkscape:collect="always"
       xlink:href="#f"
       id="linearGradient1057"
       gradientUnits="userSpaceOnUse"
       x1="32.114254"
       y1="263.09515"
       x2="32.114254"
       y2="271.94937" />
    <linearGradient
       inkscape:collect="always"
       xlink:href="#f"
       id="linearGradient1059"
       gradientUnits="userSpaceOnUse"
       x1="32.114254"
       y1="263.09515"
       x2="32.114254"
       y2="271.94937" />
    <linearGradient
       inkscape:collect="always"
       xlink:href="#f"
       id="linearGradient1061"
       gradientUnits="userSpaceOnUse"
       x1="32.114254"
       y1="263.09515"
       x2="32.114254"
       y2="271.94937" />
  </defs>
  <sodipodi:namedview
     id="namedview110"
     pagecolor="#ffffff"
     bordercolor="#666666"
     borderopacity="1.0"
     inkscape:pageshadow="2"
     inkscape:pageopacity="0.0"
     inkscape:pagecheckerboard="0"
     showgrid="false"
     inkscape:zoom="1.1600971"
     inkscape:cx="72.407734"
     inkscape:cy="135.3335"
     inkscape:window-width="1920"
     inkscape:window-height="1009"
     inkscape:window-x="0"
     inkscape:window-y="0"
     inkscape:window-maximized="1"
     inkscape:current-layer="svg108" />
  <linearGradient
     id="a">
    <stop
       stop-color="#4d4d4d"
       offset="0"
       id="stop2" />
    <stop
       stop-color="#7f8c8d"
       offset="1"
       id="stop4" />
  </linearGradient>
  <linearGradient
     id="b"
     x1="17.304167"
     x2="17.304167"
     y1="285.00003"
     y2="257.00003"
     gradientUnits="userSpaceOnUse"
     xlink:href="#a"
     gradientTransform="matrix(1.6660019,0,0,1.6657937,-6.099878,-420.89272)" />
  <linearGradient
     id="c"
     x1="24"
     x2="24"
     y1="294"
     y2="257"
     gradientTransform="matrix(6.2967001,0,0,6.1460103,-23.054657,-1553.0002)"
     gradientUnits="userSpaceOnUse">
    <stop
       stop-color="#1d99f3"
       offset="0"
       id="stop8" />
    <stop
       stop-color="#3daee9"
       offset="1"
       id="stop10" />
  </linearGradient>
  <linearGradient
     id="d"
     x1="24.183334"
     x2="24.183334"
     y1="285.00003"
     y2="257.00003"
     gradientUnits="userSpaceOnUse"
     xlink:href="#a"
     gradientTransform="matrix(1.6660019,0,0,1.6657937,-6.099878,-420.89272)" />
  <linearGradient
     id="e"
     x1="29.588079"
     x2="29.588079"
     y1="281.11707"
     y2="290.73599"
     gradientTransform="matrix(6.2966997,0,0,6.2959132,-55.505635,-1590.7756)"
     gradientUnits="userSpaceOnUse">
    <stop
       stop-opacity=".2"
       offset="0"
       id="stop14" />
    <stop
       stop-color="#fff"
       stop-opacity="0"
       offset="1"
       id="stop16" />
  </linearGradient>
  <linearGradient
     id="f">
    <stop
       stop-color="#232629"
       offset="0"
       id="stop19" />
    <stop
       stop-color="#31363b"
       offset="1"
       id="stop21" />
  </linearGradient>
  <linearGradient
     id="g"
     x1="32.114254"
     x2="32.114254"
     y1="263.09515"
     y2="271.94937"
     gradientUnits="userSpaceOnUse"
     xlink:href="#f"
     gradientTransform="matrix(6.2967001,0,0,6.2959132,-23.054657,-1590.7756)" />
  <linearGradient
     id="h"
     x1="32.114254"
     x2="32.114254"
     y1="263.09515"
     y2="271.94937"
     gradientUnits="userSpaceOnUse"
     xlink:href="#f" />
  <linearGradient
     id="i"
     x1="90.319038"
     x2="120.33868"
     y1="-162.79909"
     y2="139.84253"
     gradientTransform="matrix(1.6660018,0,0,1.6657937,-23.054662,-23.093226)"
     gradientUnits="userSpaceOnUse">
    <stop
       stop-color="#2980b9"
       offset="0"
       id="stop26" />
    <stop
       stop-color="#3daee9"
       stop-opacity="0"
       offset="1"
       id="stop28" />
  </linearGradient>
  <linearGradient
     id="j"
     x1="24"
     x2="24"
     y1="294"
     y2="257"
     gradientTransform="matrix(6.2967001,0,0,8.2457167,-23.054657,-2155.2551)"
     gradientUnits="userSpaceOnUse">
    <stop
       stop-color="#27ae60"
       offset="0"
       id="stop31" />
    <stop
       stop-color="#2ecc71"
       offset="1"
       id="stop33" />
  </linearGradient>
  <path
     style="opacity:0.1;fill:#000000;stroke-width:0.264583"
     d="m 35.136631,0.13229167 c 1.640417,0 4.788958,0.07937 8.810625,0.608541 6.270625,0.82020903 11.932708,3.04270903 16.086667,6.95854203 v 0 c 3.889374,4.1539583 6.111875,9.8160413 6.932083,16.1131253 0.79375,5.979583 0.608541,10.054166 0.608541,10.054166 0,0 0.185209,4.074583 -0.608541,10.054166 -0.820208,6.270626 -3.042709,11.932709 -6.958542,16.113126 v 0 c -4.153958,3.915833 -9.816041,6.111874 -16.086666,6.958541 -3.995209,0.529167 -7.14375,0.608542 -8.784167,0.608542 -0.820208,0 -1.243541,-0.02646 -1.243541,-0.02646 0,0 -0.449792,0.02646 -1.243542,0.02646 -1.640417,0 -4.788958,-0.07938 -8.784167,-0.608542 C 17.594756,66.172291 11.932673,63.949791 7.7787149,60.033958 v 0 c -3.96875,-4.153959 -6.19125,-9.816042 -7.01145797,-16.113126 -0.79375,-5.979583 -0.608542,-10.054166 -0.608542,-10.054166 0,0 -0.185208,-4.074583 0.608542,-10.054166 C 1.5874649,17.515416 3.8099649,11.853333 7.7257979,7.6993747 v 0 C 11.853298,3.7835417 17.54184,1.5610417 23.786006,0.74083267 c 3.995209,-0.529166 7.14375,-0.608541 8.810625,-0.608541 0.820209,0 1.243542,0.02646 1.243542,0.02646 0,0 0.47625,-0.02646 1.296458,-0.02646"
     id="path4"
     inkscape:connector-curvature="0" />
  <path
     id="rect40"
     style="fill:url(#c);stroke-width:6.29631"
     d="M 122.00977,1.9375 C 115.58789,1.9960941 104.4004,2.4257812 90.400391,4.3007812 67.000391,7.40078 45.798829,15.70078 30.298828,30.300781 15.698831,45.80078 7.4988256,67.000391 4.2988281,90.400391 2.4238281,104.33789 2.0332039,115.54004 2.0039062,121.98242 1.9863277,125.84785 2.0996094,128 2.0996094,128 c 0,0 -0.7007825,15.19961 2.1992187,37.59961 3.0999988,23.4 11.4000029,44.60155 25.9999999,60.10156 11.053731,10.34514 24.878272,17.51153 40.316406,21.92188 H 185.40039 c 15.46185,-4.41032 29.31568,-11.57648 40.29883,-21.92188 14.6,-15.60001 22.9,-36.70156 26,-60.10156 3,-22.3 2.20117,-37.59961 2.20117,-37.59961 0,0 0.79883,-15.19961 -2.20117,-37.599609 -3.1,-23.4 -11.4,-44.599611 -26,-60.09961 C 210.09922,15.70078 188.99961,7.40078 165.59961,4.3007812 143.19961,1.3007811 128,2 128,2 c 0,0 -2.13711,-0.097657 -5.99023,-0.0625 z"
     transform="scale(0.26458333)" />
  <path
     id="path42"
     style="fill:url(#i)"
     d="M 172.03711,8.2539062 V 64.916016 L 140.55078,33.441406 V 96.402344 L 71.289062,27.140625 V 83.814453 L 39.802734,52.328125 v 6.298828 L 27.203125,46.027344 V 123.97656 C 120.79821,114.50139 178.13269,94.104425 251.08789,86.248047 247.84859,66.125412 240.62097,47.828188 228.68359,33.658203 l 0.0156,31.257813 z"
     transform="scale(0.26458333)" />
  <path
     id="path44"
     d="M 165.71289,8.2539062 V 20.853516 h -6.28711 v 44.0625 H 140.52539 V 33.441406 H 127.9375 v 6.298828 h -6.29883 V 64.916016 H 90.152344 L 77.564453,52.328125 v -6.300781 l -6.300781,-6.28711 V 27.140625 H 58.677734 v 6.300781 h -6.300781 v 31.47461 L 39.777344,77.515625 v -25.1875 H 27.189453 V 46.027344 H 18.666016 C 11.158268,58.979535 6.5200669,74.157569 4.2988281,90.400391 2.4238281,104.33789 2.0332039,115.54004 2.0039062,121.98242 1.9863277,125.84785 2.0996094,128 2.0996094,128 c 0,0 -0.7007825,15.19961 2.1992187,37.59961 1.8063186,13.6348 5.3942733,26.51244 10.9492189,37.96094 H 240.73047 c 5.56666,-11.45053 9.1602,-24.30938 10.96875,-37.96094 3,-22.3 2.20117,-37.59961 2.20117,-37.59961 0,0 0.79883,-15.19961 -2.20117,-37.599609 -2.51048,-18.949994 -8.43241,-36.454648 -18.34766,-50.660157 h -4.66406 l -0.008,-6.08789 c -0.96383,-1.143886 -1.95485,-2.26272 -2.98047,-3.351563 -2.69341,-2.520751 -5.56157,-4.841374 -8.56641,-6.992187 L 203.47461,36.972656 203.5,52.328125 H 190.90039 V 46.027344 L 178.3125,33.441406 v -12.58789 h -6.29883 V 8.2539062 Z"
     transform="scale(0.26458333)"
     style="fill:#2980b9;fill-opacity:1" />
  <path
     d="M 5.5621353,7.2162609 H 15.558147 V 35.228048 H 5.5621353 Z"
     fill="none"
     id="path46"
     style="stroke-width:1.6659" />
  <path
     d="m 27.727023,48.896535 a 4.9980054,4.9973808 0 0 1 -4.989151,4.997381 4.9980054,4.9973808 0 0 1 -5.006829,-4.979674 4.9980054,4.9973808 0 0 1 4.971413,-5.015022 4.9980054,4.9973808 0 0 1 5.024442,4.9619"
     fill="url(#b)"
     id="path48"
     style="fill:url(#b);stroke-width:1.6659" />
  <path
     id="path50"
     style="fill:url(#j)"
     d="m 18.572266,209.84961 c 3.334207,5.75485 7.228631,11.07636 11.726562,15.85156 15.6,14.6 36.701563,22.9 60.101563,26 22.300009,3 37.599609,2.19922 37.599609,2.19922 0,0 15.19961,0.70078 37.59961,-2.19922 23.4,-3.1 44.59961,-11.4 60.09961,-26 4.48666,-4.79397 8.37249,-10.11165 11.70117,-15.85156 z"
     transform="scale(0.26458333)" />
  <path
     id="path52"
     style="fill:url(#e)"
     d="m 251.97266,163.44531 -155.201176,2.47657 -84.08789,7.4082 66.345703,66.34375 H 205.74219 c 7.34691,-3.7896 14.06511,-8.42285 19.95703,-13.97266 14.6,-15.6 22.89999,-36.70156 26,-60.10156 0.0986,-0.73311 0.18286,-1.43662 0.27344,-2.1543 z"
     transform="scale(0.26458333)" />
  <path
     d="m 39.18773,48.896535 a 4.9980054,4.9973808 0 0 1 -4.989153,4.997381 4.9980054,4.9973808 0 0 1 -5.006827,-4.979674 4.9980054,4.9973808 0 0 1 4.971411,-5.015022 4.9980054,4.9973808 0 0 1 5.024442,4.9619"
     fill="url(#d)"
     id="path54"
     style="fill:url(#d);stroke-width:1.6659" />
  <path
     d="m 47.238214,3.7382669 a 0.83308425,0.83298014 0 0 0 -0.452293,0.1269335 l -9.996011,5.966923 a 0.83308425,0.83298014 0 0 0 0.143176,1.4998636 l 18.326021,6.663175 a 0.83372031,0.83361612 0 1 0 0.566181,-1.568178 l -16.67629,-6.064539 8.489451,-5.0689598 a 0.83308425,0.83298014 0 0 0 -0.40023,-1.5551683 z"
     fill="#2c3e50"
     id="path56"
     style="stroke-width:1.6659" />
  <g
     transform="matrix(1.6668352,0,0,1.6668353,-6.1373797,-6.1569641)"
     id="g64">
    <path
       id="path58"
       d="m 129.32812,52.451172 -0.0371,0.02344 a 49.832107,49.825853 0 0 0 -0.23243,-0.01172 49.832107,49.825853 0 0 0 -33.529293,13.27539 l -0.123047,0.05078 -83.142578,73.531248 0.01367,0.0117 A 22.232652,22.229863 0 0 0 4.5488281,156.22656 22.232652,22.229863 0 0 0 26.783203,178.37305 H 249.42773 c 0.94081,-4.1646 1.69606,-8.42988 2.27149,-12.77344 3,-22.3 2.20117,-37.59961 2.20117,-37.59961 0,0 0.79883,-15.19962 -2.20117,-37.599609 -1.80482,-13.623473 -5.37679,-26.498082 -10.92383,-37.939453 z"
       transform="matrix(0.15873395,0,0,0.15873394,3.6820555,3.6938047)"
       style="fill:#bdc3c7;fill-opacity:1" />
    <path
       id="path60"
       d="m 129.32812,52.451172 -0.0371,0.02344 a 49.832107,49.825853 0 0 0 -0.23243,-0.01172 49.832107,49.825853 0 0 0 -33.529293,13.27539 l -0.123047,0.05078 -83.142578,73.531248 0.01367,0.0117 A 22.232652,22.229863 0 0 0 4.7949199,152.96482 22.232652,22.229863 0 0 0 26.783201,172.0742 v 0.0117 H 250.69531 c 0.3805,-2.13988 0.71478,-4.30384 1.00391,-6.48633 3,-22.3 2.20117,-37.59961 2.20117,-37.59961 0,0 0.79883,-15.19961 -2.20117,-37.599609 C 249.8944,76.776922 246.32243,63.90231 240.77539,52.460938 Z"
       transform="matrix(0.15873395,0,0,0.15873394,3.6820555,3.6938047)"
       style="fill:#fdfdfd;fill-opacity:1" />
    <path
       id="path62"
       d="M 71.066406,8.2285156 C 65.087336,9.9084376 59.347833,12.002625 53.917969,14.529297 H 202.03906 C 196.61444,12.002778 190.88586,9.9083693 184.91602,8.2285156 H 94.396484 Z"
       transform="matrix(0.15873395,0,0,0.15873394,3.6820555,3.6938047)"
       style="fill:#34495e;fill-opacity:1" />
  </g>
  <path
     id="path66"
     d="m 25.048828,128.01172 -12.783203,11.30859 0.01172,0.0117 a 22.232652,22.229864 0 0 0 -5.6718752,7.56836 c 82.6892632,-1.3e-4 165.2315102,-1.2e-4 246.9199202,0 0.71976,-11.62362 0.37616,-18.86637 0.375,-18.88867 -76.02582,-6e-5 -151.48684,-7e-5 -228.851561,0 z"
     transform="scale(0.26458333)"
     style="fill:#da4453;fill-opacity:1" />
  <g
     fill="#34495e"
     id="g80"
     transform="matrix(1.6660019,0,0,1.6657937,-6.099878,-420.89272)">
    <path
       d="m 17.813678,269.58765 a 1.4123354,1.4123347 0 0 1 -1.409834,1.41233 1.4123354,1.4123347 0 0 1 -1.414828,-1.40733 1.4123354,1.4123347 0 0 1 1.404821,-1.41732 1.4123354,1.4123347 0 0 1 1.419805,1.40231"
       id="path68" />
    <rect
       transform="skewY(8.4396683e-4)"
       x="22.915226"
       y="262.99966"
       width="8.0847721"
       height="7.999876"
       ry="0.99987602"
       id="rect70" />
    <path
       transform="skewY(1.7303325e-4)"
       d="M 16.401342,268.17529 H 29 v 2.82463 H 16.401342 Z"
       id="path72" />
    <path
       d="m 15.478807,268.51826 5.28127,-4.67136 2.15515,-0.8469 c 0,0 0.441992,1.92888 0.572656,2.50902 0.130664,0.58014 -0.187386,3.36775 -0.187386,3.36775 l -6.454553,0.87932 z"
       id="path74" />
    <path
       d="m 26.080824,266.16559 a 3.1655984,3.1655967 0 0 1 -3.15999,3.16559 3.1655984,3.1655967 0 0 1 -3.171187,-3.15438 3.1655984,3.1655967 0 0 1 3.148755,-3.17676 3.1655984,3.1655967 0 0 1 3.182343,3.14312"
       id="path76" />
    <path
       d="m 22.999998,263 h 3 v 1 h -3 z"
       id="path78" />
  </g>
  <path
     id="path82"
     d="m 191.03516,65.050781 c -3.48838,0 -6.29883,2.810891 -6.29883,6.298828 V 109.125 c 0,3.48794 2.81045,6.28711 6.29883,6.28711 h 62.80468 c -0.23027,-6.43459 -0.7909,-14.93373 -2.14062,-25.011719 -1.16922,-8.825707 -3.07942,-17.337613 -5.78711,-25.34961 z"
     transform="scale(0.26458333)"
     style="fill:#34495e;fill-opacity:1" />
  <path
     id="path84"
     style="fill:url(#g)"
     d="m 191.03516,71.349609 c -3.48838,0 -6.29883,2.801126 -6.29883,6.289063 V 109.125 c 0,3.48794 2.81045,6.28711 6.29883,6.28711 h 62.80468 c -0.23027,-6.43459 -0.79089,-14.93373 -2.14062,-25.011719 -0.86797,-6.551734 -2.15979,-12.920803 -3.86719,-19.050782 z"
     transform="scale(0.26458333)" />
  <g
     transform="matrix(1.5608044,0,0,1.4575681,-2.8387576,-364.46357)"
     fill="url(#h)"
     id="g98"
     style="fill:url(#h)">
    <path
       d="m 17.813678,269.58765 a 1.4123354,1.4123347 0 0 1 -1.409834,1.41233 1.4123354,1.4123347 0 0 1 -1.414828,-1.40733 1.4123354,1.4123347 0 0 1 1.404821,-1.41732 1.4123354,1.4123347 0 0 1 1.419805,1.40231"
       id="path86"
       style="fill:url(#linearGradient1051)" />
    <rect
       transform="skewY(8.4396683e-4)"
       x="22.915226"
       y="262.99966"
       width="8.0847721"
       height="7.999876"
       ry="0.99987602"
       id="rect88"
       style="fill:url(#linearGradient1053)" />
    <path
       transform="skewY(1.7303325e-4)"
       d="M 16.401342,268.17529 H 29 v 2.82463 H 16.401342 Z"
       id="path90"
       style="fill:url(#linearGradient1055)" />
    <path
       d="m 15.478807,268.51826 5.28127,-4.67136 2.15515,-0.8469 c 0,0 0.441992,1.92888 0.572656,2.50902 0.130664,0.58014 -0.187386,3.36775 -0.187386,3.36775 l -6.454553,0.87932 z"
       id="path92"
       style="fill:url(#linearGradient1057)" />
    <path
       d="m 26.080824,266.16559 a 3.1655984,3.1655967 0 0 1 -3.15999,3.16559 3.1655984,3.1655967 0 0 1 -3.171187,-3.15438 3.1655984,3.1655967 0 0 1 3.148755,-3.17676 3.1655984,3.1655967 0 0 1 3.182343,3.14312"
       id="path94"
       style="fill:url(#linearGradient1059)" />
    <path
       d="m 22.999998,263 h 3 v 1 h -3 z"
       id="path96"
       style="fill:url(#linearGradient1061)" />
  </g>
  <path
     id="path100"
     style="fill:#34495e;fill-opacity:1;stroke-width:6.29631"
     d="m 15.248047,203.56055 c 2.145396,4.42156 4.57663,8.6356 7.326172,12.58789 H 233.40234 c 2.75105,-3.95793 5.18114,-8.17158 7.32813,-12.58789 z"
     transform="scale(0.26458333)" />
  <path
     id="path102"
     style="fill:#3daee9;fill-opacity:1;stroke-width:6.29631"
     d="m 15.248047,203.56055 c 1.043343,2.15028 2.145375,4.25664 3.330078,6.30078 H 237.39453 c 1.18631,-2.04499 2.29115,-4.15168 3.33594,-6.30078 z"
     transform="scale(0.26458333)" />
  <path
     d="m 42.214177,3.7447801 a 0.83308425,0.83298014 0 1 0 0,1.6657937 h 8.33001 a 0.83308425,0.83298014 0 1 0 0,-1.6657937 z"
     fill="#233240"
     id="path104"
     style="stroke-width:1.6659" />
</svg>
