<?xml version="1.0" encoding="UTF-8" standalone="no"?>
<!-- Generator: Adobe Illustrator 23.0.0, SVG Export Plug-In . SVG Version: 6.00 Build 0)  -->

<svg
   version="1.1"
   id="레이어_1"
   x="0px"
   y="0px"
   viewBox="0 0 256 256"
   style="enable-background:new 0 0 256 256;"
   xml:space="preserve"
   sodipodi:docname="kvantum.svg"
   inkscape:version="1.1 (c4e8f9ed74, 2021-05-24)"
   xmlns:inkscape="http://www.inkscape.org/namespaces/inkscape"
   xmlns:sodipodi="http://sodipodi.sourceforge.net/DTD/sodipodi-0.dtd"
   xmlns="http://www.w3.org/2000/svg"
   xmlns:svg="http://www.w3.org/2000/svg"
   xmlns:ns="&amp;ns_sfw;"><defs
   id="defs37" /><sodipodi:namedview
   id="namedview35"
   pagecolor="#ffffff"
   bordercolor="#666666"
   borderopacity="1.0"
   inkscape:pageshadow="2"
   inkscape:pageopacity="0.0"
   inkscape:pagecheckerboard="0"
   showgrid="false"
   inkscape:zoom="2.4609375"
   inkscape:cx="128"
   inkscape:cy="155.63175"
   inkscape:window-width="1920"
   inkscape:window-height="1009"
   inkscape:window-x="0"
   inkscape:window-y="0"
   inkscape:window-maximized="1"
   inkscape:current-layer="레이어_1" />
<style
   type="text/css"
   id="style2">
	.st0{opacity:0.1;}
	.st1{fill:#F0256C;}
	.st2{fill:url(#SVGID_1_);}
	.st3{fill:url(#SVGID_2_);}
	.st4{fill:#FFFFFF;}
</style>
<metadata
   id="metadata4">
	<ns:sfw>
		<ns:slices />
		<ns:sliceSourceBounds
   bottomLeftOrigin="true"
   height="255.1"
   width="255"
   x="0.5"
   y="-255.5" />
	</ns:sfw>
</metadata>
<g
   class="st0"
   id="g10">
	<g
   id="g8">
		<path
   d="M132.7,0.5c6.2,0,18.1,0.3,33.3,2.3c23.7,3.1,45.1,11.5,60.9,26.3h0C241.6,44.8,250,66.3,253.2,90c3,22.6,2.3,38,2.3,38    s0.7,15.4-2.3,38c-3.1,23.7-11.5,45.1-26.3,60.9l0,0c-15.7,14.8-37.2,23.2-60.9,26.3c-15.1,2-27.1,2.3-33.3,2.3    c-3.1,0-4.7-0.1-4.7-0.1s-1.7,0.1-4.7,0.1c-6.2,0-18.1-0.3-33.3-2.3c-23.7-3.1-45.1-11.5-60.9-26.3l0,0    C14.4,211.2,6,189.7,2.8,166c-3-22.6-2.3-38-2.3-38s-0.7-15.4,2.3-38C6,66.3,14.4,44.8,29.1,29.1h0C44.9,14.3,66.3,5.9,90,2.8    c15.2-2,27.1-2.3,33.3-2.3c3.1,0,4.7,0.1,4.7,0.1S129.7,0.5,132.7,0.5"
   id="path6" />
	</g>
</g>
<path
   class="st1"
   d="M251.7,90.4c-3.1-23.4-11.4-44.6-26-60.2h0c-15.5-14.6-36.7-22.9-60.1-26C143.2,1.3,128,2,128,2  s-15.2-0.7-37.6,2.2C67,7.4,45.8,15.7,30.3,30.3C15.7,45.8,7.4,67,4.3,90.4c-3,22.4-2.2,37.6-2.2,37.6s-0.7,15.2,2.2,37.6  c3.1,23.4,11.4,44.6,26,60.1v0c15.5,14.6,36.7,22.9,60.1,26c22.3,3,37.6,2.2,37.6,2.2s15.2,0.7,37.6-2.2c23.4-3.1,44.6-11.4,60.1-26  l0,0c14.6-15.5,22.9-36.7,26-60.1c3-22.4,2.2-37.6,2.2-37.6S254.6,112.8,251.7,90.4z"
   id="path12" />
<radialGradient
   id="SVGID_1_"
   cx="100.8819"
   cy="91.1075"
   r="285.122"
   fx="125.785"
   fy="-124.9069"
   gradientTransform="matrix(1 0 0 -1 0 258)"
   gradientUnits="userSpaceOnUse">
	<stop
   offset="0.2655"
   style="stop-color:#F76251"
   id="stop14" />
	<stop
   offset="0.6575"
   style="stop-color:#F76251;stop-opacity:0"
   id="stop16" />
</radialGradient>
<path
   class="st2"
   d="M251.7,90.4c-3.1-23.4-11.4-44.6-26-60.1l0,0c-15.6-14.6-36.7-22.9-60.1-26C143.2,1.3,128,2,128,2  s-15.2-0.7-37.6,2.3c-23.4,3-44.6,11.4-60.1,26C15.7,45.7,7.5,67,4.3,90.4c-3,22.3-2.2,37.6-2.2,37.6s-0.7,15.2,2.2,37.6  c3.1,23.4,11.4,44.6,26,60.1l0,0c15.6,14.6,36.7,22.9,60.1,26c22.3,3,37.6,2.2,37.6,2.2s15.2,0.7,37.6-2.2  c23.4-3.1,44.6-11.4,60.1-26l0,0c14.6-15.6,22.9-36.7,26-60.1c3-22.3,2.2-37.6,2.2-37.6S254.7,112.7,251.7,90.4L251.7,90.4z"
   id="path19" />
<radialGradient
   id="SVGID_2_"
   cx="23.5182"
   cy="175.708"
   r="185.7909"
   fx="-151.8152"
   fy="221.406"
   gradientTransform="matrix(1 0 0 -1.0839 0 310.5595)"
   gradientUnits="userSpaceOnUse">
	<stop
   offset="0.3953"
   style="stop-color:#C902EC"
   id="stop21" />
	<stop
   offset="1"
   style="stop-color:#C902EC;stop-opacity:0"
   id="stop23" />
</radialGradient>
<path
   class="st3"
   d="M251.7,90.4c-3.1-23.4-11.4-44.6-26-60.1l0,0c-15.6-14.6-36.7-22.9-60.1-26C143.2,1.3,128,2,128,2  s-15.2-0.7-37.6,2.3c-23.4,3-44.6,11.4-60.1,26C15.7,45.7,7.5,67,4.3,90.4c-3,22.3-2.2,37.6-2.2,37.6s-0.7,15.2,2.2,37.6  c3.1,23.4,11.4,44.6,26,60.1l0,0c15.6,14.6,36.7,22.9,60.1,26c22.3,3,37.6,2.2,37.6,2.2s15.2,0.7,37.6-2.2  c23.4-3.1,44.6-11.4,60.1-26l0,0c14.6-15.6,22.9-36.7,26-60.1c3-22.3,2.2-37.6,2.2-37.6S254.7,112.7,251.7,90.4L251.7,90.4z"
   id="path26" />

<path
   id="path37399"
   style="font-style:italic;font-size:127.11px;line-height:1.25;font-family:'Noto Serif';-inkscape-font-specification:'Noto Serif Italic';fill:#ffffff;stroke-width:1.05925"
   d="M 65.355469 84.351562 L 64.210938 89.689453 L 65.863281 89.689453 C 68.574961 89.689453 70.779809 89.986898 72.474609 90.580078 C 74.169409 91.173258 75.015625 92.570197 75.015625 94.773438 C 75.015625 95.790317 74.846772 96.978144 74.507812 98.333984 L 61.287109 160.61719 C 60.439709 164.59997 58.871964 167.14252 56.583984 168.24414 C 54.296004 169.26102 51.713191 169.76953 48.832031 169.76953 L 47.179688 169.76953 L 46.162109 175.10742 L 83.150391 175.10742 L 84.294922 169.76953 L 82.642578 169.76953 C 80.015638 169.76953 77.812743 169.47209 76.033203 168.87891 C 74.338403 168.20099 73.490234 166.80405 73.490234 164.68555 C 73.490234 163.66867 73.659087 162.48084 73.998047 161.125 L 78.193359 141.04297 L 91.285156 131.89062 L 103.61523 163.28711 C 104.80159 166.25301 106.15827 168.62476 107.68359 170.4043 C 109.29365 172.0991 111.53876 173.32914 114.41992 174.0918 C 117.38582 174.76972 121.41169 175.10742 126.49609 175.10742 L 128.27539 175.10742 L 129.41797 169.76953 L 129.03711 169.76953 C 126.15595 169.76953 123.7842 168.92136 121.91992 167.22656 C 120.05564 165.53176 118.40347 162.98921 116.96289 159.59961 L 101.58203 122.48438 L 124.7168 101.51172 C 128.78432 97.783157 132.34194 94.858734 135.39258 92.740234 C 138.44322 90.621734 141.40986 89.5625 144.29102 89.5625 L 145.30859 84.351562 L 117.2168 84.351562 L 116.19922 89.5625 C 118.31772 89.5625 119.75882 89.775519 120.52148 90.199219 C 121.36888 90.538179 121.79297 91.257755 121.79297 92.359375 C 121.79297 93.460995 121.02923 94.859888 119.50391 96.554688 C 118.06333 98.249488 115.64937 100.66345 112.25977 103.79883 L 79.464844 133.92383 L 87.21875 98.841797 C 88.06615 94.859017 89.591682 92.358677 91.794922 91.341797 C 94.082902 90.240177 96.667668 89.689453 99.548828 89.689453 L 101.20117 89.689453 L 102.34375 84.351562 L 65.355469 84.351562 z M 193.35547 106.3418 C 191.32171 106.3418 189.37209 107.18801 187.50781 108.88281 C 185.64353 110.49287 184.71094 113.03543 184.71094 116.50977 C 187.08366 116.50977 188.99106 117.40015 190.43164 119.17969 C 191.87222 120.87449 192.5918 123.20402 192.5918 126.16992 C 192.5918 128.71212 191.95665 131.72097 190.68555 135.19531 C 189.41445 138.66965 187.67785 142.31365 185.47461 146.12695 C 183.35611 149.85551 180.85577 153.54173 177.97461 157.18555 C 175.17819 160.82937 172.25572 164.13371 169.20508 167.09961 L 168.82227 167.09961 C 168.73753 165.65903 168.52646 163.75163 168.1875 161.37891 C 167.84854 158.92145 167.46667 156.21004 167.04297 153.24414 C 166.70401 150.27824 166.32214 147.39798 165.89844 144.60156 L 160.05273 106.97656 L 140.98633 106.97656 L 139.96875 112.31445 L 141.24023 112.31445 C 143.69769 112.31445 145.64731 112.78075 147.08789 113.71289 C 148.61321 114.56029 149.58607 116.34105 150.00977 119.05273 L 158.9082 176.25195 L 170.34766 174.98047 C 173.22882 172.09931 176.44873 168.49752 180.00781 164.17578 C 183.65163 159.7693 187.12678 154.98164 190.43164 149.8125 C 193.82124 144.55862 196.57486 139.22024 198.69336 133.79688 C 200.8966 128.37351 201.99805 123.16177 201.99805 118.16211 C 201.99805 113.92511 201.23626 110.91626 199.71094 109.13672 C 198.18562 107.27244 196.06715 106.3418 193.35547 106.3418 z " /></svg>
