<?xml version="1.0" encoding="UTF-8" standalone="no"?>
<!-- Generator: Adobe Illustrator 23.0.0, SVG Export Plug-In . SVG Version: 6.00 Build 0)  -->

<svg
   version="1.1"
   id="레이어_1"
   x="0px"
   y="0px"
   viewBox="0 0 256 256"
   style="enable-background:new 0 0 256 256;"
   xml:space="preserve"
   sodipodi:docname="kwave.svg"
   inkscape:version="1.1.1 (3bf5ae0d25, 2021-09-20)"
   xmlns:inkscape="http://www.inkscape.org/namespaces/inkscape"
   xmlns:sodipodi="http://sodipodi.sourceforge.net/DTD/sodipodi-0.dtd"
   xmlns:xlink="http://www.w3.org/1999/xlink"
   xmlns="http://www.w3.org/2000/svg"
   xmlns:svg="http://www.w3.org/2000/svg"><defs
   id="defs23">
	
	

		
		
		
		
	
			
		
				
			<linearGradient
   inkscape:collect="always"
   xlink:href="#linearGradient859"
   id="linearGradient861"
   x1="38.119999"
   y1="127.88071"
   x2="217.3"
   y2="127.88071"
   gradientUnits="userSpaceOnUse"
   gradientTransform="matrix(1.0111673,0,0,1.0111673,-1.0657,-1.470597)" /><linearGradient
   inkscape:collect="always"
   id="linearGradient859"><stop
     style="stop-color:#ffffff;stop-opacity:0"
     offset="0"
     id="stop855" /><stop
     id="stop867"
     offset="0.11310416"
     style="stop-color:#ffffff;stop-opacity:0.07272727" /><stop
     id="stop863"
     offset="0.28204215"
     style="stop-color:#ffffff;stop-opacity:0.98636365" /><stop
     style="stop-color:#ffffff;stop-opacity:0.99545455"
     offset="0.67053866"
     id="stop865" /><stop
     style="stop-color:#ffffff;stop-opacity:0;"
     offset="1"
     id="stop857" /></linearGradient></defs><sodipodi:namedview
   id="namedview21"
   pagecolor="#ffffff"
   bordercolor="#666666"
   borderopacity="1.0"
   inkscape:pageshadow="2"
   inkscape:pageopacity="0.0"
   inkscape:pagecheckerboard="0"
   showgrid="false"
   inkscape:zoom="2.4609375"
   inkscape:cx="-19.301587"
   inkscape:cy="127.79683"
   inkscape:window-width="1920"
   inkscape:window-height="1013"
   inkscape:window-x="0"
   inkscape:window-y="0"
   inkscape:window-maximized="1"
   inkscape:current-layer="레이어_1" />
<style
   type="text/css"
   id="style2">
	.st0{opacity:0.1;}
	.st1{fill:#E67828;}
	.st2{fill:#FFE192;}
	.st3{fill:#FFFFFF;}
</style>
<path
   d="m 132.7,0.5 c 6.2,0 18.1,0.3 33.3,2.3 23.7,3.1 45.1,11.5 60.9,26.3 v 0 c 14.7,15.7 23.1,37.2 26.3,60.9 3,22.6 2.3,38 2.3,38 0,0 0.7,15.4 -2.3,38 -3.1,23.7 -11.5,45.1 -26.3,60.9 v 0 c -15.7,14.8 -37.2,23.2 -60.9,26.3 -15.1,2 -27.1,2.3 -33.3,2.3 -3.1,0 -4.7,-0.1 -4.7,-0.1 0,0 -1.7,0.1 -4.7,0.1 -6.2,0 -18.1,-0.3 -33.3,-2.3 -23.7,-3.1 -45.1,-11.5 -60.9,-26.3 v 0 C 14.4,211.2 6,189.7 2.8,166 -0.2,143.4 0.5,128 0.5,128 0.5,128 -0.2,112.6 2.8,90 6,66.3 14.4,44.8 29.1,29.1 v 0 C 44.9,14.3 66.3,5.9 90,2.8 c 15.2,-2 27.1,-2.3 33.3,-2.3 3.1,0 4.7,0.1 4.7,0.1 0,0 1.7,-0.1 4.7,-0.1"
   id="path4"
   style="opacity:0.1;fill:#000000;fill-opacity:1" /><path
   class="st1"
   d="M 251.7,90.4 C 248.6,67 240.3,45.8 225.7,30.2 v 0 C 210.2,15.6 189,7.3 165.6,4.2 143.2,1.3 128,2 128,2 128,2 112.8,1.3 90.4,4.2 67,7.4 45.8,15.7 30.3,30.3 15.7,45.8 7.4,67 4.3,90.4 1.3,112.8 2.1,128 2.1,128 c 0,0 -0.7,15.2 2.2,37.6 3.1,23.4 11.4,44.6 26,60.1 v 0 c 15.5,14.6 36.7,22.9 60.1,26 22.3,3 37.6,2.2 37.6,2.2 0,0 15.2,0.7 37.6,-2.2 23.4,-3.1 44.6,-11.4 60.1,-26 v 0 c 14.6,-15.5 22.9,-36.7 26,-60.1 3,-22.4 2.2,-37.6 2.2,-37.6 0,0 0.7,-15.2 -2.2,-37.6"
   id="path10"
   style="fill:#549fff;fill-opacity:1" />

<path
   class="cls-5"
   d="m 182.96675,138.12105 h 35.6942 v -19.26274 h -41.76121 a 11.021723,11.021723 0 0 0 -9.47463,6.44114 L 151.12509,164.66419 122.7214,58.623074 a 9.6364241,9.6364241 0 0 0 -11.80032,-6.815267 v 0 a 9.6162008,9.6162008 0 0 0 -6.85571,6.977054 L 79.19065,118.85831 H 37.48 v 19.28296 h 48.687704 a 9.1005055,9.1005055 0 0 0 8.979166,-7.46241 c 0,-0.0607 0.06067,-0.11123 0.08089,-0.1719 L 111.49744,91.233219 139.86069,197.0721 a 9.6263125,9.6263125 0 0 0 18.20101,1.15273 l 0.12134,-0.25279 z"
   id="path55"
   inkscape:connector-curvature="0"
   style="fill:url(#linearGradient861);fill-opacity:1;stroke-width:1.01117" /><circle
   class="cls-6"
   cx="209.84358"
   cy="128.61607"
   r="9.6364241"
   id="circle57"
   style="fill:#ffffff;fill-opacity:1;stroke-width:1.01117" /></svg>
