<?xml version="1.0" encoding="UTF-8" standalone="no"?>
<!-- Generator: Adobe Illustrator 23.0.0, SVG Export Plug-In . SVG Version: 6.00 Build 0)  -->

<svg
   version="1.1"
   id="레이어_1"
   x="0px"
   y="0px"
   viewBox="0 0 256 256"
   style="enable-background:new 0 0 256 256;"
   xml:space="preserve"
   sodipodi:docname="manjaro-settings-manager.svg"
   inkscape:version="1.1.1 (3bf5ae0d25, 2021-09-20)"
   xmlns:inkscape="http://www.inkscape.org/namespaces/inkscape"
   xmlns:sodipodi="http://sodipodi.sourceforge.net/DTD/sodipodi-0.dtd"
   xmlns="http://www.w3.org/2000/svg"
   xmlns:svg="http://www.w3.org/2000/svg"><defs
   id="defs25">
	
	

		
		
		
	
			
		
				
			
			
			
		</defs><sodipodi:namedview
   id="namedview23"
   pagecolor="#ffffff"
   bordercolor="#666666"
   borderopacity="1.0"
   inkscape:pageshadow="2"
   inkscape:pageopacity="0.0"
   inkscape:pagecheckerboard="0"
   showgrid="false"
   inkscape:zoom="2.4609375"
   inkscape:cx="128"
   inkscape:cy="160.30476"
   inkscape:window-width="1920"
   inkscape:window-height="1007"
   inkscape:window-x="0"
   inkscape:window-y="0"
   inkscape:window-maximized="1"
   inkscape:current-layer="레이어_1" />
<style
   type="text/css"
   id="style2">
	.st0{opacity:0.1;}
	.st1{fill:#5D7E95;}
	.st2{fill:#FFFFFF;}
	.st3{fill:#3E606D;}
</style>
<path
   d="m 132.7,0.5 c 6.2,0 18.1,0.3 33.3,2.3 23.7,3.1 45.1,11.5 60.9,26.3 v 0 c 14.7,15.7 23.1,37.2 26.3,60.9 3,22.6 2.3,38 2.3,38 0,0 0.7,15.4 -2.3,38 -3.1,23.7 -11.5,45.1 -26.3,60.9 v 0 c -15.7,14.8 -37.2,23.2 -60.9,26.3 -15.1,2 -27.1,2.3 -33.3,2.3 -3.1,0 -4.7,-0.1 -4.7,-0.1 0,0 -1.7,0.1 -4.7,0.1 -6.2,0 -18.1,-0.3 -33.3,-2.3 -23.7,-3.1 -45.1,-11.5 -60.9,-26.3 v 0 C 14.4,211.2 6,189.7 2.8,166 -0.2,143.4 0.5,128 0.5,128 0.5,128 -0.2,112.6 2.8,90 6,66.3 14.4,44.8 29.1,29.1 v 0 C 44.9,14.3 66.3,5.9 90,2.8 c 15.2,-2 27.1,-2.3 33.3,-2.3 3.1,0 4.7,0.1 4.7,0.1 0,0 1.7,-0.1 4.7,-0.1"
   id="path4"
   style="opacity:0.1;fill:#000000;fill-opacity:1" /><path
   class="st1"
   d="M 251.7,90.4 C 248.6,67 240.3,45.8 225.7,30.3 v 0 C 210.1,15.7 189,7.4 165.6,4.3 143.2,1.3 128,2 128,2 128,2 112.8,1.3 90.4,4.3 67,7.4 45.8,15.7 30.3,30.3 15.7,45.8 7.5,67 4.3,90.4 1.3,112.7 2.1,128 2.1,128 c 0,0 -0.7,15.2 2.2,37.6 3.1,23.4 11.4,44.6 26,60.1 v 0 c 15.6,14.6 36.7,22.9 60.1,26 22.3,3 37.6,2.2 37.6,2.2 0,0 15.2,0.7 37.6,-2.2 23.4,-3.1 44.6,-11.4 60.1,-26 v 0 c 14.6,-15.6 22.9,-36.7 26,-60.1 3,-22.3 2.2,-37.6 2.2,-37.6 0,0 0.8,-15.2 -2.2,-37.6"
   id="path10"
   style="fill:#579d6b;fill-opacity:1" /><path
   class="st2"
   d="m 204.4,109.7 -10.6,-25.5 -0.6,-0.6 c -2.2,1 -4.7,1.6 -7.3,1.6 -9.6,0 -17.4,-7.8 -17.4,-17.4 0,-2.3 0.5,-4.4 1.2,-6.4 L 144.1,50.8 c -2.5,6.5 -8.8,11.1 -16.2,11.1 -7.4,0 -13.6,-4.6 -16.2,-11.1 L 86.2,61.4 c 0.8,2 1.2,4.2 1.2,6.4 0,9.6 -7.8,17.4 -17.4,17.4 -2.6,0 -5.1,-0.6 -7.3,-1.6 l -0.6,0.6 -10.6,25.5 c 8,1.6 14,8.6 14,17 0,8.8 -6.6,16.1 -15.1,17.2 l 11.3,27.3 c 2.5,-1.3 5.3,-2.1 8.3,-2.1 9.6,0 17.4,7.8 17.4,17.4 0,2.9 -0.7,5.7 -2,8.1 l 25.7,10.6 c 1.9,-7.6 8.7,-13.2 16.8,-13.2 8.1,0 14.9,5.6 16.8,13.2 l 26.6,-11 c -1.8,-2.8 -2.9,-6.1 -2.9,-9.6 0,-9.6 7.8,-17.4 17.4,-17.4 3.3,0 6.3,0.9 8.9,2.5 l 10.7,-25.8 c -8.5,-1.1 -15.1,-8.4 -15.1,-17.2 0.1,-8.4 6.1,-15.4 14.1,-17 z"
   id="path12" />

<path
   id="path2"
   style="fill:#2b8225;fill-opacity:1;stroke-width:1.09375"
   d="M 93 93 L 93 163 L 112.6875 163 L 112.6875 112.6875 L 137.84375 112.6875 L 137.84375 93 L 93 93 z M 143.3125 93 L 143.3125 163 L 163 163 L 163 93 L 143.3125 93 z M 118.15625 118.15625 L 118.15625 163 L 137.84375 163 L 137.84375 118.15625 L 118.15625 118.15625 z " /></svg>
