<?xml version="1.0" encoding="UTF-8" standalone="no"?>
<!-- Generator: Adobe Illustrator 23.0.0, SVG Export Plug-In . SVG Version: 6.00 Build 0)  -->

<svg
   version="1.1"
   id="레이어_1"
   x="0px"
   y="0px"
   viewBox="0 0 256 256"
   style="enable-background:new 0 0 256 256;"
   xml:space="preserve"
   sodipodi:docname="multitasking-view.svg"
   inkscape:version="1.1 (c4e8f9ed74, 2021-05-24)"
   xmlns:inkscape="http://www.inkscape.org/namespaces/inkscape"
   xmlns:sodipodi="http://sodipodi.sourceforge.net/DTD/sodipodi-0.dtd"
   xmlns="http://www.w3.org/2000/svg"
   xmlns:svg="http://www.w3.org/2000/svg"><defs
   id="defs11" /><sodipodi:namedview
   id="namedview9"
   pagecolor="#ffffff"
   bordercolor="#666666"
   borderopacity="1.0"
   inkscape:pageshadow="2"
   inkscape:pageopacity="0.0"
   inkscape:pagecheckerboard="0"
   showgrid="false"
   inkscape:zoom="2.4609375"
   inkscape:cx="128"
   inkscape:cy="128"
   inkscape:window-width="1920"
   inkscape:window-height="1009"
   inkscape:window-x="0"
   inkscape:window-y="0"
   inkscape:window-maximized="1"
   inkscape:current-layer="레이어_1" />
<style
   type="text/css"
   id="style2">
	.st0{fill:#5D7E95;}
	.st1{fill:#FFFFFF;}
</style>
<path
   class="st0"
   d="M251.7,90.4c-3.1-23.4-11.4-44.6-26-60.1l0,0c-15.6-14.6-36.7-22.9-60.1-26C143.2,1.3,128,2,128,2  s-15.2-0.7-37.6,2.3C67,7.4,45.8,15.7,30.3,30.3C15.7,45.8,7.5,67,4.3,90.4c-3,22.3-2.2,37.6-2.2,37.6s-0.7,15.2,2.2,37.6  c3.1,23.4,11.4,44.6,26,60.1l0,0c15.6,14.6,36.7,22.9,60.1,26c22.3,3,37.6,2.2,37.6,2.2s15.2,0.7,37.6-2.2  c23.4-3.1,44.6-11.4,60.1-26l0,0c14.6-15.6,22.9-36.7,26-60.1c3-22.3,2.2-37.6,2.2-37.6S254.7,112.8,251.7,90.4"
   id="path4" />

<path
   id="rect850"
   style="fill:#ffffff;stroke-width:1.03217;fill-opacity:1"
   d="M 58.826172,64 C 52.828923,64 48,68.828923 48,74.826172 V 181.17383 C 48,187.17108 52.828923,192 58.826172,192 c 21.391276,0 42.782548,0 64.173828,0 0,-44.07496 0,-90.04352 0,-128 -21.39128,0 -42.782552,0 -64.173828,0 z M 133,64 c 0,19.666667 0,39.33333 0,59 25,0 50,0 75,0 0,-16.75586 0,-33.511719 0,-50.267578 C 208,67.894203 204.1058,64 199.26758,64 177.17839,64 155.08919,64 133,64 Z m 0,69 c 0,19.66667 0,39.33333 0,59 21.65951,0 43.31901,0 64.97852,0 5.5522,0 10.02148,-4.46928 10.02148,-10.02148 0,-16.32617 0,-32.65235 0,-48.97852 -25,0 -50,0 -75,0 z"
   sodipodi:nodetypes="csscccccccccccccccc" /></svg>
