<?xml version="1.0" encoding="UTF-8" standalone="no"?>
<!-- Generator: Adobe Illustrator 23.0.0, SVG Export Plug-In . SVG Version: 6.00 Build 0)  -->

<svg
   version="1.1"
   id="레이어_1"
   x="0px"
   y="0px"
   viewBox="0 0 256 256"
   style="enable-background:new 0 0 256 256;"
   xml:space="preserve"
   sodipodi:docname="pidgin.svg"
   inkscape:version="1.1.1 (3bf5ae0d25, 2021-09-20)"
   xmlns:inkscape="http://www.inkscape.org/namespaces/inkscape"
   xmlns:sodipodi="http://sodipodi.sourceforge.net/DTD/sodipodi-0.dtd"
   xmlns="http://www.w3.org/2000/svg"
   xmlns:svg="http://www.w3.org/2000/svg"><defs
   id="defs23">
	
	

		
		
		
		
	
			
		
				
			</defs><sodipodi:namedview
   id="namedview21"
   pagecolor="#ffffff"
   bordercolor="#666666"
   borderopacity="1.0"
   inkscape:pageshadow="2"
   inkscape:pageopacity="0.0"
   inkscape:pagecheckerboard="0"
   showgrid="false"
   inkscape:zoom="3.1914062"
   inkscape:cx="48.254591"
   inkscape:cy="128"
   inkscape:window-width="1920"
   inkscape:window-height="1013"
   inkscape:window-x="0"
   inkscape:window-y="0"
   inkscape:window-maximized="1"
   inkscape:current-layer="레이어_1" />
<style
   type="text/css"
   id="style2">
	.st0{opacity:0.1;}
	.st1{fill:#E67828;}
	.st2{fill:#FFE192;}
	.st3{fill:#FFFFFF;}
</style>
<path
   d="m 132.7,0.5 c 6.2,0 18.1,0.3 33.3,2.3 23.7,3.1 45.1,11.5 60.9,26.3 v 0 c 14.7,15.7 23.1,37.2 26.3,60.9 3,22.6 2.3,38 2.3,38 0,0 0.7,15.4 -2.3,38 -3.1,23.7 -11.5,45.1 -26.3,60.9 v 0 c -15.7,14.8 -37.2,23.2 -60.9,26.3 -15.1,2 -27.1,2.3 -33.3,2.3 -3.1,0 -4.7,-0.1 -4.7,-0.1 0,0 -1.7,0.1 -4.7,0.1 -6.2,0 -18.1,-0.3 -33.3,-2.3 -23.7,-3.1 -45.1,-11.5 -60.9,-26.3 v 0 C 14.4,211.2 6,189.7 2.8,166 -0.2,143.4 0.5,128 0.5,128 0.5,128 -0.2,112.6 2.8,90 6,66.3 14.4,44.8 29.1,29.1 v 0 C 44.9,14.3 66.3,5.9 90,2.8 c 15.2,-2 27.1,-2.3 33.3,-2.3 3.1,0 4.7,0.1 4.7,0.1 0,0 1.7,-0.1 4.7,-0.1"
   id="path4"
   style="opacity:0.1;fill:#000000;fill-opacity:1" /><path
   class="st1"
   d="M 251.7,90.4 C 248.6,67 240.3,45.8 225.7,30.2 v 0 C 210.2,15.6 189,7.3 165.6,4.2 143.2,1.3 128,2 128,2 128,2 112.8,1.3 90.4,4.2 67,7.4 45.8,15.7 30.3,30.3 15.7,45.8 7.4,67 4.3,90.4 1.3,112.8 2.1,128 2.1,128 c 0,0 -0.7,15.2 2.2,37.6 3.1,23.4 11.4,44.6 26,60.1 v 0 c 15.5,14.6 36.7,22.9 60.1,26 22.3,3 37.6,2.2 37.6,2.2 0,0 15.2,0.7 37.6,-2.2 23.4,-3.1 44.6,-11.4 60.1,-26 v 0 c 14.6,-15.5 22.9,-36.7 26,-60.1 3,-22.4 2.2,-37.6 2.2,-37.6 0,0 0.7,-15.2 -2.2,-37.6"
   id="path10"
   style="fill:#9e00a4;fill-opacity:1" />

<path
   id="rect1150"
   style="fill:#ffffff;stroke-width:1.48883"
   d="M 68.166016 66.599609 C 58.711082 66.599609 51.099609 74.211082 51.099609 83.666016 L 51.099609 160.13281 C 51.099609 169.58775 58.711082 177.19922 68.166016 177.19922 L 79.099609 177.19922 L 79.099609 211.19922 L 113.09961 177.19922 L 187.83398 177.19922 C 197.28892 177.19922 204.90039 169.58775 204.90039 160.13281 L 204.90039 83.666016 C 204.90039 74.211082 197.28892 66.599609 187.83398 66.599609 L 68.166016 66.599609 z " /><path
   id="path1685"
   style="fill:#68009e;fill-opacity:1;stroke-width:1.3524"
   d="M 86 108 A 14 14 0 0 0 72 122 A 14 14 0 0 0 86 136 A 14 14 0 0 0 100 122 A 14 14 0 0 0 86 108 z M 128 108 A 14 14 0 0 0 114 122 A 14 14 0 0 0 128 136 A 14 14 0 0 0 142 122 A 14 14 0 0 0 128 108 z M 170 108 A 14 14 0 0 0 156 122 A 14 14 0 0 0 170 136 A 14 14 0 0 0 184 122 A 14 14 0 0 0 170 108 z " /></svg>
