<?xml version="1.0" encoding="UTF-8" standalone="no"?>
<svg
   version="1.1"
   id="레이어_1"
   x="0px"
   y="0px"
   viewBox="0 0 256 256"
   style="enable-background:new 0 0 256 256;"
   xml:space="preserve"
   sodipodi:docname="preferences-desktop-gestures-touch.svg"
   inkscape:version="1.1 (c4e8f9ed74, 2021-05-24)"
   xmlns:inkscape="http://www.inkscape.org/namespaces/inkscape"
   xmlns:sodipodi="http://sodipodi.sourceforge.net/DTD/sodipodi-0.dtd"
   xmlns="http://www.w3.org/2000/svg"
   xmlns:svg="http://www.w3.org/2000/svg"
   xmlns:rdf="http://www.w3.org/1999/02/22-rdf-syntax-ns#"
   xmlns:cc="http://creativecommons.org/ns#"
   xmlns:dc="http://purl.org/dc/elements/1.1/"><metadata
   id="metadata17"><rdf:RDF><cc:Work
       rdf:about=""><dc:format>image/svg+xml</dc:format><dc:type
         rdf:resource="http://purl.org/dc/dcmitype/StillImage" /></cc:Work></rdf:RDF></metadata><defs
   id="defs15" /><sodipodi:namedview
   pagecolor="#ffffff"
   bordercolor="#666666"
   borderopacity="1"
   objecttolerance="10"
   gridtolerance="10"
   guidetolerance="10"
   inkscape:pageopacity="0"
   inkscape:pageshadow="2"
   inkscape:window-width="1920"
   inkscape:window-height="1009"
   id="namedview13"
   showgrid="false"
   inkscape:zoom="1.84375"
   inkscape:cx="244.0678"
   inkscape:cy="230.50848"
   inkscape:window-x="0"
   inkscape:window-y="0"
   inkscape:window-maximized="1"
   inkscape:current-layer="레이어_1"
   inkscape:document-rotation="0"
   inkscape:pagecheckerboard="0"
   showguides="true" />
<style
   type="text/css"
   id="style2">
	.st0{fill:#5D7E95;}
	.st1{fill:#FFFFFF;}
</style>
<path
   class="st0"
   d="M251.7,90.4c-3.1-23.4-11.4-44.6-26-60.1l0,0c-15.6-14.6-36.7-22.9-60.1-26C143.2,1.3,128,2,128,2  s-15.2-0.7-37.6,2.3C67,7.4,45.8,15.7,30.3,30.3C15.7,45.8,7.5,67,4.3,90.4c-3,22.3-2.2,37.6-2.2,37.6s-0.7,15.2,2.2,37.6  c3.1,23.4,11.4,44.6,26,60.1l0,0c15.6,14.6,36.7,22.9,60.1,26c22.3,3,37.6,2.2,37.6,2.2s15.2,0.7,37.6-2.2  c23.4-3.1,44.6-11.4,60.1-26l0,0c14.6-15.6,22.9-36.7,26-60.1c3-22.3,2.2-37.6,2.2-37.6S254.7,112.8,251.7,90.4"
   id="path4"
   style="fill:#28b9d8;fill-opacity:1" />



<path
   id="rect909"
   style="fill:#ffffff;stroke-width:4.23451"
   d="M 64.064453 65.964844 C 57.689623 65.964844 52.556641 71.09392 52.556641 77.46875 L 52.556641 182.63086 C 52.556641 189.00569 57.689623 194.13672 64.064453 194.13672 L 150.20312 194.13672 L 139.84961 183.45703 L 67.349609 183.45703 C 65.071699 183.45703 63.238281 181.62166 63.238281 179.34375 L 63.238281 80.757812 C 63.238281 78.479902 65.071699 76.646484 67.349609 76.646484 L 193.70703 76.646484 C 195.98494 76.646484 197.81836 78.479902 197.81836 80.757812 L 197.81836 132.68945 C 197.98446 132.66645 198.15206 132.64455 198.31836 132.62305 L 204.53125 132.62305 C 205.90134 132.62354 207.25595 132.92207 208.5 133.49609 L 208.5 77.46875 C 208.5 71.09392 203.36897 65.964844 196.99414 65.964844 L 64.064453 65.964844 z M 171.0918 117.50781 C 167.0032 117.50781 163.71094 120.79812 163.71094 124.88672 L 163.71094 168.55469 L 163.71094 170.27734 L 155.35938 161.92383 C 152.4683 159.03275 147.81295 159.03275 144.92188 161.92383 C 142.0308 164.8149 142.0308 169.4683 144.92188 172.35938 L 160.57617 188.01562 C 160.57617 188.01562 172.13771 205.24321 182.16211 205.45508 L 204.30273 205.45508 C 214.52423 205.45508 221.13672 197.22736 221.13672 187.00586 L 222.75195 155.88477 C 222.75195 151.79617 219.46165 148.50391 215.37305 148.50391 C 211.28445 148.50391 207.99219 151.79617 207.99219 155.88477 L 207.99219 151.45508 C 207.99219 147.36648 204.70188 144.07617 200.61328 144.07617 C 196.52468 144.07617 193.23242 147.36648 193.23242 151.45508 L 193.23242 147.02734 C 193.23242 142.93874 189.94016 139.64844 185.85156 139.64844 C 181.76296 139.64844 178.47266 142.93874 178.47266 147.02734 L 178.47266 124.88672 C 178.47266 120.79812 175.1804 117.5078 171.0918 117.50781 z " /></svg>
