<?xml version="1.0" encoding="UTF-8" standalone="no"?>
<!-- Generator: Adobe Illustrator 23.0.0, SVG Export Plug-In . SVG Version: 6.00 Build 0)  -->

<svg
   version="1.1"
   id="레이어_1"
   x="0px"
   y="0px"
   viewBox="0 0 256 256"
   style="enable-background:new 0 0 256 256;"
   xml:space="preserve"
   sodipodi:docname="kcolorchooser.svg"
   inkscape:version="1.1.1 (3bf5ae0d25, 2021-09-20)"
   xmlns:inkscape="http://www.inkscape.org/namespaces/inkscape"
   xmlns:sodipodi="http://sodipodi.sourceforge.net/DTD/sodipodi-0.dtd"
   xmlns="http://www.w3.org/2000/svg"
   xmlns:svg="http://www.w3.org/2000/svg"
   xmlns:ns="&amp;#38;ns_sfw;"><defs
   id="defs41"><style
   type="text/css"
   id="current-color-scheme">
      .ColorScheme-Text {
        color:#dedede;
      }
      </style>
	

		
	</defs><sodipodi:namedview
   id="namedview39"
   pagecolor="#ffffff"
   bordercolor="#666666"
   borderopacity="1.0"
   inkscape:pageshadow="2"
   inkscape:pageopacity="0.0"
   inkscape:pagecheckerboard="0"
   showgrid="false"
   inkscape:zoom="2.4609375"
   inkscape:cx="54.247619"
   inkscape:cy="127.79683"
   inkscape:window-width="1920"
   inkscape:window-height="1013"
   inkscape:window-x="0"
   inkscape:window-y="0"
   inkscape:window-maximized="1"
   inkscape:current-layer="레이어_1" />
<style
   type="text/css"
   id="style2">
	.st0{opacity:0.1;}
	.st1{fill:#F74569;}
	.st2{fill:url(#SVGID_1_);}
	.st3{fill:url(#SVGID_2_);}
	.st4{fill:url(#SVGID_3_);}
	.st5{fill-rule:evenodd;clip-rule:evenodd;fill:#FFFFFF;}
</style>
<metadata
   id="metadata4">
	<ns:sfw>
		<ns:slices />
		<ns:sliceSourceBounds
   bottomLeftOrigin="true"
   height="255"
   width="255.1"
   x="0.4"
   y="0.5" />
	</ns:sfw>
</metadata>
<path
   d="m 132.7,0.5 c 6.2,0 18.1,0.3 33.3,2.3 23.7,3.1 45.1,11.5 60.9,26.3 v 0 c 14.7,15.7 23.1,37.2 26.3,60.9 3,22.6 2.3,38 2.3,38 0,0 0.7,15.4 -2.3,38 -3.1,23.7 -11.5,45.1 -26.3,60.9 v 0 c -15.7,14.8 -37.2,23.2 -60.9,26.3 -15.1,2 -27.1,2.3 -33.3,2.3 -3.1,0 -4.7,-0.1 -4.7,-0.1 0,0 -1.7,0.1 -4.7,0.1 -6.2,0 -18.1,-0.3 -33.3,-2.3 -23.7,-3.1 -45.1,-11.5 -60.9,-26.3 v 0 C 14.4,211.2 6,189.7 2.8,166 -0.2,143.4 0.5,128 0.5,128 0.5,128 -0.2,112.6 2.8,90 6,66.3 14.4,44.8 29.1,29.1 v 0 C 44.9,14.3 66.3,5.9 90,2.8 c 15.2,-2 27.1,-2.3 33.3,-2.3 3.1,0 4.7,0.1 4.7,0.1 0,0 1.7,-0.1 4.7,-0.1"
   id="path6"
   style="opacity:0.1" />
<path
   class="st1"
   d="M251.7,90.4c-3.1-23.4-11.4-44.6-26-60.1l0,0c-15.6-14.6-36.7-22.9-60.1-26C143.2,1.3,128,2,128,2  s-15.2-0.7-37.6,2.3C67,7.3,45.8,15.7,30.3,30.3C15.7,45.7,7.5,67,4.3,90.4c-3,22.3-2.2,37.6-2.2,37.6s-0.7,15.2,2.2,37.6  c3.1,23.4,11.4,44.6,26,60.1l0,0c15.6,14.6,36.7,22.9,60.1,26c22.3,3,37.6,2.2,37.6,2.2s15.2,0.7,37.6-2.2  c23.4-3.1,44.6-11.4,60.1-26l0,0c14.6-15.6,22.9-36.7,26-60.1c3-22.3,2.2-37.6,2.2-37.6S254.7,112.7,251.7,90.4L251.7,90.4z"
   id="path12"
   clip-path="none" />
<radialGradient
   id="SVGID_1_"
   cx="138.8032"
   cy="118.8218"
   r="285.122"
   fx="211.1394"
   fy="323.8824"
   gradientUnits="userSpaceOnUse">
	<stop
   offset="0.2655"
   style="stop-color:#F7BA60"
   id="stop14" />
	<stop
   offset="0.6575"
   style="stop-color:#F7BA60;stop-opacity:0"
   id="stop16" />
</radialGradient>
<path
   class="st2"
   d="M251.7,90.4c-3.1-23.4-11.4-44.6-26-60.1l0,0c-15.6-14.6-36.7-22.9-60.1-26C143.2,1.3,128,2,128,2  s-15.2-0.7-37.6,2.3C67,7.3,45.8,15.7,30.3,30.3C15.7,45.7,7.5,67,4.3,90.4c-3,22.3-2.2,37.6-2.2,37.6s-0.7,15.2,2.2,37.6  c3.1,23.4,11.4,44.6,26,60.1l0,0c15.6,14.6,36.7,22.9,60.1,26c22.3,3,37.6,2.2,37.6,2.2s15.2,0.7,37.6-2.2  c23.4-3.1,44.6-11.4,60.1-26l0,0c14.6-15.6,22.9-36.7,26-60.1c3-22.3,2.2-37.6,2.2-37.6S254.7,112.7,251.7,90.4L251.7,90.4z"
   id="path19" />
<radialGradient
   id="SVGID_2_"
   cx="141.968"
   cy="125.1515"
   r="192.1981"
   fx="289.2518"
   fy="101.7262"
   gradientTransform="matrix(1 0 0 1.421 0 -52.6849)"
   gradientUnits="userSpaceOnUse">
	<stop
   offset="0.2289"
   style="stop-color:#64BDF2"
   id="stop21" />
	<stop
   offset="0.7572"
   style="stop-color:#64BDF2;stop-opacity:0"
   id="stop23" />
</radialGradient>
<path
   class="st3"
   d="M251.7,90.4c-3.1-23.4-11.4-44.6-26-60.1l0,0c-15.6-14.6-36.7-22.9-60.1-26C143.2,1.3,128,2,128,2  s-15.2-0.7-37.6,2.3C67,7.3,45.8,15.7,30.3,30.3C15.7,45.7,7.5,67,4.3,90.4c-3,22.3-2.2,37.6-2.2,37.6s-0.7,15.2,2.2,37.6  c3.1,23.4,11.4,44.6,26,60.1l0,0c15.6,14.6,36.7,22.9,60.1,26c22.3,3,37.6,2.2,37.6,2.2s15.2,0.7,37.6-2.2  c23.4-3.1,44.6-11.4,60.1-26l0,0c14.6-15.6,22.9-36.7,26-60.1c3-22.3,2.2-37.6,2.2-37.6S254.7,112.7,251.7,90.4L251.7,90.4z"
   id="path26" />
<radialGradient
   id="SVGID_3_"
   cx="124.9115"
   cy="94.1302"
   r="185.7909"
   fx="85.4749"
   fy="-82.7169"
   gradientTransform="matrix(1 0 0 0.7153 0 26.7972)"
   gradientUnits="userSpaceOnUse">
	<stop
   offset="0.3141"
   style="stop-color:#C848AF"
   id="stop28" />
	<stop
   offset="0.8209"
   style="stop-color:#C848AF;stop-opacity:0"
   id="stop30" />
</radialGradient>
<path
   class="st4"
   d="M251.7,90.4c-3.1-23.4-11.4-44.6-26-60.1l0,0c-15.6-14.6-36.7-22.9-60.1-26C143.2,1.3,128,2,128,2  s-15.2-0.7-37.6,2.3C67,7.3,45.8,15.7,30.3,30.3C15.7,45.7,7.5,67,4.3,90.4c-3,22.3-2.2,37.6-2.2,37.6s-0.7,15.2,2.2,37.6  c3.1,23.4,11.4,44.6,26,60.1l0,0c15.6,14.6,36.7,22.9,60.1,26c22.3,3,37.6,2.2,37.6,2.2s15.2,0.7,37.6-2.2  c23.4-3.1,44.6-11.4,60.1-26l0,0c14.6-15.6,22.9-36.7,26-60.1c3-22.3,2.2-37.6,2.2-37.6S254.7,112.7,251.7,90.4L251.7,90.4z"
   id="path33" />

<path
   style="fill:#ffffff;fill-opacity:1;stroke:none;stroke-width:14"
   d="M 127.99999,45 C 112.9948,98.454792 72,130.02115 72,159.54296 72,189.06476 97.072036,213 127.99999,213 c 30.92795,0 55.99998,-23.93524 55.99998,-53.45704 0,-29.52181 -40.99479,-61.088168 -55.99998,-114.54296 z m 38.49999,87.25391 a 47.999992,45.818177 0 0 1 9.48821,27.28905 47.999992,45.818177 0 0 1 -47.9882,45.82812 47.999992,45.818177 0 0 1 -28.519531,-9.05077 55.99999,53.45454 0 0 0 12.523411,1.39454 55.99999,53.45454 0 0 0 55.99999,-53.42968 55.99999,53.45454 0 0 0 -1.50388,-12.03126 z"
   class="ColorScheme-Text"
   id="path860" /></svg>
