<?xml version="1.0" encoding="UTF-8" standalone="no"?>
<!-- Created with Inkscape (http://www.inkscape.org/) -->

<svg
   width="256"
   height="256"
   viewBox="0 0 67.733331 67.733335"
   version="1.1"
   id="svg994"
   inkscape:version="1.1 (c4e8f9ed74, 2021-05-24)"
   sodipodi:docname="system-suspend-hibernate.svg"
   xmlns:inkscape="http://www.inkscape.org/namespaces/inkscape"
   xmlns:sodipodi="http://sodipodi.sourceforge.net/DTD/sodipodi-0.dtd"
   xmlns="http://www.w3.org/2000/svg"
   xmlns:svg="http://www.w3.org/2000/svg">
  <sodipodi:namedview
     id="namedview996"
     pagecolor="#ffffff"
     bordercolor="#666666"
     borderopacity="1.0"
     inkscape:pageshadow="2"
     inkscape:pageopacity="0.0"
     inkscape:pagecheckerboard="0"
     inkscape:document-units="px"
     showgrid="false"
     units="px"
     inkscape:zoom="0.56123737"
     inkscape:cx="397.33633"
     inkscape:cy="561.25984"
     inkscape:window-width="1920"
     inkscape:window-height="1009"
     inkscape:window-x="0"
     inkscape:window-y="0"
     inkscape:window-maximized="1"
     inkscape:current-layer="layer1" />
  <defs
     id="defs991" />
  <g
     inkscape:label="레이어 1"
     inkscape:groupmode="layer"
     id="layer1">
    <path
       inkscape:connector-curvature="0"
       class="st1"
       d="M 66.595531,23.919295 C 65.775655,17.728103 63.579268,12.118924 59.716399,7.9914625 v 0 C 55.615307,4.1285036 50.006218,1.9324767 43.814936,1.1123303 37.888336,0.34465234 33.866622,0.53004701 33.866622,0.53004701 c 0,0 -4.021624,-0.18539467 -9.948314,0.58228329 C 17.727116,1.9592059 12.117937,4.1549628 8.0169351,8.0179217 4.1540657,12.118924 1.9580389,17.728103 1.1378025,23.919295 c -0.79377722,5.926689 -0.5822833,9.948314 -0.5822833,9.948314 0,0 -0.18539467,4.021624 0.5822833,9.948314 0.8198764,6.191192 3.0162632,11.80037 6.8791326,15.901372 v 0 c 4.1010019,3.862959 9.7101809,6.058986 15.9013729,6.879133 5.90023,0.793777 9.948314,0.582283 9.948314,0.582283 0,0 4.021714,0.185395 9.948314,-0.582283 6.191282,-0.819877 11.800371,-3.016174 15.901463,-6.879133 v 0 c 3.862869,-4.101002 6.058896,-9.71018 6.879132,-15.901372 0.793777,-5.92669 0.582283,-9.948314 0.582283,-9.948314 0,0 0.185395,-4.021625 -0.582283,-9.948314"
       id="path10-79-19-1"
       style="fill:#5a65bc;fill-opacity:1;stroke-width:0.264582" />
    <g
       id="g39"
       class="ColorScheme-Text"
       fill="currentColor"
       style="color:#31363b;fill:#ffffff"
       transform="matrix(2.3811816,0,0,2.3811816,7.6736849,-17.539004)">
      <path
         id="path1248"
         transform="translate(0,-64)"
         d="m 6.7890625,77.707031 -0.8671875,0.5 1.6464844,2.84961 L 5.3203125,80.455078 5.0605469,81.421875 8.2753906,82.283203 9.8457031,85 H 6.7070312 L 4.3535156,82.646484 3.6464844,83.353516 5.2929688,85 H 2 v 1 H 5.2929688 L 3.6464844,87.646484 4.3535156,88.353516 6.7070312,86 h 3.1328126 l -1.5664063,2.712891 -3.2148437,0.861328 0.2578124,0.966797 2.25,-0.603516 -1.6464843,2.851562 0.8652343,0.5 1.6464844,-2.851562 0.6035156,2.25 L 10,92.427734 9.1386719,89.210938 10.994141,86 H 11 l 1.857422,3.21875 -0.861328,3.214844 0.966797,0.257812 0.601562,-2.248047 1.646485,2.851563 0.867187,-0.5 -1.646484,-2.851563 2.248047,0.601563 0.259765,-0.964844 L 13.724609,88.71875 12.154297,86 h 3.138672 l 2.353515,2.353516 0.707032,-0.707032 L 16.707031,86 H 20 v -1 h -3.292969 l 1.646485,-1.646484 -0.05078,-0.05859 H 17 L 15.292969,85 H 14 12.15625 11 V 84.998 L 10.9961,84.996 9.1425841,81.783109 10.003912,78.568265 9.0371154,78.3085 l -0.6015625,2.25 z"
         style="fill:#ffffff" />
      <g
         id="g37"
         style="fill:#ffffff">
        <path
           id="rect887-61"
           d="m 16,13 v 1 h 2.292969 l -2,2 L 16,16.29297 V 17 h 4 v -1 h -2.292969 l 2,-2 L 20,13.70703 V 13 h -0.707031 z"
           style="fill:#ffffff" />
        <path
           id="rect887-8"
           d="m 11,15 v 1 h 2.292969 l -2,2 L 11,18.29297 V 19 h 4 v -1 h -2.292969 l 2,-2 L 15,15.70703 V 15 h -0.707031 z"
           style="fill:#ffffff" />
      </g>
    </g>
  </g>
</svg>
