<?xml version="1.0" encoding="UTF-8" standalone="no"?>
<!-- Generator: Adobe Illustrator 23.0.0, SVG Export Plug-In . SVG Version: 6.00 Build 0)  -->

<svg
   version="1.1"
   id="레이어_1"
   x="0px"
   y="0px"
   viewBox="0 0 256 256"
   style="enable-background:new 0 0 256 256;"
   xml:space="preserve"
   sodipodi:docname="ubuntuone-client.svg"
   inkscape:version="1.1 (c4e8f9ed74, 2021-05-24)"
   xmlns:inkscape="http://www.inkscape.org/namespaces/inkscape"
   xmlns:sodipodi="http://sodipodi.sourceforge.net/DTD/sodipodi-0.dtd"
   xmlns="http://www.w3.org/2000/svg"
   xmlns:svg="http://www.w3.org/2000/svg"><defs
   id="defs17">
	
	

		
		
		
	</defs><sodipodi:namedview
   id="namedview15"
   pagecolor="#ffffff"
   bordercolor="#666666"
   borderopacity="1.0"
   inkscape:pageshadow="2"
   inkscape:pageopacity="0.0"
   inkscape:pagecheckerboard="0"
   showgrid="false"
   inkscape:zoom="2.4609375"
   inkscape:cx="128"
   inkscape:cy="128"
   inkscape:window-width="1920"
   inkscape:window-height="1009"
   inkscape:window-x="0"
   inkscape:window-y="0"
   inkscape:window-maximized="1"
   inkscape:current-layer="레이어_1" />
<style
   type="text/css"
   id="style2">
	.st0{fill:#E6E6E6;}
	.st1{fill:#ED6B1B;}
	.st2{fill:#FAFAFA;}
</style>
<path
   class="st0"
   d="M 251.7,90.4 C 248.6,67 240.3,45.8 225.7,30.3 v 0 C 210.1,15.7 189,7.4 165.6,4.3 143.2,1.3 128,2 128,2 128,2 112.8,1.3 90.4,4.3 67,7.4 45.8,15.7 30.3,30.3 15.7,45.8 7.5,67 4.3,90.4 1.3,112.7 2.1,128 2.1,128 c 0,0 -0.7,15.2 2.2,37.6 3.1,23.4 11.4,44.6 26,60.1 v 0 c 15.6,14.6 36.7,22.9 60.1,26 22.3,3 37.6,2.2 37.6,2.2 0,0 15.2,0.7 37.6,-2.2 23.4,-3.1 44.6,-11.4 60.1,-26 v 0 c 14.6,-15.6 22.9,-36.7 26,-60.1 3,-22.3 2.2,-37.6 2.2,-37.6 0,0 0.8,-15.2 -2.2,-37.6"
   id="path4"
   style="opacity:0.1;fill:#000000" /><path
   class="st1"
   d="m 249.8,91 c -3,-23 -11.2,-43.9 -25.6,-59.2 v 0 C 208.8,17.5 188,9.3 165,6.3 142.9,3.3 128,4 128,4 128,4 113.1,3.3 91,6.2 68,9.2 47.1,17.4 31.8,31.8 17.5,47.1 9.4,68 6.2,91 c -2.9,22 -2.1,37 -2.1,37 0,0 -0.7,15 2.1,37 3,23 11.2,43.9 25.6,59.2 v 0 c 15.4,14.4 36.2,22.6 59.2,25.6 22,2.9 37,2.1 37,2.1 0,0 14.9,0.7 37,-2.1 23,-3 43.9,-11.2 59.2,-25.6 v 0 c 14.4,-15.3 22.6,-36.1 25.6,-59.2 2.9,-22 2.1,-37 2.1,-37 0,0 0.8,-15 -2.1,-37"
   id="path6" /><path
   class="st2"
   d="m 145.4,58.2 v 22.9 9.8 71.8 H 112.1 V 90.9 h -16 c 6.5,-10.9 13,-21.8 19.5,-32.7 -14,0 -28.1,0 -42.1,0 -0.8,25.3 -0.3,46.7 0.4,63.3 1.8,40.4 5.1,51.1 12.7,59.5 10.8,12.1 26.3,15.5 36.5,16.6 11.8,0.5 25.8,0 41.4,-2.8 6.7,-1.2 13,-2.7 18.7,-4.3 0,-44.1 0,-88.2 0,-132.3 -12.7,0 -25.3,0 -37.8,0 z"
   id="path8" />

</svg>
