<?xml version="1.0" encoding="UTF-8" standalone="no"?>
<!-- Created with Inkscape (http://www.inkscape.org/) -->

<svg
   width="16"
   height="16"
   viewBox="0 0 4.2333332 4.2333335"
   version="1.1"
   id="svg5"
   inkscape:version="1.1.1 (3bf5ae0d25, 2021-09-20)"
   sodipodi:docname="folder-video.svg"
   xmlns:inkscape="http://www.inkscape.org/namespaces/inkscape"
   xmlns:sodipodi="http://sodipodi.sourceforge.net/DTD/sodipodi-0.dtd"
   xmlns="http://www.w3.org/2000/svg"
   xmlns:svg="http://www.w3.org/2000/svg">
  <sodipodi:namedview
     id="namedview7"
     pagecolor="#ffffff"
     bordercolor="#666666"
     borderopacity="1.0"
     inkscape:pageshadow="2"
     inkscape:pageopacity="0.0"
     inkscape:pagecheckerboard="0"
     inkscape:document-units="px"
     showgrid="false"
     units="px"
     height="22px"
     inkscape:zoom="16"
     inkscape:cx="-0.9375"
     inkscape:cy="17.21875"
     inkscape:window-width="1920"
     inkscape:window-height="1005"
     inkscape:window-x="0"
     inkscape:window-y="0"
     inkscape:window-maximized="1"
     inkscape:current-layer="svg5"
     inkscape:lockguides="true" />
  <defs
     id="defs2">
    <style
       id="current-color-scheme"
       type="text/css">
        .ColorScheme-Text { color:#363636; }
    </style>
  </defs>
  <path
     id="rect948"
     style="fill:currentColor;stroke-width:0.435835"
     class="ColorScheme-Text"
     d="m 0.51508484,0.26458333 c -0.13868589,0 -0.25050151,0.11181562 -0.25050151,0.25050151 V 3.7182485 c 0,0.1386859 0.11181562,0.2505015 0.25050151,0.2505015 H 3.7182485 C 3.8569344,3.96875 3.96875,3.8569344 3.96875,3.7182485 V 0.51508484 c 0,-0.13868589 -0.1118156,-0.25050151 -0.2505015,-0.25050151 z M 1.3118062,1.0807479 c 0.021313,-2.899e-4 0.04333,0.00468 0.064208,0.016278 0.5351074,0.3058272 1.0683419,0.6072971 1.6038428,0.9133811 0.083511,0.046395 0.083511,0.1760727 0,0.2224669 C 2.4479715,2.5400239 1.9174401,2.8466551 1.3855097,3.1534897 1.3019988,3.1998847 1.190625,3.1443249 1.190625,3.0422562 V 1.2087117 c 0,-0.076552 0.057243,-0.1270939 0.1211812,-0.1279638 z" />
</svg>
