<?xml version="1.0" encoding="UTF-8" standalone="no"?>
<!-- Created with Inkscape (http://www.inkscape.org/) -->

<svg
   width="16"
   height="16"
   viewBox="0 0 4.2333332 4.2333335"
   version="1.1"
   id="svg847"
   inkscape:version="1.1.1 (3bf5ae0d25, 2021-09-20)"
   sodipodi:docname="user-home\.svg"
   xmlns:inkscape="http://www.inkscape.org/namespaces/inkscape"
   xmlns:sodipodi="http://sodipodi.sourceforge.net/DTD/sodipodi-0.dtd"
   xmlns="http://www.w3.org/2000/svg"
   xmlns:svg="http://www.w3.org/2000/svg"
   xmlns:rdf="http://www.w3.org/1999/02/22-rdf-syntax-ns#"
   xmlns:cc="http://creativecommons.org/ns#"
   xmlns:dc="http://purl.org/dc/elements/1.1/">
  <defs
     id="defs841">
    <style
       id="current-color-scheme"
       type="text/css">.ColorScheme-Text { color:#363636; }</style>
  </defs>
  <sodipodi:namedview
     id="base"
     pagecolor="#ffffff"
     bordercolor="#666666"
     borderopacity="1.0"
     inkscape:pageopacity="0.0"
     inkscape:pageshadow="2"
     inkscape:zoom="49.6875"
     inkscape:cx="7.4062893"
     inkscape:cy="11.220126"
     inkscape:document-units="px"
     inkscape:current-layer="layer1"
     showgrid="false"
     units="px"
     inkscape:window-width="1920"
     inkscape:window-height="1005"
     inkscape:window-x="0"
     inkscape:window-y="0"
     inkscape:window-maximized="1"
     inkscape:pagecheckerboard="0" />
  <metadata
     id="metadata844">
    <rdf:RDF>
      <cc:Work
         rdf:about="">
        <dc:format>image/svg+xml</dc:format>
        <dc:type
           rdf:resource="http://purl.org/dc/dcmitype/StillImage" />
      </cc:Work>
    </rdf:RDF>
  </metadata>
  <g
     inkscape:label="Layer 1"
     inkscape:groupmode="layer"
     id="layer1"
     transform="translate(0,-292.76665)">
    <path
       id="rect946"
       class="ColorScheme-Text"
       style="fill:currentColor;fill-opacity:1;stroke-width:0.989509"
       d="m 2.1166667,293.03123 c 0.087974,0 0.176189,0.0306 0.2471856,0.0922 0.4877152,0.41912 0.9749002,0.83851 1.4626151,1.25763 0.086431,0.0801 0.1361109,0.19122 0.1422826,0.30205 v 1.34324 c 0,0.38829 -0.3022655,0.70297 -0.6788561,0.70297 H 2.7647752 v -1.52893 c 0,-0.17256 -0.1418482,-0.31411 -0.3147094,-0.31411 H 1.7832676 c -0.1728612,0 -0.3147095,0.14155 -0.3147095,0.31411 v 1.53496 H 0.94343937 c -0.3765902,0 -0.67885604,-0.31409 -0.67885604,-0.70237 v -1.34384 c 0,-0.12326 0.0558525,-0.23411 0.14228244,-0.30808 0.4877155,-0.41912 0.97490013,-0.83851 1.46261533,-1.25763 0.070997,-0.0616 0.1592116,-0.0922 0.2471856,-0.0922 z"
       sodipodi:nodetypes="scccsscsssscsssccs" />
  </g>
</svg>
