<?xml version="1.0" encoding="UTF-8" standalone="no"?>
<!-- Created with Inkscape (http://www.inkscape.org/) -->

<svg
   width="16"
   height="16"
   viewBox="0 0 4.2333332 4.2333335"
   version="1.1"
   id="svg5"
   inkscape:version="1.1.1 (3bf5ae0d25, 2021-09-20)"
   sodipodi:docname="folder-camera.svg"
   xmlns:inkscape="http://www.inkscape.org/namespaces/inkscape"
   xmlns:sodipodi="http://sodipodi.sourceforge.net/DTD/sodipodi-0.dtd"
   xmlns="http://www.w3.org/2000/svg"
   xmlns:svg="http://www.w3.org/2000/svg">
  <sodipodi:namedview
     id="namedview7"
     pagecolor="#ffffff"
     bordercolor="#666666"
     borderopacity="1.0"
     inkscape:pageshadow="2"
     inkscape:pageopacity="0.0"
     inkscape:pagecheckerboard="0"
     inkscape:document-units="px"
     showgrid="false"
     units="px"
     height="22px"
     inkscape:zoom="17.75"
     inkscape:cx="0.22535211"
     inkscape:cy="10"
     inkscape:window-width="1920"
     inkscape:window-height="991"
     inkscape:window-x="0"
     inkscape:window-y="0"
     inkscape:window-maximized="0"
     inkscape:current-layer="svg5" />
  <defs
     id="defs2">
    <style
       id="current-color-scheme"
       type="text/css">
        .ColorScheme-Text { color:#363636; }
    </style>
  </defs>
  <path
     id="rect846"
     style="fill:currentColor;stroke-width:0.554628"
     class="ColorScheme-Text"
     d="m 0.60668133,0.26458333 c -0.1895471,0 -0.342098,0.15255089 -0.342098,0.34209799 V 3.6266519 c 0,0.189547 0.1525509,0.3420981 0.342098,0.3420981 H 3.6266519 c 0.189547,0 0.342098,-0.1525511 0.342098,-0.3420981 V 0.60668132 c 0,-0.1895471 -0.152551,-0.34209799 -0.342098,-0.34209799 z M 1.190625,0.79374999 c 0.2191881,0 0.396875,0.17768702 0.396875,0.39687501 C 1.5875,1.409813 1.4098131,1.5875 1.190625,1.5875 0.97143693,1.5875 0.79374993,1.409813 0.79375003,1.190625 0.79588593,0.96337122 0.97649983,0.79387271 1.190625,0.79374999 Z M 2.5982908,1.8520833 c 0.056788,-0.00272 0.1140593,0.017941 0.1576134,0.061495 l 0.8159707,0.8159708 v 0.661975 c 0,0.1122902 -0.090281,0.2025716 -0.2025716,0.2025716 H 0.86402993 c -0.1122898,-3.9e-6 -0.2025716,-0.090282 -0.2025716,-0.2025716 V 3.067513 2.8142985 L 1.3415202,2.1337198 c 0.035136,-0.035134 0.08127,-0.053226 0.127124,-0.053227 0.045854,0 0.091471,0.018089 0.1266072,0.053227 l 0.3229777,0.3229777 c 0.00404,-0.00483 0.00838,-0.00941 0.01292,-0.013952 l 0.52865,-0.5291666 c 0.038429,-0.038431 0.088385,-0.059089 0.1384917,-0.061496 z"
     sodipodi:nodetypes="ssssssssscsscccscsscsccccccccc" />
</svg>
