<?xml version="1.0" encoding="UTF-8" standalone="no"?>
<!-- Created with Inkscape (http://www.inkscape.org/) -->

<svg
   width="22"
   height="22"
   viewBox="0 0 5.8208332 5.8208335"
   version="1.1"
   id="svg855"
   inkscape:version="1.1 (c4e8f9ed74, 2021-05-24)"
   sodipodi:docname="maximize.svg"
   xmlns:inkscape="http://www.inkscape.org/namespaces/inkscape"
   xmlns:sodipodi="http://sodipodi.sourceforge.net/DTD/sodipodi-0.dtd"
   xmlns="http://www.w3.org/2000/svg"
   xmlns:svg="http://www.w3.org/2000/svg">
  <sodipodi:namedview
     id="namedview857"
     pagecolor="#ffffff"
     bordercolor="#666666"
     borderopacity="1.0"
     inkscape:pageshadow="2"
     inkscape:pageopacity="0.0"
     inkscape:pagecheckerboard="0"
     inkscape:document-units="px"
     showgrid="false"
     units="px"
     inkscape:zoom="8.0000001"
     inkscape:cx="51.625"
     inkscape:cy="16.0625"
     inkscape:window-width="1920"
     inkscape:window-height="1006"
     inkscape:window-x="0"
     inkscape:window-y="0"
     inkscape:window-maximized="1"
     inkscape:current-layer="svg855" />
  <defs
     id="defs852" />
  <g
     id="active-center"
     transform="scale(1.0909091)">
    <rect
       style="opacity:1;fill:none;fill-opacity:1;stroke-width:0.0890579"
       id="rect938"
       width="5.3357639"
       height="5.3357639"
       x="-7.1054274e-15"
       y="0" />
    <path
       id="rect846-1"
       style="fill:#dfdfdf;stroke-width:0.0784229"
       d="m 3.0255722,0.97018555 c -0.06425,0.0032 -0.1151091,0.0561804 -0.1151091,0.12126735 0,0.06718 0.05409,0.1212674 0.1212673,0.1212674 H 3.9516571 L 2.8863044,2.2780729 1.7930033,3.3713741 1.21272,3.9516573 V 3.0317307 c 0,-0.06718 -0.054085,-0.1212674 -0.1212673,-0.1212674 -0.067182,0 -0.12126741,0.05409 -0.12126741,0.1212674 v 1.1624614 0.044054 c -1.044e-4,0.00211 0,0.00406 0,0.00616 0,0.06718 0.054085,0.1212674 0.12126741,0.1212674 h 0.050212 1.1624614 c 0.067182,2e-7 0.1212673,-0.05409 0.1212673,-0.1212671 0,-0.06718 -0.054085,-0.1212674 -0.1212673,-0.1212674 H 1.3841996 L 1.9644829,3.5428537 3.057784,2.4495525 4.1231367,1.3841999 v 0.9199266 c 0,0.06718 0.05408,0.1212674 0.1212673,0.1212674 0.06718,0 0.1212674,-0.05409 0.1212674,-0.1212674 V 1.1416652 1.097611 c 1.05e-4,-0.0021 0,-0.00406 0,-0.00616 0,-0.06508 -0.05086,-0.11803135 -0.1151092,-0.12126735 -0.0021,-1.0499e-4 -0.00406,0 -0.00616,0 h -0.05021 -1.1624614 c -0.00211,0 -0.00406,-1.0499e-4 -0.00616,0 z" />
  </g>
  <g
     id="hover-center"
     transform="matrix(1.0909091,0,0,1.0909091,-0.52916649,0)">
    <rect
       style="opacity:1;fill:none;fill-opacity:1;stroke-width:0.159166"
       id="rect1103"
       width="5.3357639"
       height="5.3357639"
       x="5.8208332"
       y="0" />
    <circle
       style="opacity:0.07;fill:#000000;fill-opacity:1;stroke-width:0.242534"
       id="path1519"
       cx="8.4887152"
       cy="2.667882"
       r="2.667882" />
    <path
       id="rect846-1-0"
       style="fill:#dfdfdf;stroke-width:0.0784229"
       d="m 8.8464055,0.97018746 c -0.06425,0.0032 -0.1151091,0.05618 -0.1151091,0.12126744 0,0.06718 0.05409,0.1212673 0.1212673,0.1212673 H 9.7724903 L 8.7071377,2.2780749 7.6138366,3.371376 7.0335534,3.9516593 V 3.0317326 c 0,-0.06718 -0.054085,-0.1212673 -0.1212674,-0.1212673 -0.067182,0 -0.1212674,0.05409 -0.1212674,0.1212673 V 4.194194 4.238248 c -1.044e-4,0.00211 0,0.00406 0,0.00616 0,0.06718 0.054085,0.1212673 0.1212674,0.1212673 h 0.050212 1.1624613 c 0.067182,3e-7 0.1212673,-0.05409 0.1212673,-0.1212671 0,-0.06718 -0.054085,-0.1212674 -0.1212673,-0.1212674 H 7.205033 L 7.7853162,3.5428556 8.8786173,2.4495545 9.9439703,1.3842018 v 0.9199267 c 0,0.06718 0.05408,0.1212673 0.1212667,0.1212673 0.06718,0 0.121267,-0.05409 0.121267,-0.1212673 V 1.1416671 1.097613 c 1.05e-4,-0.0021 0,-0.00406 0,-0.00616 0,-0.06508 -0.05086,-0.11803144 -0.115109,-0.12126744 -0.0021,-1.05e-4 -0.0041,0 -0.0062,0 h -0.05017 -1.1624609 c -0.00211,0 -0.00406,-1.05e-4 -0.00616,0 z" />
  </g>
  <g
     id="pressed-center"
     transform="matrix(1.0909091,0,0,1.0909091,-1.058333,0)">
    <rect
       style="opacity:1;fill:none;fill-opacity:1;stroke-width:0.167465"
       id="rect1207"
       width="5.3357639"
       height="5.3357639"
       x="11.641666"
       y="0" />
    <path
       id="rect846-1-9"
       style="fill:#dfdfdf;stroke-width:0.0784229"
       d="m 14.667239,0.97018746 c -0.06425,0.0032 -0.115109,0.05618 -0.115109,0.12126744 0,0.06718 0.05409,0.1212673 0.121267,0.1212673 h 0.919927 L 14.527971,2.2780749 13.43467,3.3713761 12.854387,3.9516593 V 3.0317326 c 0,-0.06718 -0.05409,-0.1212673 -0.121268,-0.1212673 -0.06718,0 -0.121267,0.05409 -0.121267,0.1212673 V 4.194194 4.238248 c -1.05e-4,0.00211 0,0.00406 0,0.00616 0,0.06718 0.05408,0.1212673 0.121267,0.1212673 h 0.05021 1.162462 c 0.06718,3e-7 0.121267,-0.05409 0.121267,-0.1212671 0,-0.06718 -0.05408,-0.1212673 -0.121267,-0.1212673 h -0.919925 l 0.580283,-0.5802853 1.093302,-1.0933011 1.065352,-1.0653526 v 0.9199266 c 0,0.06718 0.05408,0.1212673 0.121268,0.1212673 0.06718,0 0.121267,-0.05409 0.121267,-0.1212673 V 1.1416671 1.0976129 c 1.05e-4,-0.0021 0,-0.00406 0,-0.00616 0,-0.06508 -0.05086,-0.11803134 -0.115109,-0.12126734 -0.0021,-1.05e-4 -0.0041,0 -0.0062,0 h -0.05021 -1.162461 c -0.0021,0 -0.0041,-1.05e-4 -0.0062,0 z" />
    <circle
       style="opacity:0.16;fill:#000000;fill-opacity:1;stroke-width:0.242534"
       id="path1685"
       cx="14.309548"
       cy="2.667882"
       r="2.667882" />
  </g>
  <g
     id="inactive-center"
     transform="matrix(1.0909091,0,0,1.0909091,-1.5874995,0)">
    <rect
       style="opacity:1;fill:none;fill-opacity:1;stroke-width:0.178206"
       id="rect1311"
       width="5.3357639"
       height="5.3357639"
       x="17.4625"
       y="0" />
    <path
       id="rect846-1-3"
       style="opacity:0.3;fill:#dfdfdf;stroke-width:0.0784229"
       d="m 20.488073,0.97018536 c -0.06425,0.0032 -0.11511,0.05618 -0.11511,0.12126744 0,0.06718 0.05409,0.1212673 0.121268,0.1212673 h 0.919926 L 20.348805,2.2780728 19.255504,3.371374 18.67522,3.9516572 V 3.0317305 c 0,-0.06718 -0.05408,-0.1212673 -0.121267,-0.1212673 -0.06718,0 -0.121267,0.05409 -0.121267,0.1212673 v 1.1624614 0.044054 c -1.05e-4,0.00211 0,0.00406 0,0.00616 0,0.06718 0.05409,0.1212673 0.121267,0.1212673 h 0.05021 1.162462 c 0.06718,3e-7 0.121267,-0.05409 0.121267,-0.1212671 0,-0.06718 -0.05408,-0.1212673 -0.121267,-0.1212673 h -0.919927 l 0.580283,-0.5802833 1.093301,-1.0933011 1.065353,-1.0653527 v 0.9199267 c 0,0.06718 0.05408,0.1212673 0.121267,0.1212673 0.06718,0 0.121268,-0.05409 0.121268,-0.1212673 V 1.141667 1.097613 c 1.05e-4,-0.0021 0,-0.00406 0,-0.00616 0,-0.06508 -0.05086,-0.11803144 -0.115109,-0.12126744 -0.0021,-1.05e-4 -0.0041,0 -0.0062,0 h -0.05021 -1.162461 c -0.0021,0 -0.0041,-1.05e-4 -0.0062,0 z" />
  </g>
  <g
     id="deactivated-center"
     transform="matrix(1.0909091,0,0,1.0909091,-2.116666,0)">
    <rect
       style="opacity:1;fill:none;fill-opacity:1;stroke-width:0.114715"
       id="rect1415"
       width="5.3357639"
       height="5.3357639"
       x="23.283333"
       y="0" />
    <path
       id="rect846-1-6"
       style="opacity:0.2;fill:#dfdfdf;stroke-width:0.0784229"
       d="m 26.308906,0.97018546 c -0.06425,0.0032 -0.11511,0.05618 -0.11511,0.12126744 0,0.06718 0.05409,0.1212673 0.121268,0.1212673 H 27.23499 L 26.169638,2.2780729 25.076337,3.3713741 24.496053,3.9516573 V 3.0317306 c 0,-0.06718 -0.05409,-0.1212673 -0.121267,-0.1212673 -0.06718,0 -0.121267,0.05409 -0.121267,0.1212673 V 4.194192 4.238246 c -1.05e-4,0.00211 0,0.00406 0,0.00616 0,0.06718 0.05408,0.1212673 0.121267,0.1212673 h 0.05021 1.162462 c 0.06718,3e-7 0.121267,-0.05409 0.121267,-0.1212671 0,-0.06718 -0.05408,-0.1212673 -0.121267,-0.1212673 h -0.919927 l 0.580283,-0.5802833 1.093301,-1.0933011 1.065353,-1.0653526 v 0.9199266 c 0,0.06718 0.05408,0.1212673 0.121267,0.1212673 0.06718,0 0.121268,-0.05409 0.121268,-0.1212673 V 1.1416671 1.0976129 c 1.05e-4,-0.0021 0,-0.00406 0,-0.00616 0,-0.06508 -0.05086,-0.11803134 -0.115109,-0.12126734 -0.0021,-1.05e-4 -0.0041,0 -0.0062,0 h -0.05021 -1.162461 c -0.0021,0 -0.0041,-1.05e-4 -0.0062,0 z" />
  </g>
</svg>
