<?xml version="1.0" encoding="UTF-8" standalone="no"?>
<!-- Created with Inkscape (http://www.inkscape.org/) -->

<svg
   width="22"
   height="22"
   viewBox="0 0 5.8208332 5.8208335"
   version="1.1"
   id="svg855"
   inkscape:version="1.1 (c4e8f9ed74, 2021-05-24)"
   sodipodi:docname="minimize.svg"
   xmlns:inkscape="http://www.inkscape.org/namespaces/inkscape"
   xmlns:sodipodi="http://sodipodi.sourceforge.net/DTD/sodipodi-0.dtd"
   xmlns="http://www.w3.org/2000/svg"
   xmlns:svg="http://www.w3.org/2000/svg">
  <sodipodi:namedview
     id="namedview857"
     pagecolor="#ffffff"
     bordercolor="#666666"
     borderopacity="1.0"
     inkscape:pageshadow="2"
     inkscape:pageopacity="0.0"
     inkscape:pagecheckerboard="0"
     inkscape:document-units="px"
     showgrid="false"
     units="px"
     inkscape:zoom="4.2864583"
     inkscape:cx="9.5650061"
     inkscape:cy="-36.277035"
     inkscape:window-width="1920"
     inkscape:window-height="1006"
     inkscape:window-x="0"
     inkscape:window-y="0"
     inkscape:window-maximized="1"
     inkscape:current-layer="svg855" />
  <defs
     id="defs852" />
  <g
     id="active-center"
     transform="scale(1.0909091)">
    <rect
       style="opacity:1;fill:none;fill-opacity:1;stroke-width:0.0890579"
       id="rect938"
       width="5.3357639"
       height="5.3357639"
       x="-7.1054274e-15"
       y="0" />
    <path
       id="rect7014"
       style="fill:#dfdfdf;stroke-width:0.0871138"
       d="m 1.0914062,3.1529514 h 3.1529514 c 0.067182,0 0.1212674,0.054085 0.1212674,0.1212674 0,0.067182 -0.054085,0.1212673 -0.1212674,0.1212673 H 1.0914062 c -0.067182,0 -0.12126731,-0.054085 -0.12126731,-0.1212673 0,-0.067182 0.054085,-0.1212674 0.12126731,-0.1212674 z" />
  </g>
  <g
     id="hover-center"
     transform="matrix(1.0909091,0,0,1.0909091,-0.52916654,0)">
    <rect
       style="opacity:1;fill:none;fill-opacity:1;stroke-width:0.159166"
       id="rect1103"
       width="5.3357639"
       height="5.3357639"
       x="5.8208332"
       y="0" />
    <path
       id="rect7014-6"
       style="fill:#dfdfdf;stroke-width:0.0871138"
       d="m 6.9122395,3.1529514 h 3.1529515 c 0.06718,0 0.121267,0.054085 0.121267,0.1212674 0,0.067182 -0.05409,0.1212673 -0.121267,0.1212673 H 6.9122395 c -0.067182,0 -0.1212673,-0.054085 -0.1212673,-0.1212673 0,-0.067182 0.054085,-0.1212674 0.1212673,-0.1212674 z" />
    <circle
       style="opacity:0.07;fill:#000000;fill-opacity:1;stroke-width:0.242534"
       id="path1519"
       cx="8.4887152"
       cy="2.667882"
       r="2.667882" />
  </g>
  <g
     id="pressed-center"
     transform="matrix(1.0909091,0,0,1.0909091,-1.0583331,0)">
    <rect
       style="opacity:1;fill:none;fill-opacity:1;stroke-width:0.167465"
       id="rect1207"
       width="5.3357639"
       height="5.3357639"
       x="11.641666"
       y="0" />
    <path
       id="rect7014-7"
       style="fill:#dfdfdf;stroke-width:0.0871138"
       d="m 12.733074,3.1529514 h 3.152951 c 0.06718,0 0.121267,0.054085 0.121267,0.1212674 0,0.067182 -0.05408,0.1212673 -0.121267,0.1212673 h -3.152951 c -0.06718,0 -0.121268,-0.054085 -0.121268,-0.1212673 0,-0.067182 0.05408,-0.1212674 0.121268,-0.1212674 z" />
    <circle
       style="opacity:0.16;fill:#000000;fill-opacity:1;stroke-width:0.242534"
       id="path1685"
       cx="14.309548"
       cy="2.667882"
       r="2.667882" />
  </g>
  <g
     id="inactive-center"
     transform="matrix(1.0909091,0,0,1.0909091,-1.5874996,0)">
    <rect
       style="opacity:1;fill:none;fill-opacity:1;stroke-width:0.178206"
       id="rect1311"
       width="5.3357639"
       height="5.3357639"
       x="17.4625"
       y="0" />
    <path
       id="rect7014-5"
       style="opacity:0.3;fill:#dfdfdf;stroke-width:0.0871138"
       d="m 18.553906,3.1529514 h 3.152951 c 0.06718,0 0.121268,0.054085 0.121268,0.1212674 0,0.067182 -0.05409,0.1212673 -0.121268,0.1212673 h -3.152951 c -0.06718,0 -0.121267,-0.054085 -0.121267,-0.1212673 0,-0.067182 0.05409,-0.1212674 0.121267,-0.1212674 z" />
  </g>
  <g
     id="deactivated-center"
     transform="matrix(1.0909091,0,0,1.0909091,-2.1166661,0)">
    <rect
       style="opacity:1;fill:none;fill-opacity:1;stroke-width:0.114715"
       id="rect1415"
       width="5.3357639"
       height="5.3357639"
       x="23.283333"
       y="0" />
    <path
       id="rect7014-3"
       style="opacity:0.2;fill:#dfdfdf;stroke-width:0.0871138"
       d="m 24.374739,3.1529514 h 3.152952 c 0.06718,0 0.121267,0.05408 0.121267,0.121268 0,0.06718 -0.05409,0.121267 -0.121267,0.121267 h -3.152952 c -0.06718,0 -0.121267,-0.05409 -0.121267,-0.121267 0,-0.06718 0.05409,-0.121268 0.121267,-0.121268 z" />
  </g>
</svg>
