<?xml version="1.0" encoding="UTF-8" standalone="no"?>
<!-- Created with Inkscape (http://www.inkscape.org/) -->

<svg
   width="24"
   height="24"
   viewBox="0 0 6.3499999 6.3500002"
   version="1.1"
   id="svg855"
   inkscape:version="1.1.1 (3bf5ae0d25, 2021-09-20)"
   sodipodi:docname="close.svg"
   xmlns:inkscape="http://www.inkscape.org/namespaces/inkscape"
   xmlns:sodipodi="http://sodipodi.sourceforge.net/DTD/sodipodi-0.dtd"
   xmlns="http://www.w3.org/2000/svg"
   xmlns:svg="http://www.w3.org/2000/svg">
  <sodipodi:namedview
     id="namedview857"
     pagecolor="#ffffff"
     bordercolor="#666666"
     borderopacity="1.0"
     inkscape:pageshadow="2"
     inkscape:pageopacity="0.0"
     inkscape:pagecheckerboard="0"
     inkscape:document-units="px"
     showgrid="false"
     units="px"
     inkscape:zoom="8"
     inkscape:cx="55.0625"
     inkscape:cy="17.6875"
     inkscape:window-width="1920"
     inkscape:window-height="1003"
     inkscape:window-x="0"
     inkscape:window-y="0"
     inkscape:window-maximized="1"
     inkscape:current-layer="svg855" />
  <defs
     id="defs852" />
  <g
     id="active-center"
     transform="scale(1.0909091)">
    <rect
       style="opacity:1;fill:none;fill-opacity:1;stroke-width:0.0890579"
       id="rect938"
       width="5.3357639"
       height="5.3357639"
       x="-7.1054274e-15"
       y="0" />
    <path
       id="rect10063-2-9"
       style="opacity:1;fill:#363636;fill-opacity:1;stroke:none;stroke-width:0.154802;stroke-opacity:1"
       d="m 1.3670308,1.2457591 c -0.031,0 -0.06199,0.011775 -0.08574,0.035528 -0.04751,0.047505 -0.04751,0.1239747 0,0.1714796 l 1.457576,1.4575767 -1.457576,1.4580506 c -0.04751,0.047505 -0.04751,0.1239748 0,0.1714795 0.04751,0.047505 0.123974,0.047505 0.171479,0 l 1.457577,-1.4580504 1.458051,1.4580504 c 0.04751,0.047505 0.123974,0.047505 0.171479,0 0.0475,-0.047505 0.0475,-0.1239745 0,-0.1714795 l -1.45805,-1.4580506 1.45805,-1.4575767 c 0.0475,-0.047505 0.0475,-0.1239747 0,-0.1714796 -0.04751,-0.047505 -0.123974,-0.047505 -0.171479,0 L 2.9103468,2.7388634 1.4527698,1.2812866 c -0.02375,-0.023753 -0.05474,-0.035528 -0.08574,-0.035528 z" />
  </g>
  <g
     id="hover-center"
     transform="scale(1.0909091)">
    <rect
       style="opacity:1;fill:none;fill-opacity:1;stroke-width:0.173636"
       id="rect1103"
       width="5.8208332"
       height="5.8208332"
       x="5.8208332"
       y="0" />
    <path
       id="rect10063-9"
       style="fill:#363636;fill-opacity:1;stroke:none;stroke-width:0.154802;stroke-opacity:1"
       d="m 7.1878604,1.2457595 c -0.030998,0 -0.061987,0.011775 -0.08574,0.035528 -0.047505,0.047505 -0.047505,0.1239747 0,0.1714796 L 8.5596975,2.9103434 7.1021205,4.368394 c -0.047505,0.047505 -0.047505,0.1239748 0,0.1714796 0.047505,0.047505 0.1239747,0.047505 0.1714797,0 L 8.7311775,3.0818232 10.189228,4.5398736 c 0.0475,0.047505 0.123975,0.047505 0.17148,0 0.0475,-0.047505 0.0475,-0.1239746 0,-0.1714796 L 8.9026565,2.9103434 10.360708,1.4527667 c 0.0475,-0.047505 0.0475,-0.1239747 0,-0.1714796 -0.04751,-0.047505 -0.123975,-0.047505 -0.17148,0 L 8.7311775,2.7388638 7.2736002,1.2812871 c -0.023752,-0.023752 -0.054742,-0.035528 -0.08574,-0.035528 z" />
    <circle
       style="opacity:0.07;fill:#000000;fill-opacity:1;stroke-width:0.264583"
       id="path1519"
       cx="8.7312498"
       cy="2.9104166"
       r="2.9104166" />
  </g>
  <g
     id="pressed-center"
     transform="scale(1.0909091)">
    <rect
       style="opacity:1;fill:none;fill-opacity:1;stroke-width:0.182689"
       id="rect1207"
       width="5.8208332"
       height="5.8208332"
       x="11.641666"
       y="0" />
    <path
       id="rect10063-1"
       style="fill:#363636;fill-opacity:1;stroke:none;stroke-width:0.154802;stroke-opacity:1"
       d="m 13.008697,1.2457595 c -0.031,0 -0.06199,0.011775 -0.08574,0.035528 -0.04751,0.047505 -0.04751,0.1239746 0,0.1714796 l 1.457576,1.4575767 -1.457576,1.4580505 c -0.04751,0.047505 -0.04751,0.1239748 0,0.1714796 0.0475,0.047505 0.123974,0.047505 0.171479,0 l 1.457577,-1.4580503 1.458051,1.4580503 c 0.0475,0.047505 0.123974,0.047505 0.171479,0 0.04751,-0.047505 0.04751,-0.1239745 0,-0.1714796 l -1.45805,-1.4580509 1.45805,-1.4575767 c 0.04751,-0.047505 0.04751,-0.1239747 0,-0.1714796 -0.04751,-0.047505 -0.123974,-0.047505 -0.171479,0 L 14.552013,2.7388638 13.094436,1.281287 c -0.02375,-0.023753 -0.05474,-0.035528 -0.08574,-0.035528 z" />
    <circle
       style="opacity:0.16;fill:#000000;fill-opacity:1;stroke-width:0.264583"
       id="path1685"
       cx="14.552083"
       cy="2.9104166"
       r="2.9104166" />
  </g>
  <g
     id="inactive-center"
     transform="scale(1.0909091)">
    <rect
       style="opacity:1;fill:none;fill-opacity:1;stroke-width:0.194407"
       id="rect1311"
       width="5.8208332"
       height="5.8208332"
       x="17.4625"
       y="0" />
    <path
       id="rect10063-2"
       style="opacity:0.3;fill:#363636;fill-opacity:1;stroke:none;stroke-width:0.154802;stroke-opacity:1"
       d="m 18.82953,1.2457591 c -0.031,0 -0.06199,0.011775 -0.08574,0.035528 -0.04751,0.047505 -0.04751,0.1239747 0,0.1714796 L 20.201366,2.9103434 18.74379,4.368394 c -0.04751,0.047505 -0.04751,0.1239748 0,0.1714795 0.04751,0.047505 0.123974,0.047505 0.171479,0 l 1.457577,-1.4580504 1.458051,1.4580504 c 0.04751,0.047505 0.123974,0.047505 0.171479,0 0.0475,-0.047505 0.0475,-0.1239745 0,-0.1714795 l -1.45805,-1.4580506 1.45805,-1.4575767 c 0.0475,-0.047505 0.0475,-0.1239747 0,-0.1714796 -0.04751,-0.047505 -0.123974,-0.047505 -0.171479,0 L 20.372846,2.7388634 18.915269,1.2812866 c -0.02375,-0.023753 -0.05474,-0.035528 -0.08574,-0.035528 z" />
  </g>
  <g
     id="deactivated-center"
     transform="scale(1.0909091)">
    <rect
       style="opacity:1;fill:none;fill-opacity:1;stroke-width:0.125144"
       id="rect1415"
       width="5.8208332"
       height="5.8208332"
       x="23.283333"
       y="0" />
    <path
       id="rect10063-2-0"
       style="opacity:0.2;fill:#363636;fill-opacity:1;stroke:none;stroke-width:0.154802;stroke-opacity:1"
       d="m 24.650364,1.2457591 c -0.031,0 -0.06199,0.011775 -0.08574,0.035528 -0.04751,0.047505 -0.04751,0.1239747 0,0.1714796 l 1.457575,1.4575767 -1.457575,1.4580506 c -0.04751,0.047505 -0.04751,0.1239748 0,0.1714795 0.04751,0.047505 0.123973,0.047505 0.171478,0 l 1.457577,-1.4580504 1.458052,1.4580504 c 0.04751,0.047505 0.123974,0.047505 0.171479,0 0.0475,-0.047505 0.0475,-0.1239745 0,-0.1714795 L 26.36516,2.9103434 27.82321,1.4527667 c 0.0475,-0.047505 0.0475,-0.1239747 0,-0.1714796 -0.04751,-0.047505 -0.123974,-0.047505 -0.171479,0 L 26.193679,2.7388634 24.736102,1.2812866 c -0.02375,-0.023752 -0.05474,-0.035528 -0.08574,-0.035528 z" />
  </g>
</svg>
