<?xml version="1.0" encoding="UTF-8" standalone="no"?>
<!-- Created with Inkscape (http://www.inkscape.org/) -->

<svg
   width="24"
   height="24"
   viewBox="0 0 6.3499999 6.3500002"
   version="1.1"
   id="svg855"
   inkscape:version="1.1.1 (3bf5ae0d25, 2021-09-20)"
   sodipodi:docname="maximize.svg"
   xmlns:inkscape="http://www.inkscape.org/namespaces/inkscape"
   xmlns:sodipodi="http://sodipodi.sourceforge.net/DTD/sodipodi-0.dtd"
   xmlns="http://www.w3.org/2000/svg"
   xmlns:svg="http://www.w3.org/2000/svg">
  <sodipodi:namedview
     id="namedview857"
     pagecolor="#ffffff"
     bordercolor="#666666"
     borderopacity="1.0"
     inkscape:pageshadow="2"
     inkscape:pageopacity="0.0"
     inkscape:pagecheckerboard="0"
     inkscape:document-units="px"
     showgrid="false"
     units="px"
     inkscape:zoom="4.0000001"
     inkscape:cx="21.375"
     inkscape:cy="45.124999"
     inkscape:window-width="1920"
     inkscape:window-height="1003"
     inkscape:window-x="0"
     inkscape:window-y="0"
     inkscape:window-maximized="1"
     inkscape:current-layer="svg855" />
  <defs
     id="defs852" />
  <g
     id="active-center"
     transform="scale(1.0909091)">
    <rect
       style="opacity:1;fill:none;fill-opacity:1;stroke-width:0.0971541"
       id="rect938"
       width="5.8208332"
       height="5.8208332"
       x="-7.1054274e-15"
       y="0" />
    <path
       id="rect846-1"
       style="fill:#333333;stroke-width:0.0784229"
       d="m 3.2681069,1.2127222 c -0.06425,0.0032 -0.1151091,0.05618 -0.1151091,0.1212673 0,0.06718 0.05409,0.1212674 0.1212673,0.1212674 H 4.1941918 L 3.1288391,2.5206095 2.035538,3.6139107 1.4552547,4.1941939 V 3.2742673 c 0,-0.06718 -0.054085,-0.1212674 -0.1212673,-0.1212674 -0.067182,0 -0.1212674,0.05409 -0.1212674,0.1212674 v 1.1624614 0.044054 c -1.044e-4,0.00211 0,0.00406 0,0.00616 0,0.06718 0.054085,0.1212674 0.1212674,0.1212674 h 0.050212 1.1624614 c 0.067182,2e-7 0.1212673,-0.05409 0.1212673,-0.1212671 0,-0.06718 -0.054085,-0.1212674 -0.1212673,-0.1212674 H 1.6267343 L 2.2070176,3.7853903 3.3003187,2.6920891 4.3656714,1.6267365 v 0.9199266 c 0,0.06718 0.05408,0.1212674 0.1212673,0.1212674 0.06718,0 0.1212674,-0.05409 0.1212674,-0.1212674 V 1.3842018 1.3401476 c 1.05e-4,-0.0021 0,-0.00406 0,-0.00616 0,-0.06508 -0.05086,-0.1180313 -0.1151092,-0.1212673 -0.0021,-1.05e-4 -0.00406,0 -0.00616,0 h -0.05021 -1.1624614 c -0.00211,0 -0.00406,-1.05e-4 -0.00616,0 z" />
  </g>
  <g
     id="hover-center"
     transform="scale(1.0909091)">
    <rect
       style="opacity:1;fill:none;fill-opacity:1;stroke-width:0.173636"
       id="rect1103"
       width="5.8208332"
       height="5.8208332"
       x="5.8208332"
       y="0" />
    <path
       id="rect846-1-0"
       style="fill:#333333;stroke-width:0.0784229"
       d="m 9.08894,1.2127222 c -0.06425,0.0032 -0.1151091,0.05618 -0.1151091,0.1212674 0,0.06718 0.05409,0.1212673 0.1212673,0.1212673 H 10.015025 L 8.9496722,2.5206096 7.8563711,3.6139107 7.2760879,4.194194 V 3.2742673 c 0,-0.06718 -0.054085,-0.1212673 -0.1212674,-0.1212673 -0.067182,0 -0.1212674,0.05409 -0.1212674,0.1212673 v 1.1624614 0.044054 c -1.044e-4,0.00211 0,0.00406 0,0.00616 0,0.06718 0.054085,0.1212673 0.1212674,0.1212673 h 0.050212 1.1624613 c 0.067182,3e-7 0.1212673,-0.05409 0.1212673,-0.1212671 0,-0.06718 -0.054085,-0.1212674 -0.1212673,-0.1212674 H 7.4475675 L 8.0278507,3.7853903 9.1211518,2.6920892 10.186505,1.6267365 v 0.9199267 c 0,0.06718 0.05408,0.1212673 0.121267,0.1212673 0.06718,0 0.121267,-0.05409 0.121267,-0.1212673 V 1.3842018 1.3401477 c 1.05e-4,-0.0021 0,-0.00406 0,-0.00616 0,-0.06508 -0.05086,-0.1180314 -0.115109,-0.1212674 -0.0021,-1.05e-4 -0.0041,0 -0.0062,0 H 10.25756 9.0950986 c -0.00211,0 -0.00406,-1.05e-4 -0.00616,0 z" />
    <circle
       style="opacity:0.07;fill:#000000;fill-opacity:1;stroke-width:0.264583"
       id="path1519"
       cx="8.7312498"
       cy="2.9104166"
       r="2.9104166" />
  </g>
  <g
     id="pressed-center"
     transform="scale(1.0909091)">
    <rect
       style="opacity:1;fill:none;fill-opacity:1;stroke-width:0.182689"
       id="rect1207"
       width="5.8208332"
       height="5.8208332"
       x="11.641666"
       y="0" />
    <path
       id="rect846-1-9"
       style="fill:#333333;stroke-width:0.0784229"
       d="m 14.909774,1.2127222 c -0.06425,0.0032 -0.115109,0.05618 -0.115109,0.1212674 0,0.06718 0.05409,0.1212673 0.121267,0.1212673 h 0.919927 L 14.770506,2.5206096 13.677205,3.6139108 13.096922,4.194194 V 3.2742673 c 0,-0.06718 -0.05409,-0.1212673 -0.121268,-0.1212673 -0.06718,0 -0.121267,0.05409 -0.121267,0.1212673 v 1.1624614 0.044054 c -1.05e-4,0.00211 0,0.00406 0,0.00616 0,0.06718 0.05408,0.1212673 0.121267,0.1212673 h 0.05021 1.162462 c 0.06718,3e-7 0.121267,-0.05409 0.121267,-0.1212671 0,-0.06718 -0.05408,-0.1212673 -0.121267,-0.1212673 h -0.919925 l 0.580283,-0.5802853 1.093302,-1.0933011 1.065352,-1.0653526 v 0.9199266 c 0,0.06718 0.05408,0.1212673 0.121268,0.1212673 0.06718,0 0.121267,-0.05409 0.121267,-0.1212673 V 1.3842018 1.3401476 c 1.05e-4,-0.0021 0,-0.00406 0,-0.00616 0,-0.06508 -0.05086,-0.1180313 -0.115109,-0.1212673 -0.0021,-1.05e-4 -0.0041,0 -0.0062,0 h -0.05021 -1.162461 c -0.0021,0 -0.0041,-1.05e-4 -0.0062,0 z" />
    <circle
       style="opacity:0.16;fill:#000000;fill-opacity:1;stroke-width:0.264583"
       id="path1685"
       cx="14.552083"
       cy="2.9104166"
       r="2.9104166" />
  </g>
  <g
     id="inactive-center"
     transform="scale(1.0909091)">
    <rect
       style="opacity:1;fill:none;fill-opacity:1;stroke-width:0.194407"
       id="rect1311"
       width="5.8208332"
       height="5.8208332"
       x="17.4625"
       y="0" />
    <path
       id="rect846-1-3"
       style="opacity:0.3;fill:#333333;stroke-width:0.0784229"
       d="m 20.730607,1.2127201 c -0.06425,0.0032 -0.11511,0.05618 -0.11511,0.1212674 0,0.06718 0.05409,0.1212673 0.121268,0.1212673 h 0.919926 L 20.591339,2.5206075 19.498038,3.6139087 18.917754,4.1941919 V 3.2742652 c 0,-0.06718 -0.05408,-0.1212673 -0.121267,-0.1212673 -0.06718,0 -0.121267,0.05409 -0.121267,0.1212673 v 1.1624614 0.044054 c -1.05e-4,0.00211 0,0.00406 0,0.00616 0,0.06718 0.05409,0.1212673 0.121267,0.1212673 h 0.05021 1.162462 c 0.06718,3e-7 0.121267,-0.05409 0.121267,-0.1212671 0,-0.06718 -0.05408,-0.1212673 -0.121267,-0.1212673 h -0.919927 l 0.580283,-0.5802833 1.093301,-1.0933011 1.065353,-1.0653527 v 0.9199267 c 0,0.06718 0.05408,0.1212673 0.121267,0.1212673 0.06718,0 0.121268,-0.05409 0.121268,-0.1212673 V 1.3842017 1.3401477 c 1.05e-4,-0.0021 0,-0.00406 0,-0.00616 0,-0.06508 -0.05086,-0.1180314 -0.115109,-0.1212674 -0.0021,-1.05e-4 -0.0041,0 -0.0062,0 h -0.05021 -1.162461 c -0.0021,0 -0.0041,-1.05e-4 -0.0062,0 z" />
  </g>
  <g
     id="deactivated-center"
     transform="scale(1.0909091)">
    <rect
       style="opacity:1;fill:none;fill-opacity:1;stroke-width:0.125144"
       id="rect1415"
       width="5.8208332"
       height="5.8208332"
       x="23.283333"
       y="0" />
    <path
       id="rect846-1-6"
       style="opacity:0.2;fill:#333333;stroke-width:0.0784229"
       d="m 26.55144,1.2127202 c -0.06425,0.0032 -0.11511,0.05618 -0.11511,0.1212674 0,0.06718 0.05409,0.1212673 0.121268,0.1212673 h 0.919926 L 26.412172,2.5206076 25.318871,3.6139088 24.738587,4.194192 V 3.2742653 c 0,-0.06718 -0.05409,-0.1212673 -0.121267,-0.1212673 -0.06718,0 -0.121267,0.05409 -0.121267,0.1212673 v 1.1624614 0.044054 c -1.05e-4,0.00211 0,0.00406 0,0.00616 0,0.06718 0.05408,0.1212673 0.121267,0.1212673 h 0.05021 1.162462 c 0.06718,3e-7 0.121267,-0.05409 0.121267,-0.1212671 0,-0.06718 -0.05408,-0.1212673 -0.121267,-0.1212673 h -0.919927 l 0.580283,-0.5802833 1.093301,-1.0933011 1.065353,-1.0653526 v 0.9199266 c 0,0.06718 0.05408,0.1212673 0.121267,0.1212673 0.06718,0 0.121268,-0.05409 0.121268,-0.1212673 V 1.3842018 1.3401476 c 1.05e-4,-0.0021 0,-0.00406 0,-0.00616 0,-0.06508 -0.05086,-0.1180313 -0.115109,-0.1212673 -0.0021,-1.05e-4 -0.0041,0 -0.0062,0 h -0.05021 -1.162461 c -0.0021,0 -0.0041,-1.05e-4 -0.0062,0 z" />
  </g>
</svg>
