<?xml version="1.0" encoding="UTF-8" standalone="no"?>
<!-- Created with Inkscape (http://www.inkscape.org/) -->

<svg
   width="24"
   height="24"
   viewBox="0 0 6.3499999 6.3500002"
   version="1.1"
   id="svg855"
   inkscape:version="1.1.1 (3bf5ae0d25, 2021-09-20)"
   sodipodi:docname="restore.svg"
   xmlns:inkscape="http://www.inkscape.org/namespaces/inkscape"
   xmlns:sodipodi="http://sodipodi.sourceforge.net/DTD/sodipodi-0.dtd"
   xmlns="http://www.w3.org/2000/svg"
   xmlns:svg="http://www.w3.org/2000/svg">
  <sodipodi:namedview
     id="namedview857"
     pagecolor="#ffffff"
     bordercolor="#666666"
     borderopacity="1.0"
     inkscape:pageshadow="2"
     inkscape:pageopacity="0.0"
     inkscape:pagecheckerboard="0"
     inkscape:document-units="px"
     showgrid="false"
     units="px"
     inkscape:zoom="3.6740569"
     inkscape:cx="-4.7631271"
     inkscape:cy="-10.206701"
     inkscape:window-width="1920"
     inkscape:window-height="1003"
     inkscape:window-x="0"
     inkscape:window-y="0"
     inkscape:window-maximized="1"
     inkscape:current-layer="svg855" />
  <defs
     id="defs852" />
  <g
     id="active-center"
     transform="scale(1.0909091)">
    <rect
       style="opacity:1;fill:none;fill-opacity:1;stroke-width:0.0971541"
       id="rect938"
       width="5.8208332"
       height="5.8208332"
       x="-7.1054274e-15"
       y="0" />
    <path
       id="rect846-62-9-28"
       style="fill:#333333;stroke-width:0.0784229"
       d="m 4.4817871,1.2126891 c -0.02544,0.00104 -0.05065,0.00997 -0.07153,0.027001 -0.0032,0.00259 -0.006,0.00556 -0.009,0.00853 L 3.1857421,2.4637329 V 1.5438063 c 0,-0.067182 -0.05409,-0.1212674 -0.121268,-0.1212674 -0.06718,0 -0.121267,0.054084 -0.121267,0.1212674 v 1.2065151 c -1.04e-4,0.00211 0,0.00405 0,0.00616 0,0.00385 9.9e-5,0.00762 4.85e-4,0.011368 2.2e-4,0.00238 6.06e-4,0.00481 9.46e-4,0.00711 2.39e-4,0.00155 6.55e-4,0.00318 9.46e-4,0.00474 0.0015,0.00779 0.0038,0.015103 0.0066,0.022265 9.7e-4,0.00238 0.0017,0.00481 0.0028,0.00711 3.88e-4,8.246e-4 10e-4,0.00155 0.0014,0.00238 2.28e-4,4.366e-4 2.19e-4,9.702e-4 4.85e-4,0.00143 2.67e-4,4.85e-4 6.79e-4,8.731e-4 9.46e-4,0.00143 1.73e-4,3.153e-4 2.91e-4,6.549e-4 4.85e-4,9.459e-4 7.76e-4,0.00138 0.0016,0.00289 0.0024,0.00426 7.28e-4,0.00119 0.0016,0.00213 0.0024,0.00332 3.15e-4,4.851e-4 6.31e-4,8.731e-4 9.46e-4,0.00143 0.0044,0.00642 0.0092,0.01252 0.01469,0.018001 0.0041,0.00413 0.0086,0.00788 0.01327,0.011368 0.0016,0.00119 0.0031,0.00221 0.0047,0.00332 0.0011,7.761e-4 0.0022,0.00162 0.0033,0.00238 0.0021,0.00138 0.0044,0.00259 0.0066,0.00379 9.46e-4,5.093e-4 0.0019,8.731e-4 0.0028,0.00143 8e-4,4.123e-4 0.0016,9.701e-4 0.0024,0.00143 0.0023,0.00109 0.0047,0.00184 0.0071,0.00284 0.0072,0.00293 0.0145,0.00517 0.02227,0.00663 0.0035,6.791e-4 0.0073,0.00153 0.0109,0.00189 2.91e-4,3.15e-5 6.54e-4,-2.84e-5 9.45e-4,0 0.0038,2.91e-4 0.0075,4.851e-4 0.01137,4.851e-4 h 0.0062 1.206516 c 0.06718,0 0.121267,-0.054082 0.121267,-0.1212674 0,-0.067182 -0.05409,-0.1212674 -0.121267,-0.1212674 H 3.3571801 L 4.5726961,1.419784 c 0.04751,-0.047502 0.04751,-0.1239753 0,-0.1714797 -0.02387,-0.023896 -0.0548,-0.0356 -0.0858,-0.0356 -0.0017,0 -0.0035,-6.91e-5 -0.0052,0 z m -2.94405,1.7304285 c -0.06425,0.00324 -0.115109,0.056182 -0.115109,0.1212673 0,0.067182 0.05409,0.1212674 0.121267,0.1212674 h 0.919927 l -1.215516,1.2155156 c -0.04751,0.047502 -0.04751,0.1239753 0,0.1714798 0.02381,0.023823 0.05474,0.035527 0.08574,0.035527 0.0017,0 0.0035,6.91e-5 0.0052,0 0.02543,-0.00104 0.05065,-0.00997 0.07153,-0.027001 0.0032,-0.0026 0.006,-0.00556 0.009,-0.00853 l 1.215515,-1.2155159 v 0.9199267 c 0,0.067182 0.05409,0.1212673 0.121268,0.1212673 0.06718,0 0.121267,-0.054084 0.121267,-0.1212673 V 3.0705419 c 1.04e-4,-0.00211 0,-0.00405 0,-0.00616 0,-0.00385 -9.9e-5,-0.00762 -4.85e-4,-0.011368 -2.2e-4,-0.00238 -6.06e-4,-0.00481 -9.46e-4,-0.00711 -2.39e-4,-0.00155 -6.55e-4,-0.00318 -9.46e-4,-0.00474 -0.0015,-0.00779 -0.0038,-0.015103 -0.0066,-0.022265 -9.7e-4,-0.00238 -0.0017,-0.00481 -0.0028,-0.00711 -3.88e-4,-8.246e-4 -0.001,-0.00155 -0.0014,-0.00238 -2.27e-4,-4.366e-4 -2.19e-4,-9.701e-4 -4.85e-4,-0.00143 -2.67e-4,-4.85e-4 -6.79e-4,-8.731e-4 -9.46e-4,-0.00143 -1.73e-4,-3.153e-4 -2.91e-4,-6.549e-4 -4.85e-4,-9.459e-4 -7.76e-4,-0.00138 -0.0016,-0.00289 -0.0024,-0.00426 -7.28e-4,-0.00119 -0.0016,-0.00213 -0.0024,-0.00332 -3.15e-4,-4.851e-4 -6.31e-4,-8.731e-4 -9.46e-4,-0.00143 -0.0044,-0.00642 -0.0092,-0.01252 -0.01469,-0.018001 -0.0041,-0.00413 -0.0086,-0.00788 -0.01327,-0.011368 -0.0016,-0.00119 -0.0031,-0.00221 -0.0047,-0.00332 -0.0011,-7.762e-4 -0.0022,-0.00163 -0.0033,-0.00238 -0.0021,-0.00138 -0.0044,-0.00259 -0.0066,-0.00379 -9.45e-4,-5.093e-4 -0.0019,-8.731e-4 -0.0028,-0.00143 -8e-4,-4.123e-4 -0.0016,-9.701e-4 -0.0024,-0.00143 -0.0023,-0.00109 -0.0047,-0.00184 -0.0071,-0.00284 -0.0072,-0.00293 -0.0145,-0.00517 -0.02227,-0.00663 -0.0035,-6.791e-4 -0.0073,-0.00153 -0.0109,-0.00189 -2.91e-4,-3.13e-5 -6.54e-4,2.84e-5 -9.45e-4,0 -0.0038,-2.91e-4 -0.0075,-4.851e-4 -0.01137,-4.851e-4 h -0.0062 -1.206515 c -0.0021,0 -0.0041,-1.045e-4 -0.0062,0 z" />
  </g>
  <g
     id="hover-center"
     transform="scale(1.0909091)">
    <rect
       style="opacity:1;fill:none;fill-opacity:1;stroke-width:0.173636"
       id="rect1103"
       width="5.8208332"
       height="5.8208332"
       x="5.8208332"
       y="0" />
    <path
       id="rect846-62-9-2"
       style="fill:#333333;stroke-width:0.0784229"
       d="m 10.302616,1.2126898 c -0.02543,0.00104 -0.05065,0.00997 -0.07153,0.027001 -0.0032,0.00259 -0.006,0.00556 -0.009,0.00853 L 9.0065699,2.4637366 V 1.5438065 c 0,-0.067183 -0.05408,-0.1212673 -0.121267,-0.1212673 -0.06718,0 -0.121267,0.054084 -0.121267,0.1212673 v 1.2065156 c -1.05e-4,0.00211 0,0.00405 0,0.00616 0,0.00385 9.9e-5,0.00762 4.85e-4,0.011368 2.2e-4,0.00238 6.06e-4,0.00481 9.46e-4,0.00711 2.38e-4,0.00155 6.54e-4,0.00318 9.45e-4,0.00474 0.0015,0.00779 0.0038,0.015103 0.0066,0.022265 9.7e-4,0.00238 0.0017,0.00481 0.0028,0.00711 3.88e-4,8.246e-4 10e-4,0.00155 0.0014,0.00238 2.27e-4,4.366e-4 2.19e-4,9.702e-4 4.85e-4,0.00143 2.67e-4,4.851e-4 6.79e-4,8.731e-4 9.46e-4,0.00143 1.72e-4,3.153e-4 2.91e-4,6.549e-4 4.85e-4,9.459e-4 7.76e-4,0.00138 0.0016,0.00289 0.0024,0.00426 7.27e-4,0.00119 0.0016,0.00213 0.0024,0.00332 3.16e-4,4.851e-4 6.31e-4,8.731e-4 9.46e-4,0.00143 0.0044,0.00642 0.0092,0.01252 0.01469,0.018001 0.0041,0.00413 0.0086,0.00788 0.01326,0.011368 0.0016,0.00119 0.0031,0.00221 0.0047,0.00332 0.0011,7.761e-4 0.0022,0.00163 0.0033,0.00238 0.0021,0.00138 0.0044,0.00259 0.0066,0.00379 9.46e-4,5.093e-4 0.0019,8.731e-4 0.0028,0.00143 8e-4,4.123e-4 0.0016,9.701e-4 0.0024,0.00143 0.0023,0.00109 0.0047,0.00184 0.0071,0.00284 0.0072,0.00293 0.0145,0.00517 0.02226,0.00663 0.0035,6.791e-4 0.0073,0.00153 0.01089,0.00189 2.91e-4,3.15e-5 6.55e-4,-2.84e-5 9.46e-4,0 0.0038,2.91e-4 0.0075,4.851e-4 0.01137,4.851e-4 h 0.0062 1.2065151 c 0.06718,0 0.121268,-0.054082 0.121268,-0.1212674 0,-0.067182 -0.05409,-0.1212673 -0.121268,-0.1212673 H 9.1781109 L 10.393627,1.4197839 c 0.04751,-0.047502 0.04751,-0.1239752 0,-0.1714796 -0.02387,-0.023896 -0.0548,-0.0356 -0.0858,-0.0356 -0.0017,0 -0.0035,-6.91e-5 -0.0052,0 z M 7.3585666,2.9431183 c -0.064251,0.00324 -0.1151092,0.056182 -0.1151092,0.1212674 0,0.067182 0.054085,0.1212673 0.1212673,0.1212673 H 8.2846509 L 7.0691356,4.4011686 c -0.047505,0.047502 -0.047505,0.1239753 0,0.1714798 0.023812,0.023823 0.054742,0.035527 0.08574,0.035527 0.0017,0 0.00351,6.91e-5 0.00521,0 0.025435,-0.00104 0.050654,-0.00997 0.071529,-0.027001 0.00318,-0.0026 0.00603,-0.00556 0.009,-0.00853 L 8.4561309,3.3571316 v 0.9199267 c 0,0.067182 0.05409,0.1212673 0.121267,0.1212673 0.06718,0 0.121267,-0.054084 0.121267,-0.1212673 V 3.0705426 c 1.05e-4,-0.00211 0,-0.00405 0,-0.00616 0,-0.00385 -9.9e-5,-0.00762 -4.85e-4,-0.011368 -2.2e-4,-0.00238 -6.06e-4,-0.00481 -9.45e-4,-0.00711 -2.39e-4,-0.00155 -6.55e-4,-0.00318 -9.46e-4,-0.00474 -0.0015,-0.00779 -0.0038,-0.015103 -0.0066,-0.022265 -9.7e-4,-0.00238 -0.0017,-0.00481 -0.0028,-0.00711 -3.88e-4,-8.246e-4 -10e-4,-0.00155 -0.0014,-0.00238 -2.27e-4,-4.365e-4 -2.19e-4,-9.701e-4 -4.85e-4,-0.00143 -2.67e-4,-4.85e-4 -6.79e-4,-8.731e-4 -9.46e-4,-0.00143 -1.72e-4,-3.153e-4 -2.91e-4,-6.548e-4 -4.85e-4,-9.458e-4 -7.76e-4,-0.00138 -0.0016,-0.00289 -0.0024,-0.00426 -7.27e-4,-0.00119 -0.0016,-0.00213 -0.0024,-0.00332 -3.16e-4,-4.851e-4 -6.31e-4,-8.732e-4 -9.46e-4,-0.00143 -0.0044,-0.00642 -0.0092,-0.01252 -0.01469,-0.018001 -0.0041,-0.00413 -0.0086,-0.00788 -0.01326,-0.011368 -0.0016,-0.00119 -0.0031,-0.00221 -0.0047,-0.00332 -0.0011,-7.762e-4 -0.0022,-0.00163 -0.0033,-0.00238 -0.0021,-0.00138 -0.0044,-0.00259 -0.0066,-0.00379 -9.46e-4,-5.094e-4 -0.0019,-8.732e-4 -0.0028,-0.00143 -8e-4,-4.123e-4 -0.0016,-9.702e-4 -0.0024,-0.00143 -0.0023,-0.00109 -0.0047,-0.00184 -0.0071,-0.00284 -0.0071,-0.00293 -0.0145,-0.00517 -0.02226,-0.00663 -0.0035,-6.791e-4 -0.0073,-0.00153 -0.01089,-0.00189 -2.91e-4,-3.13e-5 -6.55e-4,2.83e-5 -9.46e-4,0 -0.0038,-2.911e-4 -0.0075,-4.851e-4 -0.01137,-4.851e-4 h -0.0062 -1.206516 c -0.0021,0 -0.00409,-1.045e-4 -0.00616,0 z" />
    <circle
       style="opacity:0.07;fill:#000000;fill-opacity:1;stroke-width:0.264583"
       id="path1519"
       cx="8.7312498"
       cy="2.9104166"
       r="2.9104166" />
  </g>
  <g
     id="pressed-center"
     transform="scale(1.0909091)">
    <rect
       style="opacity:1;fill:none;fill-opacity:1;stroke-width:0.182689"
       id="rect1207"
       width="5.8208332"
       height="5.8208332"
       x="11.641666"
       y="0" />
    <path
       id="rect846-62-9-9"
       style="fill:#333333;stroke-width:0.0784229"
       d="m 16.123453,1.2126891 c -0.02544,0.00104 -0.05065,0.00997 -0.07153,0.027001 -0.0032,0.00259 -0.006,0.00556 -0.009,0.00853 L 14.827408,2.4637324 V 1.5438058 c 0,-0.067182 -0.05409,-0.1212673 -0.121268,-0.1212673 -0.06718,0 -0.121267,0.054084 -0.121267,0.1212673 v 1.2065156 c -1.04e-4,0.00211 0,0.00405 0,0.00616 0,0.00385 9.9e-5,0.00762 4.85e-4,0.011368 2.2e-4,0.00238 6.06e-4,0.00481 9.46e-4,0.00711 2.39e-4,0.00155 6.55e-4,0.00318 9.46e-4,0.00474 0.0015,0.00779 0.0038,0.015103 0.0066,0.022265 9.7e-4,0.00238 0.0017,0.00481 0.0028,0.00711 3.88e-4,8.246e-4 10e-4,0.00155 0.0014,0.00238 2.28e-4,4.366e-4 2.19e-4,9.701e-4 4.85e-4,0.00143 2.67e-4,4.85e-4 6.79e-4,8.731e-4 9.46e-4,0.00143 1.73e-4,3.153e-4 2.91e-4,6.549e-4 4.85e-4,9.459e-4 7.76e-4,0.00138 0.0016,0.00289 0.0024,0.00426 7.28e-4,0.00119 0.0016,0.00213 0.0024,0.00332 3.15e-4,4.851e-4 6.31e-4,8.731e-4 9.46e-4,0.00143 0.0044,0.00642 0.0092,0.01252 0.01469,0.018001 0.0041,0.00413 0.0086,0.00788 0.01327,0.011368 0.0016,0.00119 0.0031,0.00221 0.0047,0.00332 0.0011,7.762e-4 0.0022,0.00163 0.0033,0.00238 0.0021,0.00138 0.0044,0.00259 0.0066,0.00379 9.46e-4,5.093e-4 0.0019,8.731e-4 0.0028,0.00143 8e-4,4.123e-4 0.0016,9.701e-4 0.0024,0.00143 0.0023,0.00109 0.0047,0.00184 0.0071,0.00284 0.0071,0.00293 0.0145,0.00517 0.02226,0.00663 0.0035,6.791e-4 0.0073,0.00153 0.0109,0.00189 2.91e-4,3.15e-5 6.54e-4,-2.84e-5 9.45e-4,0 0.0038,2.91e-4 0.0075,4.851e-4 0.01137,4.851e-4 h 0.0062 1.206516 c 0.06718,0 0.121267,-0.054082 0.121267,-0.1212674 0,-0.067182 -0.05408,-0.1212674 -0.121267,-0.1212674 h -0.919927 l 1.215516,-1.2155157 c 0.04751,-0.047502 0.04751,-0.1239752 0,-0.1714796 -0.02387,-0.023896 -0.0548,-0.0356 -0.0858,-0.0356 -0.0017,0 -0.0035,-6.91e-5 -0.0052,0 z m -2.94405,1.7304285 c -0.06425,0.00324 -0.115109,0.056182 -0.115109,0.1212673 0,0.067182 0.05409,0.1212674 0.121267,0.1212674 h 0.919927 l -1.215516,1.2155156 c -0.04751,0.047502 -0.04751,0.1239753 0,0.1714798 0.02381,0.023823 0.05474,0.035527 0.08574,0.035527 0.0017,0 0.0035,6.91e-5 0.0052,0 0.02543,-0.00104 0.05065,-0.00997 0.07153,-0.027001 0.0032,-0.0026 0.006,-0.00556 0.009,-0.00853 l 1.215515,-1.2155158 v 0.9199267 c 0,0.067182 0.05409,0.1212673 0.121268,0.1212673 0.06718,0 0.121267,-0.054084 0.121267,-0.1212673 V 3.0705419 c 1.04e-4,-0.00211 0,-0.00405 0,-0.00616 0,-0.00385 -9.9e-5,-0.00762 -4.85e-4,-0.011368 -2.2e-4,-0.00238 -6.06e-4,-0.00481 -9.46e-4,-0.00711 -2.39e-4,-0.00155 -6.55e-4,-0.00318 -9.46e-4,-0.00474 -0.0015,-0.00779 -0.0038,-0.015103 -0.0066,-0.022265 -9.7e-4,-0.00238 -0.0017,-0.00481 -0.0028,-0.00711 -3.88e-4,-8.246e-4 -10e-4,-0.00155 -0.0014,-0.00238 -2.27e-4,-4.366e-4 -2.19e-4,-9.702e-4 -4.85e-4,-0.00143 -2.67e-4,-4.85e-4 -6.79e-4,-8.731e-4 -9.46e-4,-0.00143 -1.73e-4,-3.153e-4 -2.91e-4,-6.549e-4 -4.85e-4,-9.459e-4 -7.76e-4,-0.00138 -0.0016,-0.00289 -0.0024,-0.00426 -7.28e-4,-0.00119 -0.0016,-0.00213 -0.0024,-0.00332 -3.15e-4,-4.851e-4 -6.31e-4,-8.731e-4 -9.46e-4,-0.00143 -0.0044,-0.00642 -0.0092,-0.01252 -0.01469,-0.018001 -0.0041,-0.00413 -0.0086,-0.00788 -0.01327,-0.011368 -0.0016,-0.00119 -0.0031,-0.00221 -0.0047,-0.00332 -0.0011,-7.761e-4 -0.0022,-0.00162 -0.0033,-0.00238 -0.0021,-0.00138 -0.0044,-0.00259 -0.0066,-0.00379 -9.45e-4,-5.093e-4 -0.0019,-8.731e-4 -0.0028,-0.00143 -8e-4,-4.123e-4 -0.0016,-9.701e-4 -0.0024,-0.00143 -0.0023,-0.00109 -0.0047,-0.00184 -0.0071,-0.00284 -0.0072,-0.00293 -0.0145,-0.00517 -0.02227,-0.00663 -0.0035,-6.791e-4 -0.0073,-0.00153 -0.0109,-0.00189 -2.91e-4,-3.13e-5 -6.54e-4,2.84e-5 -9.45e-4,0 -0.0038,-2.91e-4 -0.0075,-4.851e-4 -0.01137,-4.851e-4 h -0.0062 -1.206515 c -0.0021,0 -0.0041,-1.045e-4 -0.0062,0 z" />
    <circle
       style="opacity:0.16;fill:#000000;fill-opacity:1;stroke-width:0.264583"
       id="path1685"
       cx="14.552083"
       cy="2.9104166"
       r="2.9104166" />
  </g>
  <g
     id="inactive-center"
     transform="scale(1.0909091)">
    <rect
       style="opacity:1;fill:none;fill-opacity:1;stroke-width:0.194407"
       id="rect1311"
       width="5.8208332"
       height="5.8208332"
       x="17.4625"
       y="0" />
    <path
       id="rect846-62-9-5"
       style="opacity:0.3;fill:#333333;stroke-width:0.0784229"
       d="m 21.944287,1.2126892 c -0.02543,0.00104 -0.05065,0.00997 -0.07153,0.027001 -0.0032,0.00259 -0.006,0.00556 -0.009,0.00853 L 20.648242,2.4637326 V 1.543806 c 0,-0.067182 -0.05409,-0.1212674 -0.121268,-0.1212674 -0.06718,0 -0.121267,0.054084 -0.121267,0.1212674 v 1.2065155 c -1.04e-4,0.00211 0,0.00405 0,0.00616 0,0.00385 9.9e-5,0.00762 4.85e-4,0.011368 2.2e-4,0.00238 6.06e-4,0.00481 9.46e-4,0.00711 2.39e-4,0.00155 6.55e-4,0.00318 9.46e-4,0.00474 0.0015,0.00779 0.0038,0.015103 0.0066,0.022265 9.7e-4,0.00238 0.0017,0.00481 0.0028,0.00711 3.88e-4,8.246e-4 10e-4,0.00155 0.0014,0.00238 2.28e-4,4.366e-4 2.19e-4,9.702e-4 4.85e-4,0.00143 2.67e-4,4.851e-4 6.79e-4,8.731e-4 9.46e-4,0.00143 1.73e-4,3.152e-4 2.91e-4,6.548e-4 4.85e-4,9.458e-4 7.76e-4,0.00138 0.0016,0.00289 0.0024,0.00426 7.28e-4,0.00119 0.0016,0.00213 0.0024,0.00332 3.15e-4,4.851e-4 6.31e-4,8.732e-4 9.46e-4,0.00143 0.0044,0.00642 0.0092,0.01252 0.01469,0.018001 0.0041,0.00413 0.0086,0.00788 0.01327,0.011368 0.0016,0.00119 0.0031,0.00221 0.0047,0.00332 0.0011,7.761e-4 0.0022,0.00162 0.0033,0.00238 0.0021,0.00138 0.0044,0.00259 0.0066,0.00379 9.46e-4,5.094e-4 0.0019,8.732e-4 0.0028,0.00143 8e-4,4.123e-4 0.0016,9.701e-4 0.0024,0.00143 0.0023,0.00109 0.0047,0.00184 0.0071,0.00284 0.0071,0.00293 0.0145,0.00517 0.02227,0.00663 0.0035,6.791e-4 0.0073,0.00153 0.01089,0.00189 2.91e-4,3.16e-5 6.54e-4,-2.83e-5 9.45e-4,0 0.0038,2.911e-4 0.0075,4.851e-4 0.01137,4.851e-4 h 0.0062 1.206516 c 0.06718,0 0.121267,-0.054082 0.121267,-0.1212674 0,-0.067182 -0.05409,-0.1212673 -0.121267,-0.1212673 H 20.81967 L 22.035186,1.419784 c 0.04751,-0.047502 0.04751,-0.1239753 0,-0.1714797 -0.02387,-0.023896 -0.0548,-0.0356 -0.0858,-0.0356 -0.0017,0 -0.0035,-6.91e-5 -0.0052,0 z m -2.94405,1.7304285 c -0.06425,0.00324 -0.115109,0.056182 -0.115109,0.1212674 0,0.067182 0.05409,0.1212673 0.121267,0.1212673 h 0.919927 L 18.710806,4.401168 c -0.04751,0.047502 -0.04751,0.1239753 0,0.1714799 0.02381,0.023823 0.05474,0.035527 0.08574,0.035527 0.0017,0 0.0035,6.91e-5 0.0052,0 0.02543,-0.00104 0.05065,-0.00997 0.07153,-0.027001 0.0032,-0.0026 0.006,-0.00556 0.009,-0.00853 L 20.097801,3.357131 v 0.9199267 c 0,0.067182 0.05409,0.1212674 0.121268,0.1212674 0.06718,0 0.121267,-0.054084 0.121267,-0.1212674 V 3.0705421 c 1.04e-4,-0.00211 0,-0.00405 0,-0.00616 0,-0.00385 -9.9e-5,-0.00762 -4.85e-4,-0.011368 -2.2e-4,-0.00238 -6.06e-4,-0.00481 -9.46e-4,-0.00711 -2.39e-4,-0.00155 -6.55e-4,-0.00318 -9.46e-4,-0.00474 -0.0015,-0.00779 -0.0038,-0.015103 -0.0066,-0.022265 -9.7e-4,-0.00238 -0.0017,-0.00481 -0.0028,-0.00711 -3.88e-4,-8.247e-4 -10e-4,-0.00155 -0.0014,-0.00238 -2.27e-4,-4.365e-4 -2.19e-4,-9.701e-4 -4.85e-4,-0.00143 -2.67e-4,-4.851e-4 -6.79e-4,-8.732e-4 -9.46e-4,-0.00143 -1.73e-4,-3.153e-4 -2.91e-4,-6.548e-4 -4.85e-4,-9.459e-4 -7.76e-4,-0.00138 -0.0016,-0.00289 -0.0024,-0.00426 -7.28e-4,-0.00119 -0.0016,-0.00213 -0.0024,-0.00332 -3.15e-4,-4.85e-4 -6.31e-4,-8.731e-4 -9.46e-4,-0.00143 -0.0044,-0.00642 -0.0092,-0.01252 -0.01469,-0.018001 -0.0041,-0.00413 -0.0086,-0.00788 -0.01326,-0.011368 -0.0016,-0.00119 -0.0031,-0.00221 -0.0047,-0.00332 -0.0011,-7.761e-4 -0.0022,-0.00162 -0.0033,-0.00238 -0.0021,-0.00138 -0.0044,-0.00259 -0.0066,-0.00379 -9.45e-4,-5.093e-4 -0.0019,-8.731e-4 -0.0028,-0.00143 -8e-4,-4.123e-4 -0.0016,-9.702e-4 -0.0024,-0.00143 -0.0023,-0.00109 -0.0047,-0.00184 -0.0071,-0.00284 -0.0071,-0.00293 -0.0145,-0.00517 -0.02227,-0.00663 -0.0035,-6.791e-4 -0.0073,-0.00153 -0.01089,-0.00189 -2.91e-4,-3.12e-5 -6.54e-4,2.84e-5 -9.45e-4,0 -0.0038,-2.91e-4 -0.0075,-4.85e-4 -0.01137,-4.85e-4 h -0.0062 -1.206515 c -0.0021,0 -0.0041,-1.046e-4 -0.0062,0 z" />
  </g>
  <g
     id="deactivated-center"
     transform="scale(1.0909091)">
    <rect
       style="opacity:1;fill:none;fill-opacity:1;stroke-width:0.125144"
       id="rect1415"
       width="5.8208332"
       height="5.8208332"
       x="23.283333"
       y="0" />
    <path
       id="rect846-62-9"
       style="opacity:0.2;fill:#333333;stroke-width:0.0784229"
       d="m 27.76512,1.2126856 c -0.02544,0.00104 -0.05065,0.00997 -0.07153,0.027001 -0.0032,0.00259 -0.006,0.00556 -0.009,0.00853 L 26.469075,2.4637324 V 1.5438058 c 0,-0.067182 -0.05409,-0.1212673 -0.121268,-0.1212673 -0.06718,0 -0.121267,0.054084 -0.121267,0.1212673 v 1.2065156 c -1.04e-4,0.00211 0,0.00405 0,0.00616 0,0.00385 9.9e-5,0.00762 4.85e-4,0.011368 2.2e-4,0.00238 6.06e-4,0.00481 9.46e-4,0.00711 2.39e-4,0.00155 6.55e-4,0.00318 9.46e-4,0.00474 0.0015,0.00779 0.0038,0.015103 0.0066,0.022265 9.7e-4,0.00238 0.0017,0.00481 0.0028,0.00711 3.88e-4,8.246e-4 0.001,0.00155 0.0014,0.00238 2.28e-4,4.366e-4 2.19e-4,9.702e-4 4.85e-4,0.00143 2.67e-4,4.85e-4 6.79e-4,8.731e-4 9.46e-4,0.00143 1.73e-4,3.153e-4 2.91e-4,6.549e-4 4.85e-4,9.459e-4 7.76e-4,0.00138 0.0016,0.00289 0.0024,0.00426 7.28e-4,0.00119 0.0016,0.00213 0.0024,0.00332 3.15e-4,4.851e-4 6.31e-4,8.731e-4 9.46e-4,0.00143 0.0044,0.00642 0.0092,0.01252 0.01469,0.018001 0.0041,0.00413 0.0086,0.00788 0.01327,0.011368 0.0016,0.00119 0.0031,0.00221 0.0047,0.00332 0.0011,7.761e-4 0.0022,0.00162 0.0033,0.00238 0.0021,0.00138 0.0044,0.00259 0.0066,0.00379 9.46e-4,5.093e-4 0.0019,8.731e-4 0.0028,0.00143 8e-4,4.123e-4 0.0016,9.701e-4 0.0024,0.00143 0.0023,0.00109 0.0047,0.00184 0.0071,0.00284 0.0071,0.00293 0.0145,0.00517 0.02226,0.00663 0.0035,6.791e-4 0.0073,0.00153 0.0109,0.00189 2.91e-4,3.15e-5 6.54e-4,-2.84e-5 9.45e-4,0 0.0038,2.91e-4 0.0075,4.851e-4 0.01137,4.851e-4 h 0.0062 1.206516 c 0.06718,0 0.121267,-0.054082 0.121267,-0.1212674 0,-0.067182 -0.05408,-0.1212674 -0.121267,-0.1212674 h -0.919927 l 1.215516,-1.2155157 c 0.04751,-0.047502 0.04751,-0.1239752 0,-0.1714796 -0.02387,-0.023896 -0.0548,-0.0356 -0.0858,-0.0356 -0.0017,0 -0.0035,-6.91e-5 -0.0052,0 z m -2.94405,1.7304285 c -0.06425,0.00324 -0.115109,0.056182 -0.115109,0.1212673 0,0.067182 0.05409,0.1212674 0.121267,0.1212674 h 0.919927 l -1.215516,1.2155156 c -0.04751,0.047502 -0.04751,0.1239753 0,0.1714798 0.02381,0.023823 0.05474,0.035527 0.08574,0.035527 0.0017,0 0.0035,6.91e-5 0.0052,0 0.02543,-0.00104 0.05065,-0.00997 0.07153,-0.027001 0.0032,-0.00259 0.006,-0.00556 0.009,-0.00853 L 25.918624,3.3571243 V 4.277051 c 0,0.067182 0.05408,0.1212674 0.121268,0.1212674 0.06718,0 0.121267,-0.054084 0.121267,-0.1212674 V 3.070538 c 1.04e-4,-0.00211 0,-0.00405 0,-0.00616 0,-0.00385 -9.9e-5,-0.00762 -4.85e-4,-0.011368 -2.2e-4,-0.00238 -6.06e-4,-0.00481 -9.46e-4,-0.00711 -2.39e-4,-0.00155 -6.55e-4,-0.00318 -9.46e-4,-0.00474 -0.0015,-0.00779 -0.0038,-0.015103 -0.0066,-0.022265 -9.7e-4,-0.00238 -0.0017,-0.00481 -0.0028,-0.00711 -3.88e-4,-8.246e-4 -10e-4,-0.00155 -0.0014,-0.00238 -2.27e-4,-4.366e-4 -2.19e-4,-9.701e-4 -4.85e-4,-0.00143 -2.67e-4,-4.85e-4 -6.79e-4,-8.731e-4 -9.46e-4,-0.00143 -1.73e-4,-3.153e-4 -2.91e-4,-6.549e-4 -4.85e-4,-9.459e-4 -7.76e-4,-0.00138 -0.0016,-0.00289 -0.0024,-0.00426 -7.28e-4,-0.00119 -0.0016,-0.00213 -0.0024,-0.00332 -3.15e-4,-4.851e-4 -6.31e-4,-8.731e-4 -9.46e-4,-0.00143 -0.0044,-0.00642 -0.0092,-0.01252 -0.01469,-0.018001 -0.0041,-0.00413 -0.0086,-0.00788 -0.01327,-0.011368 -0.0016,-0.00119 -0.0031,-0.00221 -0.0047,-0.00332 -0.0011,-7.762e-4 -0.0022,-0.00162 -0.0033,-0.00238 -0.0021,-0.00138 -0.0044,-0.00259 -0.0066,-0.00379 -9.45e-4,-5.093e-4 -0.0019,-8.731e-4 -0.0028,-0.00143 -8e-4,-4.123e-4 -0.0016,-9.701e-4 -0.0024,-0.00143 -0.0023,-0.00109 -0.0047,-0.00184 -0.0071,-0.00284 -0.0072,-0.00293 -0.0145,-0.00517 -0.02227,-0.00663 -0.0035,-6.791e-4 -0.0073,-0.00153 -0.0109,-0.00189 -2.91e-4,-3.13e-5 -6.54e-4,2.84e-5 -9.45e-4,0 -0.0038,-2.91e-4 -0.0075,-4.851e-4 -0.01137,-4.851e-4 h -0.0062 -1.206515 c -0.0021,0 -0.0041,-1.045e-4 -0.0062,0 z" />
  </g>
</svg>
