<?xml version="1.0" encoding="UTF-8" standalone="no"?>
<!-- Generator: Adobe Illustrator 23.0.0, SVG Export Plug-In . SVG Version: 6.00 Build 0)  -->

<svg
   version="1.1"
   id="레이어_1"
   x="0px"
   y="0px"
   viewBox="0 0 256 256"
   style="enable-background:new 0 0 256 256;"
   xml:space="preserve"
   sodipodi:docname="application-x-rpm.svg"
   inkscape:version="1.1.1 (3bf5ae0d25, 2021-09-20)"
   xmlns:inkscape="http://www.inkscape.org/namespaces/inkscape"
   xmlns:sodipodi="http://sodipodi.sourceforge.net/DTD/sodipodi-0.dtd"
   xmlns="http://www.w3.org/2000/svg"
   xmlns:svg="http://www.w3.org/2000/svg">
    <defs id="defs23">
    </defs>
<sodipodi:namedview
   id="namedview21"
   pagecolor="#ffffff"
   bordercolor="#666666"
   borderopacity="1.0"
   inkscape:pageshadow="2"
   inkscape:pageopacity="0.0"
   inkscape:pagecheckerboard="0"
   showgrid="false"
   inkscape:zoom="2.4609375"
   inkscape:cx="128"
   inkscape:cy="127.79683"
   inkscape:window-width="1920"
   inkscape:window-height="1007"
   inkscape:window-x="0"
   inkscape:window-y="0"
   inkscape:window-maximized="1"
   inkscape:current-layer="레이어_1" />
<style
   type="text/css"
   id="style2">
	.st0{fill:#3865A7;}
	.st1{fill:#FFFFFF;}
</style>
<path
   class="st0"
   d="M 251.7,90.4 C 248.6,67 240.3,45.8 225.7,30.3 v 0 C 210.1,15.7 189,7.4 165.6,4.3 143.2,1.3 128,2 128,2 128,2 112.8,1.3 90.4,4.3 67,7.4 45.8,15.7 30.3,30.3 15.7,45.8 7.5,67 4.3,90.4 1.3,112.7 2.1,128 2.1,128 c 0,0 -0.7,15.2 2.2,37.6 3.1,23.4 11.4,44.6 26,60.1 v 0 c 15.6,14.6 36.7,22.9 60.1,26 22.3,3 37.6,2.2 37.6,2.2 0,0 15.2,0.7 37.6,-2.2 23.4,-3.1 44.6,-11.4 60.1,-26 v 0 c 14.6,-15.6 22.9,-36.7 26,-60.1 3,-22.3 2.2,-37.6 2.2,-37.6 0,0 0.8,-15.2 -2.2,-37.6"
   id="path4"
   style="fill:#3965a8;fill-opacity:1" /><path
   id="path6"
   class="st1"
   d="M 65.699219 102.80078 L 65.699219 159.40039 L 72.199219 159.40039 L 72.199219 137.80078 L 83 137.80078 L 96.699219 159.30078 L 104.69922 159.30078 L 89.900391 137 C 93.800391 136.1 96.800391 134.20078 98.900391 131.30078 C 101.00039 128.40078 102 124.69922 102 120.19922 C 102 114.69922 100.50039 110.50039 97.400391 107.40039 C 94.300391 104.30039 90 102.80078 84.5 102.80078 L 65.699219 102.80078 z M 115 102.80078 L 115 159.40039 L 121.5 159.40039 L 121.5 139.30078 L 134.19922 139.30078 C 139.89922 139.30078 144.3 137.7 147.5 134.5 C 150.7 131.3 152.30078 126.79961 152.30078 121.09961 C 152.30078 115.39961 150.6 110.79961 147.5 107.59961 C 144.4 104.39961 140.1 102.80078 134.5 102.80078 L 115 102.80078 z M 161.59961 102.80078 L 161.59961 159.40039 L 167.90039 159.40039 L 167.90039 113 L 183.80078 147.69922 L 190.59961 147.69922 L 206.5 113 L 206.5 159.5 L 212.80078 159.5 L 212.80078 102.90039 L 212.80078 102.80078 L 204.90039 102.80078 L 187.19922 141.40039 L 169.40039 102.80078 L 161.59961 102.80078 z M 72.099609 108.69922 L 84.099609 108.69922 C 87.799609 108.69922 90.500391 109.69922 92.400391 111.69922 C 94.300391 113.69922 95.199219 116.60039 95.199219 120.40039 C 95.199219 124.20039 94.3 127.09961 92.5 129.09961 C 90.7 130.99961 88 132 84.5 132 L 72.199219 132 L 72.099609 132 L 72.099609 108.69922 z M 121.5 108.69922 L 134.19922 108.69922 C 137.89922 108.69922 140.69961 109.80039 142.59961 111.90039 C 144.49961 114.00039 145.5 117.09961 145.5 121.09961 C 145.5 125.09961 144.59922 128.20078 142.69922 130.30078 C 140.79922 132.40078 138.1 133.5 134.5 133.5 L 121.5 133.5 L 121.5 108.69922 z M 50.099609 151.09961 C 48.599609 151.09961 47.499219 151.60039 46.699219 152.40039 C 45.899219 153.20039 45.5 154.30078 45.5 155.80078 C 45.5 157.30078 45.899219 158.39922 46.699219 159.19922 C 47.499219 159.99922 48.599609 160.40039 50.099609 160.40039 C 51.599609 160.40039 52.7 159.99922 53.5 159.19922 C 54.3 158.39922 54.699219 157.19922 54.699219 155.69922 C 54.699219 154.19922 54.3 153.10078 53.5 152.30078 C 52.7 151.50078 51.599609 151.09961 50.099609 151.09961 z "
   style="fill:#ffffff" />

</svg>
